<?xml version="1.0" standalone="no"?><svg xmlns:xlink="http://www.w3.org/1999/xlink" xmlns="http://www.w3.org/2000/svg" viewBox="0 0 1000 545.448905109489" preserveAspectRatio="xMaxYMax slice"><g transform="scale(1.8248175182481752)"><rect x="0" y="0" width="548" height="298.90909090909093" fill="#ffffff"/><rect x="0" y="0" width="49.81818181818182" height="49.81818181818182" fill="#ffffff"/><rect x="0" y="0" width="24.91" height="24.91" fill="#3c83f6"/><path d="M 0 24.91 A 24.91 24.91 0 0 0 24.91 0 L 0 0" fill="#f4d983"/><rect x="24.91" y="0" width="24.91" height="24.91" fill="#f4f8ff"/><path d="M 24.91 0 A 24.91 24.91 0 0 0 49.82 24.91 L 49.82 0" fill="#a7c7fb"/><rect x="0" y="24.91" width="24.91" height="24.91" fill="#c6dbfc"/><path d="M 0 24.91 A 24.91 24.91 0 0 1 24.91 49.82 L 0 49.82" fill="#f5dc8e"/><rect x="24.91" y="24.91" width="24.91" height="24.91" fill="#478af7"/><path d="M 24.91 49.82 A 24.91 24.91 0 0 1  49.82 24.91 L 49.82 49.82" fill="#f2f7fe"/><rect x="49.81818181818182" y="0" width="49.81818181818182" height="49.81818181818182" fill="#ffffff"/><rect x="49.82" y="0" width="24.91" height="24.91" fill="#bfd6fc"/><polygon points="74.73,0 74.73,24.91 49.82,24.91" fill="#edc031"/><rect x="74.73" y="0" width="24.91" height="24.91" fill="#ecba1e"/><polygon points="74.73,0 99.64,24.91 74.73,24.91" fill="#bed5fc"/><rect x="49.82" y="24.91" width="24.91" height="24.91" fill="#fdf8ea"/><polygon points="49.82,24.91 74.73,24.91 74.73,49.82" fill="#fcf6e1"/><rect x="74.73" y="24.91" width="24.91" height="24.91" fill="#fcf5de"/><polygon points="74.73,24.91 99.64,24.91 74.73,49.82" fill="#74a7f9"/><rect x="99.63636363636364" y="0" width="49.81818181818182" height="49.81818181818182" fill="#ffffff"/><rect x="99.64" y="0" width="24.91" height="24.91" fill="#edbf30"/><path d="M 99.64 0 A 24.91 24.91 0 0 1 124.55 24.91 L 99.64 24.91" fill="#f6e099"/><rect x="124.55" y="0" width="24.91" height="24.91" fill="#f8e6af"/><path d="M 124.55 24.91 A 24.91 24.91 0 0 1  149.46 0 L 149.46 24.91" fill="#f6df98"/><rect x="99.64" y="24.91" width="24.91" height="24.91" fill="#fcf4dd"/><path d="M 99.64 49.82 A 24.91 24.91 0 0 0 124.55 24.91 L 99.64 24.91" fill="#8cb6fa"/><rect x="124.55" y="24.91" width="24.91" height="24.91" fill="#72a5f9"/><path d="M 124.55 24.91 A 24.91 24.91 0 0 0 149.46 49.82 L 149.46 24.91" fill="#fcf5df"/><rect x="149.45454545454547" y="0" width="49.81818181818182" height="49.81818181818182" fill="#ffffff"/><rect x="149.45" y="0" width="24.91" height="24.91" fill="#fdf9ec"/><polygon points="174.35999999999999,0 174.35999999999999,24.91 149.45,24.91" fill="#dce8fd"/><rect x="174.36" y="0" width="24.91" height="24.91" fill="#f0c84d"/><polygon points="174.36,0 199.27,0 174.36,24.91" fill="#a7c7fb"/><rect x="149.45" y="24.91" width="24.91" height="24.91" fill="#efc748"/><polygon points="149.45,24.91 174.35999999999999,24.91 174.35999999999999,49.82" fill="#f4d77e"/><rect x="174.36" y="24.91" width="24.91" height="24.91" fill="#8ab4fa"/><polygon points="174.36,24.91 199.27,49.82 174.36,49.82" fill="#fbf1d1"/><rect x="199.27272727272728" y="0" width="49.81818181818182" height="49.81818181818182" fill="#ffffff"/><rect x="199.27" y="0" width="24.91" height="24.91" fill="#8cb6fa"/><path d="M 199.27 0 A 24.91 24.91 0 0 1 224.18 24.91 L 199.27 24.91" fill="#f3d26e"/><rect x="224.18" y="0" width="24.91" height="24.91" fill="#edbf2f"/><path d="M 224.18 24.91 A 24.91 24.91 0 0 1  249.09 0 L 249.09 24.91" fill="#86b2f9"/><rect x="199.27" y="24.91" width="24.91" height="24.91" fill="#ebb50f"/><path d="M 199.27 49.82 A 24.91 24.91 0 0 0 224.18 24.91 L 199.27 24.91" fill="#e3edfe"/><rect x="224.18" y="24.91" width="24.91" height="24.91" fill="#eec238"/><path d="M 224.18 24.91 A 24.91 24.91 0 0 0 249.09 49.82 L 249.09 24.91" fill="#edf4fe"/><rect x="249.09" y="0" width="49.82" height="49.82" fill="#bcd4fc"/><polygon points="249.09,0 298.91,0 249.09,49.82" fill="#f9e8b3"/><rect x="298.91" y="0" width="49.82" height="49.82" fill="#f2d168"/><polygon points="348.73,0 348.73,49.82 298.91,49.82" fill="#f2d068"/><rect x="348.73" y="0" width="49.82" height="49.82" fill="#ecba20"/><rect x="348.73" y="0" width="49.82" height="49.82" fill="#90b8fa"/><rect x="398.55" y="0" width="49.82" height="49.82" fill="#edbd2a"/><polygon points="448.37,0 448.37,49.82 398.55,49.82" fill="#faecc1"/><rect x="448.36" y="0" width="49.82" height="49.82" fill="#eec33b"/><rect x="448.36" y="0" width="49.82" height="49.82" fill="#edbd27"/><rect x="498.1818181818182" y="0" width="49.81818181818182" height="49.81818181818182" fill="#ffffff"/><rect x="498.18" y="0" width="24.91" height="24.91" fill="#b5d0fc"/><polygon points="523.09,0 523.09,24.91 498.18,24.91" fill="#cddffd"/><rect x="523.09" y="0" width="24.91" height="24.91" fill="#5e98f8"/><polygon points="523.09,0 548,24.91 523.09,24.91" fill="#fcf3d7"/><rect x="498.18" y="24.91" width="24.91" height="24.91" fill="#faebbf"/><polygon points="498.18,24.91 523.09,24.91 523.09,49.82" fill="#c6dafc"/><rect x="523.09" y="24.91" width="24.91" height="24.91" fill="#6099f8"/><polygon points="523.09,24.91 548,24.91 523.09,49.82" fill="#fefaee"/><rect x="0" y="49.81818181818182" width="49.81818181818182" height="49.81818181818182" fill="#ffffff"/><rect x="0" y="49.82" width="24.91" height="24.91" fill="#f1cc58"/><circle cx="12.455" cy="62.275" r="12.455" fill="#f2d16a"/><rect x="24.91" y="49.82" width="24.91" height="24.91" fill="#f3f7fe"/><rect x="24.91" y="49.82" width="24.91" height="24.91" fill="#f4d77c"/><rect x="0" y="74.73" width="24.91" height="24.91" fill="#b3cffc"/><circle cx="12.455" cy="87.185" r="12.455" fill="#bcd4fc"/><rect x="24.91" y="74.73" width="24.91" height="24.91" fill="#7dacf9"/><rect x="24.91" y="74.73" width="24.91" height="24.91" fill="#e5eefe"/><rect x="49.81818181818182" y="49.81818181818182" width="49.81818181818182" height="49.81818181818182" fill="#ffffff"/><rect x="49.82" y="49.82" width="24.91" height="24.91" fill="#8fb7fa"/><path d="M 49.82 49.82 A 24.91 24.91 0 0 1 74.73 74.73 L 49.82 74.73" fill="#f7e19e"/><rect x="74.73" y="49.82" width="24.91" height="24.91" fill="#f2d168"/><path d="M 74.73 74.73 A 24.91 24.91 0 0 1  99.64 49.82 L 99.64 74.73" fill="#ecb91b"/><rect x="49.82" y="74.73" width="24.91" height="24.91" fill="#bdd5fc"/><path d="M 49.82 99.64 A 24.91 24.91 0 0 0 74.73 74.73 L 49.82 74.73" fill="#f2cf64"/><rect x="74.73" y="74.73" width="24.91" height="24.91" fill="#69a0f8"/><path d="M 74.73 74.73 A 24.91 24.91 0 0 0 99.64 99.64 L 99.64 74.73" fill="#fcf5e0"/><rect x="99.63636363636364" y="49.81818181818182" width="49.81818181818182" height="49.81818181818182" fill="#ffffff"/><rect x="99.64" y="49.82" width="24.91" height="24.91" fill="#fcf3d9"/><polygon points="124.55,49.82 124.55,74.73 99.64,74.73" fill="#5995f7"/><rect x="124.55" y="49.82" width="24.91" height="24.91" fill="#fffffe"/><polygon points="124.55,49.82 149.46,74.73 124.55,74.73" fill="#fcf4dd"/><rect x="99.64" y="74.73" width="24.91" height="24.91" fill="#f1cb56"/><polygon points="99.64,74.73 124.55,74.73 99.64,99.64" fill="#4387f6"/><rect x="124.55" y="74.73" width="24.91" height="24.91" fill="#e8f1fe"/><polygon points="124.55,74.73 149.46,74.73 149.46,99.64" fill="#f1cd5b"/><rect x="149.45" y="49.82" width="49.82" height="49.82" fill="#b5d0fc"/><rect x="149.45" y="49.82" width="49.82" height="49.82" fill="#faecc1"/><rect x="199.27272727272728" y="49.81818181818182" width="49.81818181818182" height="49.81818181818182" fill="#ffffff"/><rect x="199.27" y="49.82" width="24.91" height="24.91" fill="#edbf2e"/><polygon points="224.18,49.82 224.18,74.73 199.27,74.73" fill="#f5d984"/><rect x="224.18" y="49.82" width="24.91" height="24.91" fill="#fdf7e4"/><polygon points="224.18,49.82 249.09,74.73 224.18,74.73" fill="#efc440"/><rect x="199.27" y="74.73" width="24.91" height="24.91" fill="#88b3fa"/><polygon points="199.27,74.73 224.18,74.73 224.18,99.64" fill="#f7e3a4"/><rect x="224.18" y="74.73" width="24.91" height="24.91" fill="#fffdfa"/><polygon points="224.18,74.73 249.09,74.73 224.18,99.64" fill="#7cabf9"/><rect x="249.09" y="49.82" width="49.82" height="49.82" fill="#b2cefb"/><path d="M 249.09 99.64 A 49.82 49.82 0 0 1  298.91 49.82 L 249.09 99.64 A 49.82 49.82 0 0 0 298.91 49.82" fill="#f1cc5b"/><rect x="298.90909090909093" y="49.81818181818182" width="49.81818181818182" height="49.81818181818182" fill="#ffffff"/><rect x="298.91" y="49.82" width="24.91" height="24.91" fill="#73a6f9"/><path d="M 298.91 74.73 A 24.91 24.91 0 0 0 323.82000000000005 49.82 L 298.91 49.82" fill="#f9e9b8"/><rect x="323.82" y="49.82" width="24.91" height="24.91" fill="#82aff9"/><path d="M 323.82 49.82 A 24.91 24.91 0 0 0 348.73 74.73 L 348.73 49.82" fill="#faecc2"/><rect x="298.91" y="74.73" width="24.91" height="24.91" fill="#94bbfa"/><path d="M 298.91 74.73 A 24.91 24.91 0 0 1 323.82000000000005 99.64 L 298.91 99.64" fill="#f5da86"/><rect x="323.82" y="74.73" width="24.91" height="24.91" fill="#edbc26"/><path d="M 323.82 99.64 A 24.91 24.91 0 0 1  348.73 74.73 L 348.73 99.64" fill="#edbf2f"/><rect x="348.72727272727275" y="49.81818181818182" width="49.81818181818182" height="49.81818181818182" fill="#ffffff"/><rect x="348.73" y="49.82" width="24.91" height="24.91" fill="#ebb819"/><path d="M 348.73 49.82 A 24.91 24.91 0 0 1 373.64000000000004 74.73 L 348.73 74.73" fill="#f0c74a"/><rect x="373.64" y="49.82" width="24.91" height="24.91" fill="#f2ce61"/><path d="M 373.64 74.73 A 24.91 24.91 0 0 1  398.55 49.82 L 398.55 74.73" fill="#c8dcfc"/><rect x="348.73" y="74.73" width="24.91" height="24.91" fill="#76a8f9"/><path d="M 348.73 99.64 A 24.91 24.91 0 0 0 373.64000000000004 74.73 L 348.73 74.73" fill="#f3d575"/><rect x="373.64" y="74.73" width="24.91" height="24.91" fill="#90b8fa"/><path d="M 373.64 74.73 A 24.91 24.91 0 0 0 398.55 99.64 L 398.55 74.73" fill="#aecbfb"/><rect x="398.55" y="49.82" width="49.82" height="49.82" fill="#4a8bf7"/><rect x="398.55" y="49.82" width="49.82" height="49.82" fill="#3e84f6"/><rect x="448.3636363636364" y="49.81818181818182" width="49.81818181818182" height="49.81818181818182" fill="#ffffff"/><rect x="448.36" y="49.82" width="24.91" height="24.91" fill="#f9e9b6"/><path d="M 448.36 74.73 A 24.91 24.91 0 0 0 473.27000000000004 49.82 L 448.36 49.82" fill="#fefdf8"/><rect x="473.27" y="49.82" width="24.91" height="24.91" fill="#fbf1d0"/><path d="M 473.27 49.82 A 24.91 24.91 0 0 0 498.18 74.73 L 498.18 49.82" fill="#619af8"/><rect x="448.36" y="74.73" width="24.91" height="24.91" fill="#f5dc8e"/><path d="M 448.36 74.73 A 24.91 24.91 0 0 1 473.27000000000004 99.64 L 448.36 99.64" fill="#c1d7fc"/><rect x="473.27" y="74.73" width="24.91" height="24.91" fill="#eec33c"/><path d="M 473.27 99.64 A 24.91 24.91 0 0 1  498.18 74.73 L 498.18 99.64" fill="#7eadf9"/><rect x="498.1818181818182" y="49.81818181818182" width="49.81818181818182" height="49.81818181818182" fill="#ffffff"/><rect x="498.18" y="49.82" width="24.91" height="24.91" fill="#a4c5fb"/><path d="M 498.18 74.73 A 24.91 24.91 0 0 1 523.09 49.82 L 523.09 56.0475 A 18.6825 18.6825 0 0 0 504.4075 74.73" fill="#fefcf6"/><rect x="523.09" y="49.82" width="24.91" height="24.91" fill="#4c8df7"/><path d="M 523.09 49.82 A 24.91 24.91 0 0 1 548 74.73 L 541.7725 74.73 A 18.6825 18.6825 0 0 0 523.09 56.0475" fill="#92bafa"/><rect x="498.18" y="74.73" width="24.91" height="24.91" fill="#d9e7fd"/><path d="M 498.18 74.73 A 24.91 24.91 0 0 0 523.09 99.64 L 523.09 93.41250000000001 A 18.6825 18.6825 0 0 1 504.4075 74.73" fill="#3c82f6"/><rect x="523.09" y="74.73" width="24.91" height="24.91" fill="#5895f7"/><path d="M 523.09 99.64 A 24.91 24.91 0 0 0 548 74.73 L 541.7725 74.73 A 18.6825 18.6825 0 0 1 523.09 93.41250000000001" fill="#4488f6"/><rect x="0" y="99.64" width="49.82" height="49.82" fill="#fcf3d8"/><rect x="0" y="99.64" width="49.82" height="49.82" fill="#efc441"/><rect x="49.81818181818182" y="99.63636363636364" width="49.81818181818182" height="49.81818181818182" fill="#ffffff"/><rect x="49.82" y="99.64" width="24.91" height="24.91" fill="#fefbf1"/><polygon points="74.73,99.64 74.73,124.55 49.82,124.55" fill="#f7e19e"/><rect x="74.73" y="99.64" width="24.91" height="24.91" fill="#f3d370"/><polygon points="74.73,99.64 99.64,124.55 74.73,124.55" fill="#5693f7"/><rect x="49.82" y="124.55" width="24.91" height="24.91" fill="#fbf0ce"/><polygon points="49.82,124.55 74.73,124.55 49.82,149.46" fill="#488bf7"/><rect x="74.73" y="124.55" width="24.91" height="24.91" fill="#efc645"/><polygon points="74.73,124.55 99.64,124.55 99.64,149.46" fill="#eec33c"/><rect x="99.63636363636364" y="99.63636363636364" width="49.81818181818182" height="49.81818181818182" fill="#ffffff"/><rect x="99.64" y="99.64" width="24.91" height="24.91" fill="#f7e2a1"/><path d="M 99.64 99.64 A 24.91 24.91 0 0 0 124.55 124.55 L 124.55 99.64" fill="#ebb819"/><rect x="124.55" y="99.64" width="24.91" height="24.91" fill="#f3d474"/><path d="M 124.55 124.55 A 24.91 24.91 0 0 0 149.46 99.64 L 124.55 99.64" fill="#f0ca54"/><rect x="99.64" y="124.55" width="24.91" height="24.91" fill="#deeafd"/><path d="M 99.64 149.46 A 24.91 24.91 0 0 1  124.55 124.55 L 124.55 149.46" fill="#f6e09a"/><rect x="124.55" y="124.55" width="24.91" height="24.91" fill="#c0d7fc"/><path d="M 124.55 124.55 A 24.91 24.91 0 0 1 149.46 149.46 L 124.55 149.46" fill="#89b4fa"/><rect x="149.45454545454547" y="99.63636363636364" width="49.81818181818182" height="49.81818181818182" fill="#ffffff"/><rect x="149.45" y="99.64" width="24.91" height="24.91" fill="#f0c84d"/><path d="M 149.45 124.55 A 24.91 24.91 0 0 0 174.35999999999999 99.64 L 149.45 99.64" fill="#5391f7"/><rect x="174.36" y="99.64" width="24.91" height="24.91" fill="#669ef8"/><path d="M 174.36 99.64 A 24.91 24.91 0 0 0 199.27 124.55 L 199.27 99.64" fill="#97bdfa"/><rect x="149.45" y="124.55" width="24.91" height="24.91" fill="#f4d983"/><path d="M 149.45 124.55 A 24.91 24.91 0 0 1 174.35999999999999 149.46 L 149.45 149.46" fill="#deeafd"/><rect x="174.36" y="124.55" width="24.91" height="24.91" fill="#8ab4fa"/><path d="M 174.36 149.46 A 24.91 24.91 0 0 1  199.27 124.55 L 199.27 149.46" fill="#70a4f8"/><rect x="199.27" y="99.64" width="49.82" height="49.82" fill="#fcfdff"/><polygon points="249.09,99.64 249.09,149.46 199.27,149.46" fill="#eec033"/><rect x="249.09" y="99.64" width="49.82" height="49.82" fill="#fcf4db"/><polygon points="249.09,99.64 298.91,99.64 298.91,149.46" fill="#fdf6e2"/><rect x="298.91" y="99.64" width="49.82" height="49.82" fill="#faecc3"/><path d="M 298.91 149.46 A 49.82 49.82 0 0 1  348.73 99.64 L 298.91 149.46 A 49.82 49.82 0 0 0 348.73 99.64" fill="#b0cdfb"/><rect x="348.73" y="99.64" width="49.82" height="49.82" fill="#b4cffc"/><path d="M 348.73 149.46 A 49.82 49.82 0 0 1  398.55 99.64 L 348.73 149.46 A 49.82 49.82 0 0 0 398.55 99.64" fill="#faefc9"/><rect x="398.55" y="99.64" width="49.82" height="49.82" fill="#f6df98"/><polygon points="398.55,99.64 448.37,99.64 448.37,149.46" fill="#fcf4da"/><rect x="448.3636363636364" y="99.63636363636364" width="49.81818181818182" height="49.81818181818182" fill="#ffffff"/><rect x="448.36" y="99.64" width="24.91" height="24.91" fill="#78a9f9"/><polygon points="473.27000000000004,99.64 473.27000000000004,124.55 448.36,124.55" fill="#669df8"/><rect x="473.27" y="99.64" width="24.91" height="24.91" fill="#abc9fb"/><polygon points="473.27,99.64 498.18,99.64 473.27,124.55" fill="#eab40c"/><rect x="448.36" y="124.55" width="24.91" height="24.91" fill="#94bbfa"/><polygon points="448.36,124.55 473.27000000000004,124.55 473.27000000000004,149.46" fill="#a4c5fb"/><rect x="473.27" y="124.55" width="24.91" height="24.91" fill="#f5db89"/><polygon points="473.27,124.55 498.18,149.46 473.27,149.46" fill="#dfeafe"/><rect x="498.18" y="99.64" width="49.82" height="49.82" fill="#eec136"/><rect x="498.18" y="99.64" width="49.82" height="49.82" fill="#93bafa"/><rect x="0" y="149.45" width="49.82" height="49.82" fill="#b7d1fc"/><rect x="0" y="149.45" width="49.82" height="49.82" fill="#4085f6"/><rect x="49.82" y="149.45" width="49.82" height="49.82" fill="#f1cd5d"/><path d="M 49.82 149.45 A 49.82 49.82 0 0 0 99.64 199.26999999999998 L 99.64 149.45" fill="#f1cd5d"/><rect x="99.64" y="149.45" width="49.82" height="49.82" fill="#eec33d"/><polygon points="99.64,149.45 149.46,199.26999999999998 99.64,199.26999999999998" fill="#f5da86"/><rect x="149.45454545454547" y="149.45454545454547" width="49.81818181818182" height="49.81818181818182" fill="#ffffff"/><rect x="149.45" y="149.45" width="24.91" height="24.91" fill="#f8e5aa"/><path d="M 149.45 149.45 A 24.91 24.91 0 0 1 174.35999999999999 174.35999999999999 L 149.45 174.35999999999999" fill="#5e98f8"/><rect x="174.36" y="149.45" width="24.91" height="24.91" fill="#fefaf0"/><path d="M 174.36 174.35999999999999 A 24.91 24.91 0 0 1  199.27 149.45 L 199.27 174.35999999999999" fill="#dfebfe"/><rect x="149.45" y="174.36" width="24.91" height="24.91" fill="#c1d7fc"/><path d="M 149.45 199.27 A 24.91 24.91 0 0 0 174.35999999999999 174.36 L 149.45 174.36" fill="#f7faff"/><rect x="174.36" y="174.36" width="24.91" height="24.91" fill="#3d83f6"/><path d="M 174.36 174.36 A 24.91 24.91 0 0 0 199.27 199.27 L 199.27 174.36" fill="#edbc27"/><rect x="199.27" y="149.45" width="49.82" height="49.82" fill="#77a9f9"/><path d="M 199.27 149.45 A 49.82 49.82 0 0 1 249.09 199.26999999999998 L 199.27 199.26999999999998" fill="#3f85f6"/><rect x="249.0909090909091" y="149.45454545454547" width="49.81818181818182" height="49.81818181818182" fill="#ffffff"/><rect x="249.09" y="149.45" width="24.91" height="24.91" fill="#7aaaf9"/><path d="M 249.09 174.35999999999999 A 24.91 24.91 0 0 1 274 149.45 L 274 155.67749999999998 A 18.6825 18.6825 0 0 0 255.3175 174.35999999999999" fill="#f9eaba"/><rect x="274" y="149.45" width="24.91" height="24.91" fill="#fcf2d6"/><path d="M 274 149.45 A 24.91 24.91 0 0 1 298.91 174.35999999999999 L 292.6825 174.35999999999999 A 18.6825 18.6825 0 0 0 274 155.67749999999998" fill="#f5dc8e"/><rect x="249.09" y="174.36" width="24.91" height="24.91" fill="#e0ebfe"/><path d="M 249.09 174.36 A 24.91 24.91 0 0 0 274 199.27 L 274 193.04250000000002 A 18.6825 18.6825 0 0 1 255.3175 174.36" fill="#ecbb21"/><rect x="274" y="174.36" width="24.91" height="24.91" fill="#78a9f9"/><path d="M 274 199.27 A 24.91 24.91 0 0 0 298.91 174.36 L 292.6825 174.36 A 18.6825 18.6825 0 0 1 274 193.04250000000002" fill="#edc031"/><rect x="298.90909090909093" y="149.45454545454547" width="49.81818181818182" height="49.81818181818182" fill="#ffffff"/><rect x="298.91" y="149.45" width="24.91" height="24.91" fill="#83b0f9"/><path d="M 298.91 174.35999999999999 A 24.91 24.91 0 0 1  323.82000000000005 149.45 L 323.82000000000005 174.35999999999999" fill="#c2d8fc"/><rect x="323.82" y="149.45" width="24.91" height="24.91" fill="#fbf2d5"/><path d="M 323.82 149.45 A 24.91 24.91 0 0 1 348.73 174.35999999999999 L 323.82 174.35999999999999" fill="#fffefb"/><rect x="298.91" y="174.36" width="24.91" height="24.91" fill="#f8e5aa"/><path d="M 298.91 174.36 A 24.91 24.91 0 0 0 323.82000000000005 199.27 L 323.82000000000005 174.36" fill="#8cb6fa"/><rect x="323.82" y="174.36" width="24.91" height="24.91" fill="#e9f1fe"/><path d="M 323.82 199.27 A 24.91 24.91 0 0 0 348.73 174.36 L 323.82 174.36" fill="#f0c84c"/><rect x="348.72727272727275" y="149.45454545454547" width="49.81818181818182" height="49.81818181818182" fill="#ffffff"/><rect x="348.73" y="149.45" width="24.91" height="24.91" fill="#e9f1fe"/><path d="M 348.73 174.35999999999999 A 24.91 24.91 0 0 1 373.64000000000004 149.45 L 373.64000000000004 155.67749999999998 A 18.6825 18.6825 0 0 0 354.95750000000004 174.35999999999999" fill="#f5dc8c"/><rect x="373.64" y="149.45" width="24.91" height="24.91" fill="#f0ca54"/><path d="M 373.64 149.45 A 24.91 24.91 0 0 1 398.55 174.35999999999999 L 392.3225 174.35999999999999 A 18.6825 18.6825 0 0 0 373.64 155.67749999999998" fill="#f5dc8c"/><rect x="348.73" y="174.36" width="24.91" height="24.91" fill="#b7d1fc"/><path d="M 348.73 174.36 A 24.91 24.91 0 0 0 373.64000000000004 199.27 L 373.64000000000004 193.04250000000002 A 18.6825 18.6825 0 0 1 354.95750000000004 174.36" fill="#faebbf"/><rect x="373.64" y="174.36" width="24.91" height="24.91" fill="#ebb715"/><path d="M 373.64 199.27 A 24.91 24.91 0 0 0 398.55 174.36 L 392.3225 174.36 A 18.6825 18.6825 0 0 1 373.64 193.04250000000002" fill="#aac9fb"/><rect x="398.55" y="149.45" width="49.82" height="49.82" fill="#f9e8b6"/><polygon points="448.37,149.45 448.37,199.26999999999998 398.55,199.26999999999998" fill="#afccfb"/><rect x="448.36" y="149.45" width="49.82" height="49.82" fill="#f8e6ac"/><polygon points="448.36,149.45 498.18,149.45 448.36,199.26999999999998" fill="#f3d26e"/><rect x="498.18" y="149.45" width="49.82" height="49.82" fill="#fcf5dd"/><rect x="498.18" y="149.45" width="49.82" height="49.82" fill="#f0c951"/><rect x="0" y="199.27272727272728" width="49.81818181818182" height="49.81818181818182" fill="#ffffff"/><rect x="0" y="199.27" width="24.91" height="24.91" fill="#f8e6ac"/><path d="M 0 199.27 A 24.91 24.91 0 0 0 24.91 224.18 L 24.91 199.27" fill="#f9e9b7"/><rect x="24.91" y="199.27" width="24.91" height="24.91" fill="#fefaee"/><path d="M 24.91 224.18 A 24.91 24.91 0 0 0 49.82 199.27 L 24.91 199.27" fill="#eec33d"/><rect x="0" y="224.18" width="24.91" height="24.91" fill="#f3d371"/><path d="M 0 249.09 A 24.91 24.91 0 0 1  24.91 224.18 L 24.91 249.09" fill="#fbf0cd"/><rect x="24.91" y="224.18" width="24.91" height="24.91" fill="#edf4fe"/><path d="M 24.91 224.18 A 24.91 24.91 0 0 1 49.82 249.09 L 24.91 249.09" fill="#b5cffc"/><rect x="49.81818181818182" y="199.27272727272728" width="49.81818181818182" height="49.81818181818182" fill="#ffffff"/><rect x="49.82" y="199.27" width="24.91" height="24.91" fill="#eec137"/><path d="M 49.82 224.18 A 24.91 24.91 0 0 1 74.73 199.27 L 74.73 205.4975 A 18.6825 18.6825 0 0 0 56.0475 224.18" fill="#b1cdfb"/><rect x="74.73" y="199.27" width="24.91" height="24.91" fill="#fdfeff"/><path d="M 74.73 199.27 A 24.91 24.91 0 0 1 99.64 224.18 L 93.41250000000001 224.18 A 18.6825 18.6825 0 0 0 74.73 205.4975" fill="#f0c74b"/><rect x="49.82" y="224.18" width="24.91" height="24.91" fill="#eec136"/><path d="M 49.82 224.18 A 24.91 24.91 0 0 0 74.73 249.09 L 74.73 242.8625 A 18.6825 18.6825 0 0 1 56.0475 224.18" fill="#d7e6fd"/><rect x="74.73" y="224.18" width="24.91" height="24.91" fill="#fefbf3"/><path d="M 74.73 249.09 A 24.91 24.91 0 0 0 99.64 224.18 L 93.41250000000001 224.18 A 18.6825 18.6825 0 0 1 74.73 242.8625" fill="#f2d16a"/><rect x="99.63636363636364" y="199.27272727272728" width="49.81818181818182" height="49.81818181818182" fill="#ffffff"/><rect x="99.64" y="199.27" width="24.91" height="24.91" fill="#a8c7fb"/><path d="M 99.64 224.18 A 24.91 24.91 0 0 0 124.55 199.27 L 99.64 199.27" fill="#faeec7"/><rect x="124.55" y="199.27" width="24.91" height="24.91" fill="#5693f7"/><path d="M 124.55 199.27 A 24.91 24.91 0 0 0 149.46 224.18 L 149.46 199.27" fill="#c7dbfc"/><rect x="99.64" y="224.18" width="24.91" height="24.91" fill="#95bcfa"/><path d="M 99.64 224.18 A 24.91 24.91 0 0 1 124.55 249.09 L 99.64 249.09" fill="#c6dbfc"/><rect x="124.55" y="224.18" width="24.91" height="24.91" fill="#ebb611"/><path d="M 124.55 249.09 A 24.91 24.91 0 0 1  149.46 224.18 L 149.46 249.09" fill="#5d97f8"/><rect x="149.45454545454547" y="199.27272727272728" width="49.81818181818182" height="49.81818181818182" fill="#ffffff"/><rect x="149.45" y="199.27" width="24.91" height="24.91" fill="#498bf7"/><circle cx="161.905" cy="211.72500000000002" r="12.455" fill="#90b8fa"/><rect x="174.36" y="199.27" width="24.91" height="24.91" fill="#f4d982"/><rect x="174.36" y="199.27" width="24.91" height="24.91" fill="#aac9fb"/><rect x="149.45" y="224.18" width="24.91" height="24.91" fill="#6da2f8"/><circle cx="161.905" cy="236.63500000000002" r="12.455" fill="#ecba1f"/><rect x="174.36" y="224.18" width="24.91" height="24.91" fill="#eec032"/><rect x="174.36" y="224.18" width="24.91" height="24.91" fill="#efc43f"/><rect x="199.27272727272728" y="199.27272727272728" width="49.81818181818182" height="49.81818181818182" fill="#ffffff"/><rect x="199.27" y="199.27" width="24.91" height="24.91" fill="#eec136"/><path d="M 199.27 224.18 A 24.91 24.91 0 0 0 224.18 199.27 L 199.27 199.27" fill="#faedc5"/><rect x="224.18" y="199.27" width="24.91" height="24.91" fill="#fefcf7"/><path d="M 224.18 199.27 A 24.91 24.91 0 0 0 249.09 224.18 L 249.09 199.27" fill="#5592f7"/><rect x="199.27" y="224.18" width="24.91" height="24.91" fill="#f7e3a5"/><path d="M 199.27 224.18 A 24.91 24.91 0 0 1 224.18 249.09 L 199.27 249.09" fill="#f3d26e"/><rect x="224.18" y="224.18" width="24.91" height="24.91" fill="#99befa"/><path d="M 224.18 249.09 A 24.91 24.91 0 0 1  249.09 224.18 L 249.09 249.09" fill="#faecc2"/><rect x="249.0909090909091" y="199.27272727272728" width="49.81818181818182" height="49.81818181818182" fill="#ffffff"/><rect x="249.09" y="199.27" width="24.91" height="24.91" fill="#fefaef"/><polygon points="274,199.27 274,224.18 249.09,224.18" fill="#ecba20"/><rect x="274" y="199.27" width="24.91" height="24.91" fill="#ebb50f"/><polygon points="274,199.27 298.91,224.18 274,224.18" fill="#f5da86"/><rect x="249.09" y="224.18" width="24.91" height="24.91" fill="#eaf2fe"/><polygon points="249.09,224.18 274,224.18 274,249.09" fill="#f9eabb"/><rect x="274" y="224.18" width="24.91" height="24.91" fill="#f4d881"/><polygon points="274,224.18 298.91,224.18 274,249.09" fill="#f9e8b6"/><rect x="298.90909090909093" y="199.27272727272728" width="49.81818181818182" height="49.81818181818182" fill="#ffffff"/><rect x="298.91" y="199.27" width="24.91" height="24.91" fill="#9bbffa"/><path d="M 298.91 199.27 A 24.91 24.91 0 0 1 323.82000000000005 224.18 L 298.91 224.18" fill="#c0d7fc"/><rect x="323.82" y="199.27" width="24.91" height="24.91" fill="#629bf8"/><path d="M 323.82 224.18 A 24.91 24.91 0 0 1  348.73 199.27 L 348.73 224.18" fill="#fbf2d5"/><rect x="298.91" y="224.18" width="24.91" height="24.91" fill="#f1cc59"/><path d="M 298.91 249.09 A 24.91 24.91 0 0 0 323.82000000000005 224.18 L 298.91 224.18" fill="#f5db89"/><rect x="323.82" y="224.18" width="24.91" height="24.91" fill="#edbe2d"/><path d="M 323.82 224.18 A 24.91 24.91 0 0 0 348.73 249.09 L 348.73 224.18" fill="#f1cc59"/><rect x="348.72727272727275" y="199.27272727272728" width="49.81818181818182" height="49.81818181818182" fill="#ffffff"/><rect x="348.73" y="199.27" width="24.91" height="24.91" fill="#cbdefd"/><polygon points="373.64000000000004,199.27 373.64000000000004,224.18 348.73,224.18" fill="#3f85f6"/><rect x="373.64" y="199.27" width="24.91" height="24.91" fill="#f6dd91"/><polygon points="373.64,199.27 398.55,224.18 373.64,224.18" fill="#c7dbfc"/><rect x="348.73" y="224.18" width="24.91" height="24.91" fill="#fdf8e9"/><polygon points="348.73,224.18 373.64000000000004,224.18 348.73,249.09" fill="#f6de95"/><rect x="373.64" y="224.18" width="24.91" height="24.91" fill="#fdf7e4"/><polygon points="373.64,224.18 398.55,224.18 398.55,249.09" fill="#f0c94e"/><rect x="398.54545454545456" y="199.27272727272728" width="49.81818181818182" height="49.81818181818182" fill="#ffffff"/><rect x="398.55" y="199.27" width="24.91" height="24.91" fill="#eec239"/><polygon points="423.46000000000004,199.27 423.46000000000004,224.18 398.55,224.18" fill="#98bdfa"/><rect x="423.45" y="199.27" width="24.91" height="24.91" fill="#a8c7fb"/><polygon points="423.45,199.27 448.36,224.18 423.45,224.18" fill="#f2cf62"/><rect x="398.55" y="224.18" width="24.91" height="24.91" fill="#7babf9"/><polygon points="398.55,224.18 423.46000000000004,224.18 423.46000000000004,249.09" fill="#5391f7"/><rect x="423.45" y="224.18" width="24.91" height="24.91" fill="#ebb715"/><polygon points="423.45,224.18 448.36,224.18 423.45,249.09" fill="#a1c3fb"/><rect x="448.36" y="199.27" width="49.82" height="49.82" fill="#f0ca51"/><path d="M 448.36 199.27 A 49.82 49.82 0 0 1  498.18 249.09 L 448.36 199.27 A 49.82 49.82 0 0 0 498.18 249.09" fill="#9cc0fa"/><rect x="498.18" y="199.27" width="49.82" height="49.82" fill="#b1cdfb"/><rect x="498.18" y="199.27" width="49.82" height="49.82" fill="#faedc5"/><rect x="0" y="249.0909090909091" width="49.81818181818182" height="49.81818181818182" fill="#ffffff"/><rect x="0" y="249.09" width="24.91" height="24.91" fill="#f6e09a"/><path d="M 0 274 A 24.91 24.91 0 0 0 24.91 249.09 L 0 249.09" fill="#f8e6ad"/><rect x="24.91" y="249.09" width="24.91" height="24.91" fill="#b3cefc"/><path d="M 24.91 249.09 A 24.91 24.91 0 0 0 49.82 274 L 49.82 249.09" fill="#4c8df7"/><rect x="0" y="274" width="24.91" height="24.91" fill="#fbf0ce"/><path d="M 0 274 A 24.91 24.91 0 0 1 24.91 298.91 L 0 298.91" fill="#5492f7"/><rect x="24.91" y="274" width="24.91" height="24.91" fill="#8fb8fa"/><path d="M 24.91 298.91 A 24.91 24.91 0 0 1  49.82 274 L 49.82 298.91" fill="#f4d881"/><rect x="49.82" y="249.09" width="49.82" height="49.82" fill="#f2ce61"/><path d="M 49.82 249.09 A 49.82 49.82 0 0 1 99.64 298.91 L 49.82 298.91" fill="#89b4fa"/><rect x="99.64" y="249.09" width="49.82" height="49.82" fill="#ebb612"/><path d="M 99.64 249.09 A 49.82 49.82 0 0 1 149.46 298.91 L 99.64 298.91" fill="#ecb81a"/><rect x="149.45" y="249.09" width="49.82" height="49.82" fill="#f9e8b4"/><polygon points="149.45,249.09 199.26999999999998,298.91 149.45,298.91" fill="#4286f6"/><rect x="199.27" y="249.09" width="49.82" height="49.82" fill="#aac9fb"/><polygon points="199.27,249.09 249.09,298.91 199.27,298.91" fill="#3c83f6"/><rect x="249.0909090909091" y="249.0909090909091" width="49.81818181818182" height="49.81818181818182" fill="#ffffff"/><rect x="249.09" y="249.09" width="24.91" height="24.91" fill="#5995f7"/><path d="M 249.09 249.09 A 24.91 24.91 0 0 0 274 274 L 274 249.09" fill="#83b0f9"/><rect x="274" y="249.09" width="24.91" height="24.91" fill="#edbc26"/><path d="M 274 274 A 24.91 24.91 0 0 0 298.91 249.09 L 274 249.09" fill="#fcf5de"/><rect x="249.09" y="274" width="24.91" height="24.91" fill="#d7e6fd"/><path d="M 249.09 298.91 A 24.91 24.91 0 0 1  274 274 L 274 298.91" fill="#609af8"/><rect x="274" y="274" width="24.91" height="24.91" fill="#eec239"/><path d="M 274 274 A 24.91 24.91 0 0 1 298.91 298.91 L 274 298.91" fill="#f0c950"/><rect x="298.91" y="249.09" width="49.82" height="49.82" fill="#efc543"/><path d="M 298.91 298.91 A 49.82 49.82 0 0 1  348.73 249.09 L 348.73 298.91" fill="#92b9fa"/><rect x="348.73" y="249.09" width="49.82" height="49.82" fill="#fefdf8"/><rect x="348.73" y="249.09" width="49.82" height="49.82" fill="#b4cffc"/><rect x="398.55" y="249.09" width="49.82" height="49.82" fill="#ebb715"/><path d="M 398.55 249.09 A 49.82 49.82 0 0 1 448.37 298.91 L 398.55 298.91" fill="#ecba20"/><rect x="448.3636363636364" y="249.0909090909091" width="49.81818181818182" height="49.81818181818182" fill="#ffffff"/><rect x="448.36" y="249.09" width="24.91" height="24.91" fill="#95bbfa"/><polygon points="473.27000000000004,249.09 473.27000000000004,274 448.36,274" fill="#f1cd5c"/><rect x="473.27" y="249.09" width="24.91" height="24.91" fill="#a9c8fb"/><polygon points="473.27,249.09 498.18,274 473.27,274" fill="#4d8df7"/><rect x="448.36" y="274" width="24.91" height="24.91" fill="#5b97f7"/><polygon points="448.36,274 473.27000000000004,274 448.36,298.91" fill="#73a6f9"/><rect x="473.27" y="274" width="24.91" height="24.91" fill="#5c97f7"/><polygon points="473.27,274 498.18,274 498.18,298.91" fill="#f5dd8f"/><rect x="498.18" y="249.09" width="49.82" height="49.82" fill="#f8e6af"/><polygon points="498.18,249.09 548,298.91 498.18,298.91" fill="#ebb713"/></g></svg>