<?xml version="1.0" encoding="UTF-8" standalone="no"?>
<!-- Created with Inkscape (http://www.inkscape.org/) -->

<svg
   version="1.1"
   id="svg2"
   xml:space="preserve"
   width="3333.3333"
   height="3333.3333"
   viewBox="0 0 3333.3333 3333.3333"
   sodipodi:docname="bwink_bld_01_single_02.eps"
   xmlns:inkscape="http://www.inkscape.org/namespaces/inkscape"
   xmlns:sodipodi="http://sodipodi.sourceforge.net/DTD/sodipodi-0.dtd"
   xmlns="http://www.w3.org/2000/svg"
   xmlns:svg="http://www.w3.org/2000/svg"><defs
     id="defs6" /><sodipodi:namedview
     id="namedview4"
     pagecolor="#ffffff"
     bordercolor="#666666"
     borderopacity="1.0"
     inkscape:pageshadow="2"
     inkscape:pageopacity="0.0"
     inkscape:pagecheckerboard="0" /><g
     id="g8"
     inkscape:groupmode="layer"
     inkscape:label="ink_ext_XXXXXX"
     transform="matrix(1.3333333,0,0,-1.3333333,0,3333.3333)"><g
       id="g10"
       transform="scale(0.1)"><path
         d="M 25000,0 H 0 V 25000 H 25000 V 0"
         style="fill:#ffffff;fill-opacity:1;fill-rule:nonzero;stroke:none"
         id="path12" /><path
         d="m 19927.4,7415.8 h -1897.3 v 10467.7 h 1897.3 V 7415.8"
         style="fill:#ffffff;fill-opacity:1;fill-rule:nonzero;stroke:none"
         id="path14" /><path
         d="m 18052.2,7437.9 h 1853 v 10423.5 h -1853 z m 1875.2,-44.3 h -1897.3 c -12.3,0 -22.2,10 -22.2,22.2 v 10467.7 c 0,12.2 9.9,22.1 22.2,22.1 h 1897.3 c 12.2,0 22.1,-9.9 22.1,-22.1 V 7415.8 c 0,-12.2 -9.9,-22.2 -22.1,-22.2"
         style="fill:#000000;fill-opacity:1;fill-rule:nonzero;stroke:none"
         id="path16" /><path
         d="m 19283.2,7697.2 61.9,9869.7 -5987.2,2672.4 -5866.99,-2767 260.83,-9929.7 c 3.47,-135 120.12,-242.5 262.01,-241.3 l 10952.05,91 c 175.7,1.5 317.4,137.6 317.4,304.9"
         style="fill:#ffffff;fill-opacity:1;fill-rule:nonzero;stroke:none"
         id="path18" /><path
         d="m 7513.42,17458.5 260.45,-9915.3 c 3.16,-122.2 110.43,-221.1 239.68,-219.7 l 10952.05,91 c 162.9,1.3 295.5,128.2 295.5,282.7 0,0.1 0,0.1 0,0.2 l 61.8,9855.2 -5964.7,2662.4 z M 8011.47,7279.2 c -151.92,0 -278.12,117.4 -281.86,262.9 l -260.83,9929.6 c -0.24,8.8 4.75,16.9 12.68,20.7 l 5867.04,2767 c 5.8,2.7 12.6,2.8 18.4,0.2 l 5987.2,-2672.5 c 8,-3.6 13.2,-11.5 13.1,-20.3 l -61.8,-9869.7 c -0.1,-178.7 -152.4,-325.4 -339.5,-326.9 l -10951.97,-91 c -0.81,0 -1.65,0 -2.46,0"
         style="fill:#000000;fill-opacity:1;fill-rule:nonzero;stroke:none"
         id="path20" /><path
         d="M 9656.57,12070.8 H 8566.95 c -38.97,0 -70.56,31.6 -70.56,70.6 v 1645.9 c 0,39 31.59,70.6 70.56,70.6 h 1089.62 c 38.97,0 70.56,-31.6 70.56,-70.6 v -1645.9 c 0,-39 -31.59,-70.6 -70.56,-70.6"
         style="fill:#ffffff;fill-opacity:1;fill-rule:nonzero;stroke:none"
         id="path22" /><path
         d="m 8566.95,13835.7 c -26.7,0 -48.42,-21.7 -48.42,-48.4 v -1645.9 c 0,-26.7 21.72,-48.5 48.42,-48.5 h 1089.61 c 26.71,0 48.43,21.8 48.43,48.5 v 1645.9 c 0,26.7 -21.72,48.4 -48.43,48.4 z m 1089.61,-1787 H 8566.95 c -51.12,0 -92.71,41.5 -92.71,92.7 v 1645.9 c 0,51.1 41.59,92.7 92.71,92.7 h 1089.61 c 51.12,0 92.71,-41.6 92.71,-92.7 v -1645.9 c 0,-51.2 -41.59,-92.7 -92.71,-92.7"
         style="fill:#000000;fill-opacity:1;fill-rule:nonzero;stroke:none"
         id="path24" /><path
         d="m 11093.2,12070.8 h -1075.3 c -42.93,0 -77.71,34.8 -77.71,77.7 v 1631.7 c 0,42.9 34.78,77.7 77.71,77.7 h 1075.3 c 43,0 77.7,-34.8 77.7,-77.7 v -1631.7 c 0,-42.9 -34.7,-77.7 -77.7,-77.7"
         style="fill:#ffffff;fill-opacity:1;fill-rule:nonzero;stroke:none"
         id="path26" /><path
         d="m 10017.9,13835.7 c -30.65,0 -55.57,-24.9 -55.57,-55.5 v -1631.7 c 0,-30.6 24.92,-55.6 55.57,-55.6 h 1075.3 c 30.7,0 55.6,25 55.6,55.6 v 1631.7 c 0,30.6 -24.9,55.5 -55.6,55.5 z m 1075.3,-1787 h -1075.3 c -55.08,0 -99.86,44.7 -99.86,99.8 v 1631.7 c 0,55 44.78,99.8 99.86,99.8 h 1075.3 c 55.1,0 99.9,-44.8 99.9,-99.8 v -1631.7 c 0,-55.1 -44.8,-99.8 -99.9,-99.8"
         style="fill:#000000;fill-opacity:1;fill-rule:nonzero;stroke:none"
         id="path28" /><path
         d="M 9676.75,10085.2 H 8546.83 c -27.84,0 -50.41,22.5 -50.41,50.4 v 1686.2 c 0,27.9 22.57,50.4 50.41,50.4 h 1129.92 c 27.84,0 50.41,-22.5 50.41,-50.4 v -1686.2 c 0,-27.9 -22.57,-50.4 -50.41,-50.4"
         style="fill:#ffffff;fill-opacity:1;fill-rule:nonzero;stroke:none"
         id="path30" /><path
         d="m 8546.83,11850.1 c -15.59,0 -28.27,-12.7 -28.27,-28.3 v -1686.2 c 0,-15.6 12.68,-28.3 28.27,-28.3 h 1129.92 c 15.59,0 28.27,12.7 28.27,28.3 v 1686.2 c 0,15.6 -12.68,28.3 -28.27,28.3 z M 9676.75,10063 H 8546.83 c -40,0 -72.56,32.6 -72.56,72.6 v 1686.2 c 0,40 32.56,72.6 72.56,72.6 h 1129.92 c 40,0 72.56,-32.6 72.56,-72.6 v -1686.2 c 0,-40 -32.56,-72.6 -72.56,-72.6"
         style="fill:#000000;fill-opacity:1;fill-rule:nonzero;stroke:none"
         id="path32" /><path
         d="m 11091.3,10085.2 h -1071.4 c -44.01,0 -79.68,35.6 -79.68,79.7 v 1627.6 c 0,44.1 35.67,79.7 79.68,79.7 h 1071.4 c 44,0 79.7,-35.6 79.7,-79.7 v -1627.6 c 0,-44.1 -35.7,-79.7 -79.7,-79.7"
         style="fill:#ffffff;fill-opacity:1;fill-rule:nonzero;stroke:none"
         id="path34" /><path
         d="m 10019.9,11850.1 c -31.73,0 -57.54,-25.8 -57.54,-57.6 v -1627.6 c 0,-31.8 25.81,-57.6 57.54,-57.6 h 1071.4 c 31.7,0 57.5,25.8 57.5,57.6 v 1627.6 c 0,31.8 -25.8,57.6 -57.5,57.6 z M 11091.3,10063 h -1071.4 c -56.15,0 -101.82,45.7 -101.82,101.9 v 1627.6 c 0,56.2 45.67,101.9 101.82,101.9 h 1071.4 c 56.1,0 101.8,-45.7 101.8,-101.9 v -1627.6 c 0,-56.2 -45.7,-101.9 -101.8,-101.9"
         style="fill:#000000;fill-opacity:1;fill-rule:nonzero;stroke:none"
         id="path36" /><path
         d="m 13450.8,17359.5 h -1089.6 c -39,0 -70.6,31.6 -70.6,70.5 v 1305 c 0,38.9 31.6,70.5 70.6,70.5 h 1089.6 c 38.9,0 70.5,-31.6 70.5,-70.5 v -1305 c 0,-38.9 -31.6,-70.5 -70.5,-70.5"
         style="fill:#ffffff;fill-opacity:1;fill-rule:nonzero;stroke:none"
         id="path38" /><path
         d="m 12361.2,18783.4 c -26.8,0 -48.5,-21.7 -48.5,-48.4 v -1305 c 0,-26.7 21.7,-48.4 48.5,-48.4 h 1089.6 c 26.7,0 48.4,21.7 48.4,48.4 v 1305 c 0,26.7 -21.7,48.4 -48.4,48.4 z m 1089.6,-1446.1 h -1089.6 c -51.2,0 -92.8,41.6 -92.8,92.7 v 1305 c 0,51.1 41.6,92.7 92.8,92.7 h 1089.6 c 51.1,0 92.7,-41.6 92.7,-92.7 v -1305 c 0,-51.1 -41.6,-92.7 -92.7,-92.7"
         style="fill:#000000;fill-opacity:1;fill-rule:nonzero;stroke:none"
         id="path40" /><path
         d="m 14887.4,17359.5 h -1075.3 c -42.9,0 -77.7,34.8 -77.7,77.7 v 1290.7 c 0,42.9 34.8,77.6 77.7,77.6 h 1075.3 c 43,0 77.7,-34.7 77.7,-77.6 v -1290.7 c 0,-42.9 -34.7,-77.7 -77.7,-77.7"
         style="fill:#ffffff;fill-opacity:1;fill-rule:nonzero;stroke:none"
         id="path42" /><path
         d="m 13812.1,18783.4 c -30.7,0 -55.6,-24.9 -55.6,-55.5 v -1290.7 c 0,-30.7 24.9,-55.6 55.6,-55.6 h 1075.4 c 30.6,0 55.5,24.9 55.5,55.6 v 1290.7 c 0,30.6 -24.9,55.5 -55.5,55.5 z m 1075.4,-1446.1 h -1075.4 c -55.1,0 -99.9,44.8 -99.9,99.9 v 1290.7 c 0,55 44.8,99.8 99.9,99.8 h 1075.4 c 55,0 99.8,-44.8 99.8,-99.8 v -1290.7 c 0,-55.1 -44.8,-99.9 -99.8,-99.9"
         style="fill:#000000;fill-opacity:1;fill-rule:nonzero;stroke:none"
         id="path44" /><path
         d="M 13470.9,15752.7 H 12341 c -27.8,0 -50.4,22.6 -50.4,50.4 v 1345.3 c 0,27.8 22.6,50.4 50.4,50.4 h 1129.9 c 27.9,0 50.5,-22.6 50.5,-50.4 v -1345.3 c 0,-27.8 -22.6,-50.4 -50.5,-50.4"
         style="fill:#ffffff;fill-opacity:1;fill-rule:nonzero;stroke:none"
         id="path46" /><path
         d="m 12341,17176.7 c -15.6,0 -28.2,-12.7 -28.2,-28.3 v -1345.3 c 0,-15.5 12.6,-28.2 28.2,-28.2 h 1129.9 c 15.6,0 28.3,12.7 28.3,28.2 v 1345.3 c 0,15.6 -12.7,28.3 -28.3,28.3 z m 1129.9,-1446.1 H 12341 c -40,0 -72.5,32.5 -72.5,72.5 v 1345.3 c 0,40 32.5,72.5 72.5,72.5 h 1129.9 c 40.1,0 72.6,-32.5 72.6,-72.5 v -1345.3 c 0,-40 -32.5,-72.5 -72.6,-72.5"
         style="fill:#000000;fill-opacity:1;fill-rule:nonzero;stroke:none"
         id="path48" /><path
         d="m 14885.5,15752.7 h -1071.4 c -44,0 -79.7,35.7 -79.7,79.7 v 1286.7 c 0,44 35.7,79.7 79.7,79.7 h 1071.4 c 44,0 79.7,-35.7 79.7,-79.7 v -1286.7 c 0,-44 -35.7,-79.7 -79.7,-79.7"
         style="fill:#ffffff;fill-opacity:1;fill-rule:nonzero;stroke:none"
         id="path50" /><path
         d="m 13814.1,17176.7 c -31.7,0 -57.5,-25.9 -57.5,-57.6 v -1286.7 c 0,-31.7 25.8,-57.5 57.5,-57.5 h 1071.4 c 31.7,0 57.5,25.8 57.5,57.5 v 1286.7 c 0,31.7 -25.8,57.6 -57.5,57.6 z m 1071.4,-1446.1 h -1071.4 c -56.2,0 -101.8,45.7 -101.8,101.8 v 1286.7 c 0,56.2 45.6,101.8 101.8,101.8 h 1071.4 c 56.1,0 101.8,-45.6 101.8,-101.8 v -1286.7 c 0,-56.1 -45.7,-101.8 -101.8,-101.8"
         style="fill:#000000;fill-opacity:1;fill-rule:nonzero;stroke:none"
         id="path52" /><path
         d="m 17225,12073.8 h -1089.6 c -39,0 -70.6,31.6 -70.6,70.6 V 13793 c 0,39 31.6,70.6 70.6,70.6 H 17225 c 39,0 70.6,-31.6 70.6,-70.6 v -1648.6 c 0,-39 -31.6,-70.6 -70.6,-70.6"
         style="fill:#ffffff;fill-opacity:1;fill-rule:nonzero;stroke:none"
         id="path54" /><path
         d="m 16135.4,13841.5 c -26.7,0 -48.4,-21.8 -48.4,-48.5 v -1648.6 c 0,-26.7 21.7,-48.4 48.4,-48.4 H 17225 c 26.7,0 48.4,21.7 48.4,48.4 V 13793 c 0,26.7 -21.7,48.5 -48.4,48.5 z M 17225,12051.7 h -1089.6 c -51.1,0 -92.7,41.6 -92.7,92.7 V 13793 c 0,51.2 41.6,92.7 92.7,92.7 H 17225 c 51.1,0 92.7,-41.5 92.7,-92.7 v -1648.6 c 0,-51.1 -41.6,-92.7 -92.7,-92.7"
         style="fill:#000000;fill-opacity:1;fill-rule:nonzero;stroke:none"
         id="path56" /><path
         d="m 18661.7,12073.8 h -1075.4 c -42.9,0 -77.7,34.8 -77.7,77.7 v 1634.4 c 0,42.9 34.8,77.7 77.7,77.7 h 1075.4 c 42.9,0 77.7,-34.8 77.7,-77.7 v -1634.4 c 0,-42.9 -34.8,-77.7 -77.7,-77.7"
         style="fill:#ffffff;fill-opacity:1;fill-rule:nonzero;stroke:none"
         id="path58" /><path
         d="m 17586.3,13841.5 c -30.6,0 -55.5,-25 -55.5,-55.6 v -1634.4 c 0,-30.6 24.9,-55.5 55.5,-55.5 h 1075.4 c 30.6,0 55.5,24.9 55.5,55.5 v 1634.4 c 0,30.6 -24.9,55.6 -55.5,55.6 z m 1075.4,-1789.8 h -1075.4 c -55,0 -99.8,44.8 -99.8,99.8 v 1634.4 c 0,55.1 44.8,99.8 99.8,99.8 h 1075.4 c 55,0 99.8,-44.7 99.8,-99.8 v -1634.4 c 0,-55 -44.8,-99.8 -99.8,-99.8"
         style="fill:#000000;fill-opacity:1;fill-rule:nonzero;stroke:none"
         id="path60" /><path
         d="m 17245.2,10085.2 h -1129.9 c -27.9,0 -50.5,22.6 -50.5,50.4 v 1689 c 0,27.8 22.6,50.4 50.5,50.4 h 1129.9 c 27.8,0 50.4,-22.6 50.4,-50.4 v -1689 c 0,-27.8 -22.6,-50.4 -50.4,-50.4"
         style="fill:#ffffff;fill-opacity:1;fill-rule:nonzero;stroke:none"
         id="path62" /><path
         d="m 18659.7,10085.2 h -1071.4 c -44,0 -79.6,35.7 -79.6,79.7 v 1630.4 c 0,44 35.6,79.7 79.6,79.7 h 1071.4 c 44,0 79.7,-35.7 79.7,-79.7 v -1630.4 c 0,-44 -35.7,-79.7 -79.7,-79.7"
         style="fill:#ffffff;fill-opacity:1;fill-rule:nonzero;stroke:none"
         id="path64" /><path
         d="M 13536.3,21169.1 7033.16,17698.4 c -137.89,-73.6 -163.99,-223.2 -56.28,-322.5 l 546.67,-504 6060.15,3110.7 c 38,19.6 87.5,19.7 125.7,0.4 l 6178.8,-3117.7 353.7,421.4 c 145.4,173.4 85.6,405 -134.8,521.6 l -6350.3,3361.1 c -66.5,35.2 -154.2,35.1 -220.5,-0.3"
         style="fill:#000000;fill-opacity:1;fill-rule:nonzero;stroke:none"
         id="path66" /><path
         d="m 15127.9,7261.9 h -3013.3 c -73.4,0 -132.8,59.4 -132.8,132.8 v 6495.5 c 0,73.3 59.4,132.8 132.8,132.8 h 3013.3 c 73.4,0 132.8,-59.5 132.8,-132.8 V 7394.7 c 0,-73.4 -59.4,-132.8 -132.8,-132.8"
         style="fill:#ffffff;fill-opacity:1;fill-rule:nonzero;stroke:none"
         id="path68" /><path
         d="m 12114.6,14000.9 c -61,0 -110.7,-49.7 -110.7,-110.7 V 7394.7 c 0,-61 49.7,-110.7 110.7,-110.7 h 3013.3 c 61,0 110.7,49.7 110.7,110.7 v 6495.5 c 0,61 -49.7,110.7 -110.7,110.7 z m 3013.3,-6761.2 h -3013.3 c -85.4,0 -155,69.6 -155,155 v 6495.5 c 0,85.4 69.6,155 155,155 h 3013.3 c 85.4,0 155,-69.6 155,-155 V 7394.7 c 0,-85.4 -69.6,-155 -155,-155"
         style="fill:#000000;fill-opacity:1;fill-rule:nonzero;stroke:none"
         id="path70" /><path
         d="m 15005.1,7500.7 h -2754.7 c -48.9,0 -88.6,39.6 -88.6,88.5 V 13746 c 0,48.9 39.7,88.5 88.6,88.5 h 2754.7 c 48.9,0 88.5,-39.6 88.5,-88.5 V 7589.2 c 0,-48.9 -39.6,-88.5 -88.5,-88.5"
         style="fill:#ffffff;fill-opacity:1;fill-rule:nonzero;stroke:none"
         id="path72" /><path
         d="m 12250.4,13812.4 c -36.6,0 -66.4,-29.8 -66.4,-66.4 V 7589.2 c 0,-36.6 29.8,-66.4 66.4,-66.4 h 2754.7 c 36.6,0 66.4,29.8 66.4,66.4 V 13746 c 0,36.6 -29.8,66.4 -66.4,66.4 z m 2754.7,-6333.9 h -2754.7 c -61.1,0 -110.7,49.7 -110.7,110.7 V 13746 c 0,61 49.6,110.7 110.7,110.7 h 2754.7 c 61,0 110.7,-49.7 110.7,-110.7 V 7589.2 c 0,-61 -49.7,-110.7 -110.7,-110.7"
         style="fill:#000000;fill-opacity:1;fill-rule:nonzero;stroke:none"
         id="path74" /><path
         d="M 15688.5,7196.7 H 11568 c -34.6,0 -62.7,28.1 -62.7,62.7 v 605.4 c 0,34.6 28.1,62.7 62.7,62.7 h 4120.5 c 34.6,0 62.7,-28.1 62.7,-62.7 v -605.4 c 0,-34.6 -28.1,-62.7 -62.7,-62.7"
         style="fill:#ffffff;fill-opacity:1;fill-rule:nonzero;stroke:none"
         id="path76" /><path
         d="m 11568,7905.3 c -22.3,0 -40.5,-18.2 -40.5,-40.5 v -605.4 c 0,-22.3 18.2,-40.5 40.5,-40.5 h 4120.5 c 22.3,0 40.6,18.2 40.6,40.5 v 605.4 c 0,22.3 -18.3,40.5 -40.6,40.5 z m 4120.5,-730.7 H 11568 c -46.7,0 -84.8,38.1 -84.8,84.8 v 605.4 c 0,46.8 38.1,84.8 84.8,84.8 h 4120.5 c 46.8,0 84.8,-38 84.8,-84.8 v -605.4 c 0,-46.7 -38,-84.8 -84.8,-84.8"
         style="fill:#000000;fill-opacity:1;fill-rule:nonzero;stroke:none"
         id="path78" /><path
         d="m 8587.66,14828.5 9063.54,14.7 -9063.54,-14.7"
         style="fill:#ffffff;fill-opacity:1;fill-rule:nonzero;stroke:none"
         id="path80" /><path
         d="m 8587.66,14806.3 c -12.22,0 -22.12,9.9 -22.15,22.1 -0.02,12.2 9.89,22.2 22.11,22.2 l 9063.58,14.8 v 0 c 12.3,0 22.2,-9.9 22.2,-22.1 0,-12.3 -9.9,-22.2 -22.1,-22.2 l -9063.61,-14.8 c -0.01,0 -0.02,0 -0.03,0"
         style="fill:#000000;fill-opacity:1;fill-rule:nonzero;stroke:none"
         id="path82" /><path
         d="M 13913,13129.7 12776.7,11993.3 13913,13129.7"
         style="fill:#ffffff;fill-opacity:1;fill-rule:nonzero;stroke:none"
         id="path84" /><path
         d="m 12776.7,11971.2 c -5.7,0 -11.4,2.2 -15.7,6.5 -8.6,8.6 -8.6,22.7 0,31.3 l 1136.3,1136.3 c 8.7,8.7 22.7,8.7 31.4,0 8.6,-8.6 8.6,-22.6 0,-31.3 l -1136.4,-1136.3 c -4.3,-4.3 -10,-6.5 -15.6,-6.5"
         style="fill:#000000;fill-opacity:1;fill-rule:nonzero;stroke:none"
         id="path86" /><path
         d="m 13097.5,13209.9 -360.9,-361 360.9,361"
         style="fill:#ffffff;fill-opacity:1;fill-rule:nonzero;stroke:none"
         id="path88" /><path
         d="m 12736.6,12826.8 c -5.7,0 -11.4,2.1 -15.7,6.5 -8.6,8.6 -8.6,22.6 0,31.3 l 361,360.9 c 8.6,8.7 22.6,8.7 31.3,0 8.6,-8.6 8.6,-22.6 0,-31.3 l -361,-360.9 c -4.3,-4.4 -10,-6.5 -15.6,-6.5"
         style="fill:#000000;fill-opacity:1;fill-rule:nonzero;stroke:none"
         id="path90" /><path
         d="m 14705.1,12915.2 v -487.3 487.3"
         style="fill:#000000;fill-opacity:1;fill-rule:nonzero;stroke:none"
         id="path92" /><path
         d="m 14705.1,12405.7 c -12.2,0 -22.1,10 -22.1,22.2 v 487.3 c 0,12.2 9.9,22.1 22.1,22.1 12.3,0 22.2,-9.9 22.2,-22.1 v -487.3 c 0,-12.2 -9.9,-22.2 -22.2,-22.2"
         style="fill:#000000;fill-opacity:1;fill-rule:nonzero;stroke:none"
         id="path94" /><path
         d="m 18779.3,12915.2 v -487.3 487.3"
         style="fill:#000000;fill-opacity:1;fill-rule:nonzero;stroke:none"
         id="path96" /><path
         d="m 18779.3,12405.7 c -12.2,0 -22.1,10 -22.1,22.2 v 487.3 c 0,12.2 9.9,22.1 22.1,22.1 12.2,0 22.1,-9.9 22.1,-22.1 v -487.3 c 0,-12.2 -9.9,-22.2 -22.1,-22.2"
         style="fill:#000000;fill-opacity:1;fill-rule:nonzero;stroke:none"
         id="path98" /><path
         d="m 20549.2,4117.6 h -213 c -90.5,0 -163.8,73.3 -163.8,163.7 v 9427.9 c 0,90.4 73.3,163.7 163.8,163.7 h 213 c 90.4,0 163.7,-73.3 163.7,-163.7 V 4281.3 c 0,-90.4 -73.3,-163.7 -163.7,-163.7"
         style="fill:#000000;fill-opacity:1;fill-rule:nonzero;stroke:none"
         id="path100" /><path
         d="m 21292.8,13173.9 v -213 c 0,-90.5 -73.4,-163.8 -163.8,-163.8 h -7713 c -90.4,0 -163.7,73.3 -163.7,163.8 v 213 c 0,90.4 73.3,163.7 163.7,163.7 h 7713 c 90.4,0 163.8,-73.3 163.8,-163.7"
         style="fill:#000000;fill-opacity:1;fill-rule:nonzero;stroke:none"
         id="path102" /><path
         d="m 13939.6,8298.1 c -75.4,0 -136.7,69.3 -136.7,154.5 v 3820.8 c 0,85.2 61.3,154.5 136.7,154.5 H 19558 c 75.4,0 136.7,-69.3 136.7,-154.5 V 8452.6 c 0,-85.2 -61.3,-154.5 -136.7,-154.5 h -5618.4"
         style="fill:#000000;fill-opacity:1;fill-rule:nonzero;stroke:none"
         id="path104" /><path
         d="m 16090.7,11124.3 h -414 v -427.7 H 15461 v 1046.6 h 681.5 v -174.7 h -465.8 v -270.3 h 414 v -173.9"
         style="fill:#ffffff;fill-opacity:1;fill-rule:nonzero;stroke:none"
         id="path106" /><path
         d="m 16908.7,11243.6 c 0,109.7 -19.6,193.1 -58.9,250.1 -39.3,57.1 -95.4,85.6 -168.2,85.6 -72.4,0 -128.2,-28.2 -167.5,-84.5 -39.3,-56.3 -59.2,-138.8 -59.6,-247.6 v -51 c 0,-106.9 19.6,-189.8 58.9,-248.8 39.3,-58.9 95.8,-88.4 169.6,-88.4 72.4,0 128,28.4 166.8,85.2 38.8,56.8 58.5,139.6 58.9,248.4 z m 218.6,-47.4 c 0,-103.1 -18.2,-193.4 -54.7,-271 -36.4,-77.7 -88.5,-137.6 -156.3,-179.7 -67.8,-42.2 -145.6,-63.3 -233.3,-63.3 -86.7,0 -164.1,20.8 -232.1,62.5 -68.1,41.7 -120.8,101.3 -158.2,178.7 -37.4,77.4 -56.3,166.4 -56.8,267 v 51.8 c 0,103 18.6,193.7 55.7,272 37.2,78.4 89.6,138.5 157.4,180.5 67.9,41.9 145.4,62.9 232.6,62.9 87.2,0 164.7,-21 232.5,-62.9 67.8,-42 120.3,-102.1 157.5,-180.5 37.1,-78.3 55.7,-168.8 55.7,-271.3 v -46.7"
         style="fill:#ffffff;fill-opacity:1;fill-rule:nonzero;stroke:none"
         id="path108" /><path
         d="m 17499.6,11254.4 h 174 c 54.1,0 96,13.8 125.8,41.3 29.7,27.6 44.5,65.5 44.5,113.9 0,49.4 -14,88.2 -42,116.5 -28,28.3 -71.1,42.4 -129,42.4 h -173.3 z m 171.8,-174.7 h -171.8 v -383.1 H 17284 v 1046.6 h 388.9 c 123.6,0 219,-27.6 286.1,-82.7 67,-55.1 100.6,-133 100.6,-233.6 0,-71.4 -15.5,-130.9 -46.4,-178.6 -30.9,-47.7 -77.7,-85.7 -140.5,-114 l 226.4,-427.7 v -10 h -231.4 l -196.3,383.1"
         style="fill:#ffffff;fill-opacity:1;fill-rule:nonzero;stroke:none"
         id="path110" /><path
         d="m 15624.6,9396.8 c 0,40.7 -14.4,72 -43.2,93.8 -28.7,21.8 -80.5,44.8 -155.2,69 -74.8,24.2 -134,48 -177.6,71.5 -118.9,64.2 -178.3,150.7 -178.3,259.5 0,56.6 16,107 47.8,151.3 31.9,44.3 77.7,79 137.3,103.9 59.7,24.9 126.7,37.4 200.9,37.4 74.8,0 141.4,-13.6 199.9,-40.6 58.4,-27.1 103.8,-65.3 136.2,-114.7 32.3,-49.4 48.5,-105.4 48.5,-168.2 h -215.6 c 0,47.9 -15.1,85.2 -45.3,111.8 -30.2,26.6 -72.6,39.9 -127.2,39.9 -52.8,0 -93.7,-11.2 -123,-33.5 -29.2,-22.2 -43.8,-51.6 -43.8,-88 0,-34 17.1,-62.5 51.4,-85.5 34.2,-23 84.7,-44.6 151.3,-64.7 122.7,-36.9 212.1,-82.7 268.1,-137.3 56.1,-54.7 84.1,-122.7 84.1,-204.2 0,-90.6 -34.3,-161.6 -102.8,-213.1 -68.5,-51.5 -160.8,-77.3 -276.7,-77.3 -80.5,0 -153.9,14.7 -220,44.2 -66.1,29.5 -116.6,69.9 -151.3,121.1 -34.7,51.3 -52.1,110.7 -52.1,178.3 h 216.4 c 0,-115.5 69,-173.2 207,-173.2 51.2,0 91.3,10.4 120,31.2 28.8,20.9 43.2,50 43.2,87.4"
         style="fill:#ffffff;fill-opacity:1;fill-rule:nonzero;stroke:none"
         id="path112" /><path
         d="m 16257.8,9512.5 h 261.7 l -131.6,391.8 z m 319.9,-174.7 h -378.1 l -71.9,-215.6 h -229.3 l 389.6,1046.6 h 199.9 l 391.7,-1046.6 h -229.3 l -72.6,215.6"
         style="fill:#ffffff;fill-opacity:1;fill-rule:nonzero;stroke:none"
         id="path114" /><path
         d="m 17193,9295.4 h 457.9 v -173.2 h -673.5 v 1046.6 h 215.6 v -873.4"
         style="fill:#ffffff;fill-opacity:1;fill-rule:nonzero;stroke:none"
         id="path116" /><path
         d="m 18404.2,9575.8 h -414 v -280.4 h 485.9 v -173.2 h -701.5 v 1046.6 h 700.1 v -174.7 h -484.5 v -249.4 h 414 v -168.9"
         style="fill:#ffffff;fill-opacity:1;fill-rule:nonzero;stroke:none"
         id="path118" /><path
         d="m 8001.1,19865.6 c -12.23,0 -22.14,9.9 -22.14,22.2 v 171.7 c 0,12.3 9.91,22.2 22.14,22.2 12.23,0 22.14,-9.9 22.14,-22.2 v -171.7 c 0,-12.3 -9.91,-22.2 -22.14,-22.2"
         style="fill:#000000;fill-opacity:1;fill-rule:nonzero;stroke:none"
         id="path120" /><path
         d="m 8001.1,19465.5 c -12.23,0 -22.14,9.9 -22.14,22.1 v 171.8 c 0,12.2 9.91,22.1 22.14,22.1 12.23,0 22.14,-9.9 22.14,-22.1 v -171.8 c 0,-12.2 -9.91,-22.1 -22.14,-22.1"
         style="fill:#000000;fill-opacity:1;fill-rule:nonzero;stroke:none"
         id="path122" /><path
         d="m 8287.06,19751.4 h -171.77 c -12.22,0 -22.14,9.9 -22.14,22.2 0,12.2 9.92,22.1 22.14,22.1 h 171.77 c 12.23,0 22.14,-9.9 22.14,-22.1 0,-12.3 -9.91,-22.2 -22.14,-22.2"
         style="fill:#000000;fill-opacity:1;fill-rule:nonzero;stroke:none"
         id="path124" /><path
         d="m 7886.92,19751.4 h -171.78 c -12.22,0 -22.14,9.9 -22.14,22.2 0,12.2 9.92,22.1 22.14,22.1 h 171.78 c 12.23,0 22.14,-9.9 22.14,-22.1 0,-12.3 -9.91,-22.2 -22.14,-22.2"
         style="fill:#000000;fill-opacity:1;fill-rule:nonzero;stroke:none"
         id="path126" /><path
         d="m 6970.49,19644.7 c -25.51,0 -51.09,-4.7 -75.62,-14.3 -53.59,-20.8 -95.85,-61.8 -118.98,-115.4 -47.4,-109.9 1.51,-238.5 109.04,-286.8 51.37,-23.1 108.57,-24.6 161.05,-4.2 53.6,20.8 95.87,61.9 119.01,115.5 47.38,109.8 -1.53,238.5 -109.04,286.8 -27.37,12.3 -56.38,18.4 -85.46,18.4 z m -0.14,-479.3 c -35.24,0 -70.39,7.5 -103.56,22.4 -129.48,58.1 -188.48,212.8 -131.56,344.7 27.86,64.6 78.87,114 143.6,139.2 63.62,24.7 132.96,22.9 195.26,-5 129.45,-58.2 188.48,-212.8 131.56,-344.8 -27.88,-64.6 -78.89,-114 -143.64,-139.2 -29.73,-11.5 -60.73,-17.3 -91.66,-17.3"
         style="fill:#000000;fill-opacity:1;fill-rule:nonzero;stroke:none"
         id="path128" /><path
         d="m 12401.7,4247.7 c -397.2,0 -755.7,31.9 -1058,74.6 -923.6,130.7 -1536.42,388.7 -1542.51,391.3 -11.24,4.8 -16.48,17.8 -11.69,29 4.78,11.3 17.83,16.5 29.04,11.7 6.04,-2.5 614.66,-258.6 1532.86,-388.3 846.8,-119.7 2137.9,-153.3 3479.3,366.1 11.4,4.4 24.3,-1.3 28.7,-12.7 4.4,-11.4 -1.3,-24.2 -12.7,-28.6 -871.8,-337.5 -1722.3,-443.1 -2445,-443.1"
         style="fill:#000000;fill-opacity:1;fill-rule:nonzero;stroke:none"
         id="path130" /><path
         d="m 12565.5,3771.2 c -95.2,0 -186.8,1.6 -274.3,4.5 -894.5,29 -1561.7,187.4 -1568.3,189 -11.9,2.8 -19.2,14.8 -16.3,26.7 2.8,11.9 14.8,19.2 26.7,16.3 6.6,-1.6 670.2,-159 1560.3,-187.8 820.6,-26.6 2006.8,54 2999.3,588 10.7,5.8 24.1,1.8 29.9,-9 5.8,-10.7 1.8,-24.2 -9,-29.9 -895.2,-481.9 -1945.4,-597.8 -2748.3,-597.8"
         style="fill:#000000;fill-opacity:1;fill-rule:nonzero;stroke:none"
         id="path132" /><path
         d="m 15629.3,5050.9 h 0.2 z m 35.9,-16.4 c -9.6,0 -19.4,-1.5 -29,-4.6 -23.3,-7.7 -42.2,-24.1 -53.1,-46.1 -11.2,-22.5 -12.7,-48.3 -4.3,-72.5 17.1,-49.6 70.9,-76.8 120.1,-60.7 23.3,7.7 42.2,24 53.1,46.1 11.2,22.5 12.7,48.2 4.3,72.4 -13.8,40 -51.4,65.4 -91.1,65.4 z m 4.8,-232.8 c -58.1,0 -113,37 -133.1,95.2 -12.3,35.5 -9.9,73.3 6.5,106.6 16.2,32.7 44.3,57 79,68.4 71.9,23.7 150.8,-15.9 175.8,-88.3 12.3,-35.5 10,-73.4 -6.5,-106.6 -16.2,-32.7 -44.3,-57 -79,-68.5 -14.1,-4.6 -28.5,-6.8 -42.7,-6.8"
         style="fill:#000000;fill-opacity:1;fill-rule:nonzero;stroke:none"
         id="path134" /><path
         d="m 19068.3,18891.5 382.7,-181.5 224.1,429.3 z m 392.5,-232.8 c -3.2,0 -6.4,0.7 -9.5,2.1 l -447.4,212.2 c -7.9,3.8 -12.9,11.9 -12.6,20.7 0.2,8.7 5.6,16.5 13.8,19.8 l 709.2,289.6 c 8.6,3.5 18.5,1.3 24.7,-5.6 6.3,-6.8 7.6,-16.9 3.3,-25.1 l -261.9,-501.8 c -3.9,-7.5 -11.6,-11.9 -19.6,-11.9"
         style="fill:#000000;fill-opacity:1;fill-rule:nonzero;stroke:none"
         id="path136" /><path
         d="m 18521.6,19234.3 c -6.3,0 -12.6,2.6 -16.9,7.8 -8,9.3 -6.8,23.3 2.5,31.2 l 2171.7,1844.9 c 9.3,8 23.3,6.8 31.2,-2.5 7.9,-9.3 6.8,-23.3 -2.6,-31.2 l -2171.6,-1844.9 c -4.2,-3.6 -9.3,-5.3 -14.3,-5.3"
         style="fill:#000000;fill-opacity:1;fill-rule:nonzero;stroke:none"
         id="path138" /><path
         d="m 18142.3,19626.7 c -3.2,0 -6.4,0.7 -9.5,2.1 -11,5.3 -15.7,18.5 -10.5,29.5 l 879.8,1854.2 c 5.2,11.1 18.4,15.8 29.5,10.5 11,-5.2 15.7,-18.4 10.5,-29.5 l -879.8,-1854.1 c -3.8,-8 -11.7,-12.7 -20,-12.7"
         style="fill:#000000;fill-opacity:1;fill-rule:nonzero;stroke:none"
         id="path140" /><path
         d="m 17713.1,19789.7 c -5.4,0 -10.7,1.9 -15,5.8 -69.3,63.7 -101.4,126.4 -95.2,186.6 4.4,43.1 27,67.9 46.9,89.8 16.1,17.5 31.2,34.2 38.1,60.8 13.2,50.7 -16,90.4 -49.8,136.3 -32.6,44.4 -69.6,94.6 -64.1,159.8 6.7,79.1 68.3,118 127.8,155.7 53.7,34.1 104.6,66.2 116.7,126.3 13.8,68.4 -32.7,126.2 -81.9,187.4 -53.7,66.7 -109.2,135.6 -90.1,224.7 16,74.5 75.1,114.6 127.2,149.9 47.5,32.2 88.5,60.1 93.6,106.8 7.2,65.5 -59.5,144.8 -192.8,229.6 -10.3,6.5 -13.4,20.2 -6.8,30.5 6.5,10.4 20.2,13.4 30.5,6.8 152.8,-97.1 222.5,-185.9 213.2,-271.7 -7.4,-67.1 -61,-103.5 -112.8,-138.6 -49.7,-33.7 -96.6,-65.5 -108.8,-122.6 -14.7,-68.4 31.9,-126.3 81.3,-187.7 53.5,-66.4 108.7,-135.1 90.8,-223.9 -15.9,-78.6 -79.9,-119.1 -136.5,-154.9 -54.9,-34.8 -102.4,-64.9 -107.3,-122 -4.1,-48.6 24.9,-88.1 55.7,-129.8 35.3,-48.1 75.4,-102.6 57,-173.7 -9.7,-37.3 -30.2,-59.7 -48.3,-79.6 -18.2,-20 -32.6,-35.8 -35.6,-64.4 -4.6,-45.5 22.7,-95.8 81.2,-149.5 9,-8.2 9.6,-22.2 1.3,-31.2 -4.3,-4.8 -10.3,-7.2 -16.3,-7.2"
         style="fill:#000000;fill-opacity:1;fill-rule:nonzero;stroke:none"
         id="path142" /><path
         d="M 11062.1,17340.8 9405.52,16325.2 11062.1,17340.8"
         style="fill:#ffffff;fill-opacity:1;fill-rule:nonzero;stroke:none"
         id="path144" /><path
         d="m 9405.54,16303.1 c -7.45,0 -14.73,3.7 -18.9,10.5 -6.39,10.5 -3.12,24.1 7.31,30.5 l 1656.65,1015.6 c 10.4,6.4 24,3.1 30.4,-7.3 6.4,-10.4 3.1,-24.1 -7.3,-30.5 L 9417.08,16306.3 c -3.61,-2.2 -7.6,-3.2 -11.54,-3.2"
         style="fill:#000000;fill-opacity:1;fill-rule:nonzero;stroke:none"
         id="path146" /><path
         d="m 11222,18072.4 -871.9,-534.5 871.9,534.5"
         style="fill:#ffffff;fill-opacity:1;fill-rule:nonzero;stroke:none"
         id="path148" /><path
         d="m 10350.1,17515.7 c -7.4,0 -14.7,3.7 -18.9,10.6 -6.4,10.4 -3.1,24 7.3,30.4 l 871.9,534.6 c 10.4,6.4 24.1,3.1 30.5,-7.3 6.4,-10.5 3.1,-24.1 -7.3,-30.5 l -871.9,-534.5 c -3.7,-2.2 -7.6,-3.3 -11.6,-3.3"
         style="fill:#000000;fill-opacity:1;fill-rule:nonzero;stroke:none"
         id="path150" /><path
         d="m 8106.88,14851.3 c 0,0 579.42,-122 1146.75,273.6 567.33,395.7 926.07,671.8 926.07,671.8 0,0 1,217.6 122.5,308.6 121.4,91.1 193.5,401 288.7,398.9 l -34.1,-351.4 c 0,0 288.2,140 435.8,225.4 147.5,85.4 248.4,34.7 248.4,34.7 0,0 -510.7,-645.4 -675.2,-705.2 -164.5,-59.9 -251.1,-307.6 -342.8,-433.6 -91.6,-126 -91.6,-126 -91.6,-126 0,0 -679.05,-1173.6 -2024.52,-1060.3 v 763.5"
         style="fill:#ffffff;fill-opacity:1;fill-rule:nonzero;stroke:none"
         id="path152" /><path
         d="m 8129.02,14108.3 c 676.59,-50.6 1177.36,234.1 1479.31,483.2 331.45,273.5 502.17,564.8 503.87,567.7 0.4,0.7 0.8,1.3 1.3,2 l 91.6,126 c 25.5,34.9 50.9,80.3 77.9,128.4 70.4,125.3 150.1,267.3 275.3,312.9 124.4,45.3 490.4,479.4 645.5,673.1 -36.7,7.7 -107.9,10.8 -200.1,-42.6 -146.6,-84.8 -434.3,-224.7 -437.2,-226.1 -7.2,-3.5 -15.7,-2.9 -22.3,1.7 -6.6,4.6 -10.2,12.3 -9.4,20.3 l 30.6,315.8 c -31.2,-26.5 -66,-95.2 -97.6,-157.5 -44.8,-88.4 -91.2,-179.8 -152.4,-225.6 -111.3,-83.5 -113.6,-289 -113.6,-291 0,-6.9 -3.2,-13.3 -8.6,-17.5 -3.6,-2.7 -365.65,-280.9 -926.91,-672.3 -499.76,-348.6 -1015.69,-299.5 -1137.27,-281.7 z m 156.99,-50.2 c -58.93,0 -119.2,2.4 -180.99,7.6 -11.47,1 -20.28,10.6 -20.28,22.1 v 763.5 c 0,6.6 3.02,12.9 8.18,17.1 5.2,4.2 11.97,5.9 18.52,4.5 5.7,-1.2 577.2,-115 1129.53,270.2 513.41,358 859.73,621.1 916.83,664.7 2,47.3 17.1,229.8 131.1,315.2 52.9,39.7 98.8,130.3 139.4,210.3 52.5,103.5 97.9,193 161.6,193 0.5,0 1,0 1.5,0 6.2,-0.1 12,-2.8 16.1,-7.4 4.1,-4.6 6,-10.7 5.4,-16.9 l -30.2,-311.9 c 81.6,40.2 284.2,140.9 398.8,207.2 156.1,90.4 264.9,37.6 269.5,35.3 5.9,-2.9 10.2,-8.5 11.7,-15 1.4,-6.5 -0.2,-13.3 -4.3,-18.5 -21,-26.5 -516.6,-650.9 -685,-712.2 -109.8,-40 -185.2,-174.4 -251.8,-293 -27.6,-49.2 -53.7,-95.7 -80.7,-132.8 l -91,-125.1 c -11.8,-19.9 -185.23,-307.5 -512.13,-577.6 -284.11,-234.7 -740.71,-500.3 -1351.76,-500.3"
         style="fill:#000000;fill-opacity:1;fill-rule:nonzero;stroke:none"
         id="path154" /><path
         d="m 8500,14939.6 -300.43,-1236.4 c 0,0 -627.66,98.4 -659.91,-173.8 -32.25,-272.1 50.19,-1145.6 84.5,-1459.5 34.31,-314 90.26,-699 -306.73,-798.6 -396.99,-99.6 -1844.59,203.6 -2223.8,36.6 -379.22,-167 -513.83,13.9 -482.43,308.2 31.39,294.3 107.85,1640.5 107.85,1640.5 l -265.51,-887.6 -724.15,78.8 c 0,0 160,1941.9 1121.35,2313.1 961.35,371.2 1384.66,387.9 2102.85,326.7 718.19,-61.2 1218.46,-233.3 1546.41,-148"
         style="fill:#ffffff;fill-opacity:1;fill-rule:nonzero;stroke:none"
         id="path156" /><path
         d="m 4719.02,13278.7 c 1.28,0 2.57,-0.1 3.86,-0.3 11.06,-2 18.92,-11.9 18.28,-23.1 -0.77,-13.4 -76.85,-1350.1 -107.96,-1641.5 -11.28,-105.8 -5.83,-245.6 84.18,-311.4 75.98,-55.5 203.01,-46.6 367.33,25.7 213.35,94 740.55,44.3 1250.37,-3.8 412.18,-38.8 801.52,-75.6 976.96,-31.5 365.68,91.8 327.29,438.6 293.42,744.6 l -3.32,30.1 c -1.23,11.3 -123.34,1136.6 -84.47,1464.5 6.09,51.4 31.38,94.4 75.17,127.6 154.61,117.2 501.59,80.1 589.95,68.3 l 287.24,1182.1 c -199.49,-39.9 -455.58,2.4 -774.94,55.1 -217.25,35.9 -463.49,76.6 -743.38,100.4 -712.39,60.7 -1125.68,48.3 -2092.99,-325.2 -883.65,-341.2 -1083.79,-2060.2 -1105.22,-2272.9 l 684.11,-74.4 260.22,869.9 c 2.85,9.5 11.57,15.8 21.19,15.8 z m 124.22,-2057 c -60.18,0 -110.95,15 -151.99,45 -84.72,61.9 -120.02,183.5 -102.08,351.8 23.89,223.8 74.54,1068.8 96.85,1450.4 l -211.27,-706.2 c -3.08,-10.2 -13.05,-16.8 -23.61,-15.7 l -724.14,78.8 c -11.94,1.3 -20.66,11.8 -19.68,23.8 0.4,4.9 42.04,493.9 201.03,1021.9 211.62,702.7 534.73,1155.7 934.41,1310.1 975.94,376.8 1393.23,389.3 2112.71,328.1 281.63,-24 528.78,-64.8 746.83,-100.9 333.52,-55 596.93,-98.6 792.13,-47.8 7.55,2 15.57,-0.2 21.1,-5.6 5.56,-5.5 7.83,-13.5 5.99,-21 L 8221.07,13698 c -2.71,-11.2 -13.57,-18.4 -24.94,-16.7 -4.17,0.7 -417.4,63.7 -576.55,-57.1 -34.3,-26 -53.25,-57.8 -57.93,-97.4 -31.76,-268 50.23,-1140.8 84.52,-1454.5 l 3.3,-30 c 34.09,-308 76.53,-691.3 -326.64,-792.5 -182.83,-45.9 -575.84,-8.8 -991.9,30.4 -504.2,47.6 -1025.51,96.8 -1228.38,7.4 -99.77,-43.9 -186.44,-65.9 -259.31,-65.9"
         style="fill:#000000;fill-opacity:1;fill-rule:nonzero;stroke:none"
         id="path158" /><path
         d="m 5844.17,16617 c -58.32,-111.5 -29.39,-248.4 73.84,-320.3 113.56,-79.1 242.27,-194 315.97,-342.8 152.92,-308.6 -29.31,-513.7 -497.41,-483 -468.08,30.7 -482.86,-42.9 -906.42,-252.3 -423.55,-209.5 -601.48,-93.6 -610,284.5 -8.51,378.2 401.36,841.3 595.18,912.6 17.24,6.4 47.7,25.2 88.72,54 163.21,114.4 201.46,232.9 273.76,307.5 179.79,185.5 623.55,153.2 687.89,2.6 17.84,-41.8 13.56,-95.8 -21.53,-162.8"
         style="fill:#000000;fill-opacity:1;fill-rule:nonzero;stroke:none"
         id="path160" /><path
         d="m 4870,16822.7 c 124.17,-103.3 194.8,-295.3 127.5,-376.3 -67.3,-80.9 -247.04,-20 -371.22,83.2 -124.18,103.3 -145.77,209.9 -78.47,290.8 67.3,80.9 198.01,105.5 322.19,2.3"
         style="fill:#000000;fill-opacity:1;fill-rule:nonzero;stroke:none"
         id="path162" /><path
         d="m 4973.58,15961.4 c 25.3,20 61.04,20.9 97.01,6.9 9.72,60.9 23.03,112 23.03,112 -12.18,255.9 449.45,345.1 449.45,345.1 h 17.84 c 65.89,-87.2 114.66,-167.2 150.45,-240.4 9.68,-19.7 23.64,-37.1 41.46,-50.1 l 77.11,-56 c 26.4,-19.2 30.93,-56.8 9.87,-81.7 l -44.28,-52.4 c 102.68,-320 -87.22,-353.7 -87.22,-353.7 -27.43,-7 -54.02,-11.5 -80.02,-14.5 63.16,-171 225.17,-481.2 576.11,-510.5 37.3,-3.1 53.27,-48.7 24.91,-73.1 -147.74,-127.1 -514.04,-367.1 -1081.39,-253.8 -41.03,8.2 -53.15,60.3 -20.58,86.5 112.8,90.9 255.95,316.9 88.28,852.3 -19.27,12.5 -36.49,24.9 -50.94,36.2 -46.56,-33.2 -124.96,-7.9 -177.46,58.4 -53.66,67.7 -59.76,152.2 -13.63,188.8"
         style="fill:#ffffff;fill-opacity:1;fill-rule:nonzero;stroke:none"
         id="path164" /><path
         d="m 5164.67,15736.4 c 4.83,0 9.67,-1.6 13.66,-4.7 14.69,-11.5 31.75,-23.7 49.37,-35.2 4.3,-2.8 7.5,-7 9.03,-11.9 173.9,-555.3 14.8,-787.3 -95.51,-876.1 -8.6,-7 -12.18,-17.4 -9.59,-28 2.5,-10.2 10.21,-17.5 20.62,-19.6 566.53,-113.1 931.86,136.4 1062.6,248.9 8.7,7.5 6.97,16.6 5.81,20.2 -0.99,3 -5.18,12.9 -18.1,14 -360.14,30.1 -527.4,341.8 -595.06,524.9 -2.35,6.3 -1.65,13.4 1.89,19.2 3.54,5.8 9.55,9.6 16.28,10.4 27.64,3.3 52.89,7.9 77.2,14.1 3.26,0.6 47.28,9.6 76.09,58.3 34.45,58.1 32.89,150.5 -4.52,267.2 -2.34,7.2 -0.76,15.2 4.17,21 l 44.28,52.4 c 6.17,7.3 8.94,16.5 7.79,26 -1.14,9.5 -6.03,17.8 -13.76,23.5 l -77.12,56 c -20.12,14.6 -36.83,34.8 -48.33,58.3 -36,73.6 -83.63,150.2 -141.62,227.9 h -4.55 c -32.24,-6.7 -440.31,-96.2 -429.55,-321.9 0.11,-2.2 -0.13,-4.4 -0.69,-6.6 -0.13,-0.5 -13.18,-50.8 -22.61,-109.9 -1.05,-6.6 -5.04,-12.4 -10.83,-15.7 -5.81,-3.3 -12.78,-3.8 -19.03,-1.4 -30.13,11.7 -57.57,10.3 -75.27,-3.7 -16.38,-13 -24.29,-35.6 -22.27,-63.7 2.26,-31.3 16.3,-64.7 39.51,-94 44.4,-56 110.44,-80.2 147.26,-54 3.84,2.7 8.36,4.1 12.85,4.1 z m 270.5,-1048.6 c -90.58,0 -187.82,8.9 -291.59,29.7 -27.29,5.4 -48.35,25.5 -54.96,52.5 -6.7,27.3 2.81,55.2 24.81,72.9 101.06,81.5 245.7,296.2 83.39,820.9 -11.86,7.9 -23.19,15.9 -33.85,23.9 -56.84,-27.1 -138.21,1.8 -193.13,71.1 -28.67,36.2 -46.06,78.2 -48.95,118.3 -3.11,43.2 10.71,79.3 38.93,101.6 0.01,0 0.01,0 0.01,0 24.55,19.4 57.52,25.6 93.13,18 7.6,42 15.8,75.6 18.42,85.9 -9.01,269.4 447.96,360.7 467.49,364.5 1.39,0.3 2.8,0.4 4.2,0.4 h 17.84 c 6.94,0 13.48,-3.2 17.66,-8.8 62.7,-82.9 114.07,-165 152.68,-243.9 8.34,-17.1 20.3,-31.6 34.58,-42 l 77.12,-56 c 17.55,-12.8 29.1,-32.4 31.69,-54 2.61,-21.5 -3.93,-43.3 -17.94,-59.9 l -36.41,-43.1 c 38.51,-126 37.2,-224.5 -3.98,-292.7 -39.56,-65.7 -101.52,-77.3 -104.14,-77.8 -16.61,-4.3 -34.37,-7.9 -53.23,-10.9 69.67,-175.1 227.75,-443.6 547.3,-470.3 26.29,-2.2 48.49,-19.6 56.54,-44.5 7.98,-24.6 0.68,-50.4 -19.04,-67.3 -111.64,-96.1 -387.93,-288.4 -808.57,-288.5"
         style="fill:#000000;fill-opacity:1;fill-rule:nonzero;stroke:none"
         id="path166" /><path
         d="m 5557.59,15548.8 c -147.06,0 -208.42,74.9 -211.33,78.5 -7.6,9.6 -6,23.5 3.58,31.1 9.51,7.6 23.38,6.1 31.01,-3.4 3.01,-3.7 70.54,-83 244.1,-56.6 11.94,1.9 23.37,-6.4 25.22,-18.5 1.84,-12.1 -6.48,-23.4 -18.56,-25.2 -26.76,-4.1 -51.41,-5.9 -74.02,-5.9"
         style="fill:#000000;fill-opacity:1;fill-rule:nonzero;stroke:none"
         id="path168" /><path
         d="m 6376.45,5097.5 -22.94,-852.9 -301.25,-32.6 -149.06,917.9 473.25,-32.4"
         style="fill:#ffffff;fill-opacity:1;fill-rule:nonzero;stroke:none"
         id="path170" /><path
         d="m 5929.53,5105.9 141.21,-869.6 261.16,28.2 21.84,812.4 z m 122.71,-916 c -10.73,0 -20.08,7.7 -21.84,18.6 l -149.06,917.9 c -1.08,6.7 0.95,13.5 5.5,18.5 4.55,5 10.95,7.7 17.88,7.1 l 473.24,-32.4 c 11.83,-0.8 20.94,-10.8 20.61,-22.6 l -22.93,-853 c -0.29,-11.1 -8.73,-20.3 -19.75,-21.4 L 6054.63,4190 c -0.81,-0.1 -1.61,-0.1 -2.39,-0.1"
         style="fill:#000000;fill-opacity:1;fill-rule:nonzero;stroke:none"
         id="path172" /><path
         d="m 8085.93,4817.5 48.07,-679.4 -398.12,-32.6 -142.11,712 h 492.16"
         style="fill:#ffffff;fill-opacity:1;fill-rule:nonzero;stroke:none"
         id="path174" /><path
         d="m 7620.77,4795.4 132.96,-666.2 356.64,29.2 -45.07,637 z m 115.09,-712 c -10.45,0 -19.61,7.4 -21.69,17.8 l -142.11,712 c -1.29,6.5 0.38,13.2 4.59,18.3 4.2,5.2 10.49,8.1 17.12,8.1 h 492.16 c 11.62,0 21.27,-8.9 22.09,-20.5 l 48.07,-679.4 c 0.85,-12.1 -8.19,-22.7 -20.28,-23.7 l -398.12,-32.5 c -0.62,-0.1 -1.23,-0.1 -1.83,-0.1"
         style="fill:#000000;fill-opacity:1;fill-rule:nonzero;stroke:none"
         id="path176" /><path
         d="m 7629.48,3812.9 c -27.61,18.4 -44.41,49.4 -45.27,82.5 -2.6,99.7 -2.94,312 37.28,391.8 53.35,105.9 273.44,-41.7 273.44,-41.7 0,0 128.82,178.6 204.26,216.1 39.05,19.4 267.49,-132.7 497.78,-340 252.38,-227.1 366.32,-299.6 420.72,-495.5 25.53,-91.9 -41.98,-184.4 -137.13,-191.2 -231.8,-16.6 -699.6,11.2 -1251.08,378"
         style="fill:#ffffff;fill-opacity:1;fill-rule:nonzero;stroke:none"
         id="path178" /><path
         d="m 7691.76,4303.4 c -7.54,0 -14.61,-0.8 -21.06,-2.5 -13.78,-3.6 -23.13,-11.1 -29.43,-23.6 -27.12,-53.8 -39.84,-192.8 -34.92,-381.3 0.68,-26.2 13.91,-50.4 35.39,-64.6 546.65,-363.7 1009.87,-390.7 1237.23,-374.4 39.49,2.8 75.31,23.1 98.29,55.7 22.31,31.7 29.27,70.8 19.1,107.5 -44.06,158.6 -125.7,230.4 -304.55,387.7 -33.3,29.3 -69.75,61.4 -109.65,97.3 -253.83,228.5 -444.13,339.9 -475,335.9 -55.92,-28.1 -159.32,-160.1 -194.27,-208.5 -6.99,-9.7 -20.36,-12.1 -30.28,-5.5 -34.47,23.1 -128.44,76.3 -190.85,76.3 z m 1086.78,-894.2 c -255.08,0 -676.73,62.9 -1161.32,385.3 -33.47,22.2 -54.08,59.7 -55.14,100.3 -3,115 -1.85,320.1 39.64,402.4 11.92,23.6 31.89,39.7 57.75,46.5 74.78,19.7 185.63,-41.2 229.93,-68.4 34.81,46.4 133.96,173.3 199.93,206.1 66.28,32.9 355.58,-193.1 522.46,-343.3 39.76,-35.8 76.08,-67.7 109.26,-96.9 180.02,-158.4 270.39,-237.9 317.97,-409.2 13.75,-49.5 4.42,-102.3 -25.57,-144.8 -30.67,-43.5 -78.52,-70.6 -131.32,-74.4 -30.51,-2.1 -65.16,-3.6 -103.59,-3.6"
         style="fill:#000000;fill-opacity:1;fill-rule:nonzero;stroke:none"
         id="path180" /><path
         d="m 8670.51,3593.1 c -241.51,0 -635.11,57 -1016.25,361.2 -9.55,7.6 -11.12,21.5 -3.5,31.1 7.64,9.5 21.57,11.1 31.12,3.5 589.11,-470.1 1207.18,-333.6 1213.36,-332.2 11.88,2.8 23.81,-4.6 26.58,-16.5 2.77,-11.9 -4.61,-23.8 -16.52,-26.6 -2.37,-0.5 -92,-20.5 -234.79,-20.5"
         style="fill:#000000;fill-opacity:1;fill-rule:nonzero;stroke:none"
         id="path182" /><path
         d="m 6495.45,4037.1 -4.4,467.1 c 0,0 -93.64,141.6 -222.03,26.5 0,0 -118.71,166.4 -339.02,-41.1 0,0 -310.03,-577.9 -447.27,-921.6 -36.73,-92 28.93,-192.9 127.97,-195.2 142.28,-3.3 326.31,4.4 406.45,58.6 125.25,84.6 339.7,351.7 433.18,472 29.74,38.2 45.58,85.3 45.12,133.7"
         style="fill:#ffffff;fill-opacity:1;fill-rule:nonzero;stroke:none"
         id="path184" /><path
         d="m 5947.81,4476 c -25.04,-46.9 -314.57,-590.7 -444.52,-916.2 -14.9,-37.3 -10.76,-77.9 11.34,-111.4 21.84,-33 57.04,-52.5 96.59,-53.4 194.82,-4.6 334.61,14.9 393.53,54.7 123.66,83.6 340.58,354.6 428.1,467.2 26.5,34.2 40.88,76.8 40.47,120 l -4.35,459.9 c -10.46,13.5 -43,50.5 -87.4,56.1 -31.7,4 -64.67,-9 -97.77,-38.7 -4.68,-4.2 -11.01,-6.2 -17.21,-5.5 -6.26,0.7 -11.94,4 -15.59,9.1 -1.36,1.9 -35.16,47.3 -99.26,53.3 -61.45,5.6 -130.06,-26.3 -203.93,-95.1 z M 5667.99,3350 c -18.65,0 -37.92,0.2 -57.81,0.7 -54.25,1.3 -102.54,28 -132.49,73.3 -29.77,45.1 -35.58,102 -15.53,152.2 136.13,340.9 445.23,918.1 448.33,923.9 1.14,2.1 2.6,4 4.34,5.7 84.91,79.9 166.43,116.7 242,109.3 56.26,-5.6 94.64,-34.5 114.48,-53.8 37.89,28.6 76.88,40.6 116.17,35.5 74.4,-9.6 120.13,-77.5 122.05,-80.4 2.34,-3.6 3.61,-7.8 3.66,-12 l 4.41,-467 c 0.5,-53.2 -17.18,-105.7 -49.79,-147.6 -110.32,-142 -313.96,-392.7 -438.26,-476.8 -61.91,-41.8 -183.41,-63 -361.56,-63"
         style="fill:#000000;fill-opacity:1;fill-rule:nonzero;stroke:none"
         id="path186" /><path
         d="m 6269.16,4256.8 c -12.23,0 -22.14,9.9 -22.15,22.1 l -0.13,251.8 c -0.01,12.2 9.9,22.1 22.13,22.1 12.23,0 22.14,-9.9 22.15,-22.1 l 0.13,-251.8 c 0.01,-12.2 -9.9,-22.1 -22.13,-22.1"
         style="fill:#000000;fill-opacity:1;fill-rule:nonzero;stroke:none"
         id="path188" /><path
         d="m 8206.8,4778.9 c 0,0 113.59,1715 -72.8,3257.6 -186.4,1542.5 -879.71,3745.4 -879.71,3745.4 0,0 -745.94,33.8 -1288.91,-39.2 -542.99,-72.9 -757.88,2.1 -757.88,2.1 0,0 -405.35,-464.1 -372.26,-1336.7 33.08,-872.5 978.93,-4553.2 943.08,-5417 0,0 318.09,-159.9 730.1,-80.4 l -170.76,4960.4 c 0,0 353.35,-1021.1 519.21,-1720.7 135.21,-570.3 369.78,-939.2 369.78,-939.2 0,0 -9.96,-1325.8 294.31,-2426.1 0,0 359.43,-112.5 685.84,-6.2"
         style="fill:#000000;fill-opacity:1;fill-rule:nonzero;stroke:none"
         id="path190" /><path
         d="m 7610.38,6619.9 c -7.05,0 -13.98,3.4 -18.27,9.7 l -260.47,379 c -6.92,10.1 -4.36,23.9 5.71,30.8 10.08,6.9 23.89,4.3 30.79,-5.7 l 260.47,-379.1 c 6.92,-10 4.36,-23.8 -5.71,-30.8 -3.83,-2.6 -8.2,-3.9 -12.52,-3.9"
         style="fill:#ffffff;fill-opacity:1;fill-rule:nonzero;stroke:none"
         id="path192" /><path
         d="m 5858.57,7541.5 c -90.36,0 -205.03,17.6 -300.58,88.5 -9.83,7.3 -11.88,21.2 -4.6,31 7.29,9.8 21.15,11.9 30.98,4.6 169.15,-125.5 415.23,-64.7 417.71,-64.1 11.91,3.1 23.92,-4.1 26.93,-16 3.02,-11.8 -4.14,-23.9 -15.99,-26.9 -5.3,-1.3 -69.02,-17.1 -154.45,-17.1"
         style="fill:#ffffff;fill-opacity:1;fill-rule:nonzero;stroke:none"
         id="path194" /><path
         d="m 5200,11471.7 h 1981.9 l -875.52,2155.5 H 4324.48 L 5200,11471.7"
         style="fill:#ffffff;fill-opacity:1;fill-rule:nonzero;stroke:none"
         id="path196" /><path
         d="m 5214.91,11493.9 h 1934.1 l -857.54,2111.2 h -1934.1 z m 1966.99,-44.3 H 5200 c -9,0 -17.12,5.5 -20.51,13.8 l -875.52,2155.5 c -2.77,6.8 -1.97,14.6 2.15,20.7 4.11,6.1 10.99,9.8 18.37,9.8 h 1981.89 c 9.01,0 17.13,-5.5 20.51,-13.8 l 875.52,-2155.5 c 2.78,-6.8 1.98,-14.6 -2.14,-20.7 -4.12,-6.1 -10.99,-9.8 -18.37,-9.8"
         style="fill:#000000;fill-opacity:1;fill-rule:nonzero;stroke:none"
         id="path198" /><path
         d="m 5948.39,12150.5 c 0,0 345.28,202.3 502.19,245.3 156.92,43 38.02,-89.5 -74.91,-143.6 -112.94,-54 -116.45,-125.1 -116.45,-125.1 0,0 617.62,19.9 686.87,23.4 69.26,3.6 -34.63,-92.6 -219.32,-123.4 0,0 -51.66,-156.2 -185.3,-230.8 -133.64,-74.6 -568.85,0 -568.85,0 0,0 -512.46,-214 -1361.42,-180.2 -561.65,22.4 -837.2,474.2 -801,795.8 l 540.67,-50 c 0,0 225.03,-507.9 1597.52,-211.4"
         style="fill:#ffffff;fill-opacity:1;fill-rule:nonzero;stroke:none"
         id="path200" /><path
         d="m 5948.4,12150.5 h 0.21 z m -2118.15,237.3 c -10.65,-157.2 52.61,-331.3 171.76,-470.1 146.27,-170.3 362.93,-269.6 610.07,-279.4 833.4,-33.3 1346.92,176.3 1352.02,178.4 3.84,1.6 8.1,2.1 12.26,1.4 118.9,-20.4 450.31,-60.6 554.32,-2.5 124.23,69.3 174.59,217 175.08,218.5 2.59,7.8 9.28,13.5 17.37,14.9 105.13,17.5 176.29,55.2 206.67,78.7 -119.32,-5 -646.13,-22 -669.87,-22.8 -6.2,-0.1 -12.17,2.2 -16.51,6.6 -4.34,4.5 -6.63,10.5 -6.32,16.7 0.17,3.4 5.59,84.9 129.02,144 68.88,33 125,87.2 135.91,109.9 -6.79,0.3 -20.43,-0.7 -45.6,-7.6 -152.29,-41.7 -493.41,-241 -496.84,-243.1 -2.02,-1.1 -4.22,-2 -6.51,-2.5 -1273.34,-275.1 -1571.76,133.5 -1616.28,212 z m 959.83,-797.4 c -58.19,0 -118.05,1.1 -179.78,3.6 -259.55,10.3 -487.52,115.1 -641.89,294.9 -132.5,154.3 -199.88,350.8 -180.22,525.5 1.36,11.9 11.96,20.5 24.05,19.5 l 540.68,-50 c 7.99,-0.7 14.95,-5.7 18.2,-13.1 2.19,-4.7 238.32,-486 1569.16,-199.4 36.87,21.5 352.65,204.2 504.45,245.8 23.62,6.5 86.4,23.7 101.17,-16 19.39,-52 -92.56,-136.3 -160.67,-168.9 -59.16,-28.3 -84.7,-60.5 -95.69,-82.1 126.19,4.1 596.11,19.4 655.43,22.5 38.41,1.8 43.9,-21.3 44.67,-28.4 5.09,-46.9 -113.11,-111.8 -246.5,-136.8 -15.76,-40.1 -72.39,-164.4 -190.88,-230.6 -131.51,-73.4 -521.06,-12.7 -577.21,-3.5 -56.06,-21.8 -493.52,-183 -1184.97,-183"
         style="fill:#000000;fill-opacity:1;fill-rule:nonzero;stroke:none"
         id="path202" /></g></g></svg>
