<?xml version="1.0" encoding="UTF-8" standalone="no"?>
<!-- Created with Inkscape (http://www.inkscape.org/) -->

<svg
   version="1.1"
   id="svg2"
   xml:space="preserve"
   width="3333.3333"
   height="3333.3333"
   viewBox="0 0 3333.3333 3333.3333"
   sodipodi:docname="bwink_ppl_02_single_06.eps"
   xmlns:inkscape="http://www.inkscape.org/namespaces/inkscape"
   xmlns:sodipodi="http://sodipodi.sourceforge.net/DTD/sodipodi-0.dtd"
   xmlns="http://www.w3.org/2000/svg"
   xmlns:svg="http://www.w3.org/2000/svg"><defs
     id="defs6" /><sodipodi:namedview
     id="namedview4"
     pagecolor="#ffffff"
     bordercolor="#666666"
     borderopacity="1.0"
     inkscape:pageshadow="2"
     inkscape:pageopacity="0.0"
     inkscape:pagecheckerboard="0" /><g
     id="g8"
     inkscape:groupmode="layer"
     inkscape:label="ink_ext_XXXXXX"
     transform="matrix(1.3333333,0,0,-1.3333333,0,3333.3333)"><g
       id="g10"
       transform="scale(0.1)"><path
         d="M 25000,0 H 0 V 25000 H 25000 V 0"
         style="fill:#ffffff;fill-opacity:1;fill-rule:nonzero;stroke:none"
         id="path12" /><path
         d="M 18941.6,19329.5 H 9902.65 c -285.13,0 -555.04,-237.7 -602.85,-530.9 L 7248.24,6216.3 c -47.81,-293.2 144.59,-530.9 429.72,-530.9 H 16717 c 285.1,0 555,237.7 602.8,530.9 l 2051.6,12582.3 c 47.8,293.2 -144.6,530.9 -429.8,530.9"
         style="fill:#000000;fill-opacity:1;fill-rule:nonzero;stroke:none"
         id="path14" /><path
         d="m 9902.66,19307.4 c -274.33,0 -534.96,-229.9 -581.02,-512.4 L 7270.09,6212.7 c -22.74,-139.4 9.7,-269.1 91.38,-365.2 76.78,-90.3 189.16,-140 316.49,-140 h 9038.94 c 274.4,0 535,229.8 581.1,512.3 l 2051.5,12582.4 c 22.7,139.4 -9.7,269.1 -91.3,365.1 -76.8,90.3 -189.2,140.1 -316.6,140.1 z M 16716.9,5663.2 H 7677.96 c -140.51,0 -264.89,55.3 -350.23,155.7 -90.19,106.1 -126.2,248.5 -101.34,400.9 l 2051.55,12582.4 c 49.41,302.9 329.65,549.4 624.72,549.4 h 9038.94 c 140.6,0 264.9,-55.2 350.3,-155.6 90.2,-106.1 126.2,-248.5 101.3,-401 L 17341.7,6212.7 c -49.4,-303 -329.7,-549.5 -624.8,-549.5"
         style="fill:#000000;fill-opacity:1;fill-rule:nonzero;stroke:none"
         id="path16" /><path
         d="M 18651.3,19329.5 H 9612.34 c -285.13,0 -555.05,-239.2 -602.85,-534.3 L 6957.93,6131.2 c -47.81,-295.1 144.59,-534.4 429.72,-534.4 h 9038.95 c 285.2,0 555.1,239.3 602.9,534.4 l 2051.6,12664 c 47.8,295.1 -144.6,534.3 -429.8,534.3"
         style="fill:#ffffff;fill-opacity:1;fill-rule:nonzero;stroke:none"
         id="path18" /><path
         d="m 16426.6,5574.7 h -5071.7 c -12.2,0 -22.1,9.9 -22.1,22.1 0,12.3 9.9,22.2 22.1,22.2 h 5071.7 c 274.3,0 535,231.3 581,515.7 l 2051.6,12664 c 22.8,141 -9.9,272 -92.4,368.8 -76.7,90.2 -188.8,139.9 -315.5,139.9 H 9612.34 c -274.29,0 -534.95,-231.4 -581.01,-515.8 l -876.79,-5412.4 c -1.97,-12 -13.17,-20.2 -25.4,-18.3 -12.06,2 -20.25,13.4 -18.31,25.4 l 876.8,5412.4 c 49.38,304.9 329.64,552.9 624.71,552.9 h 9038.96 c 139.9,0 264,-55.2 349.3,-155.4 90.9,-106.8 127.2,-250.5 102.3,-404.6 l -2051.6,-12664 c -49.4,-304.8 -329.6,-552.9 -624.7,-552.9"
         style="fill:#000000;fill-opacity:1;fill-rule:nonzero;stroke:none"
         id="path20" /><path
         d="M 10048,18478.3 8168.87,7040.6 16075.7,6964.9 17941,18478.3 h -7893"
         style="fill:#ffffff;fill-opacity:1;fill-rule:nonzero;stroke:none"
         id="path22" /><path
         d="m 16075.7,6945.3 h -4986.4 c -12.2,0 -22.1,9.9 -22.1,22.1 0,12.2 9.9,22.1 22.1,22.1 h 4967.6 L 17915,18459.4 h -7848.2 l -535.12,-3303.2 c -1.96,-12.1 -13.1,-20.3 -25.4,-18.3 -12.06,1.9 -20.25,13.3 -18.3,25.4 l 538.12,3321.8 c 1.8,10.7 11,18.6 21.9,18.6 h 7893 c 6.4,0 12.6,-2.9 16.8,-7.8 4.2,-4.9 6,-11.5 5,-17.9 L 16097.5,6963.9 c -1.7,-10.8 -11,-18.6 -21.8,-18.6"
         style="fill:#000000;fill-opacity:1;fill-rule:nonzero;stroke:none"
         id="path24" /><path
         d="m 10683.8,16383.8 h 5941.7 l 50.6,312.8 h -5941.6 z m 5960.5,-44.2 h -5986.5 c -6.5,0 -12.6,2.8 -16.9,7.8 -4.1,4.9 -6,11.4 -4.9,17.8 l 57.8,357.1 c 1.7,10.7 11,18.6 21.8,18.6 h 5986.5 c 6.5,0 12.7,-2.9 16.9,-7.8 4.2,-5 6,-11.5 5,-17.9 l -57.8,-357 c -1.8,-10.8 -11,-18.6 -21.9,-18.6"
         style="fill:#000000;fill-opacity:1;fill-rule:nonzero;stroke:none"
         id="path26" /><path
         d="M 10569.9,15681 H 14948 l 50.7,312.7 h -4378.1 z m 4396.9,-44.3 h -4422.9 c -6.5,0 -12.6,2.9 -16.8,7.8 -4.2,4.9 -6.1,11.5 -5,17.9 l 57.8,357 c 1.8,10.7 11,18.6 21.9,18.6 h 4422.9 c 6.5,0 12.6,-2.8 16.8,-7.8 4.2,-4.9 6.1,-11.5 5,-17.9 l -57.8,-357 c -1.8,-10.7 -11,-18.6 -21.9,-18.6"
         style="fill:#000000;fill-opacity:1;fill-rule:nonzero;stroke:none"
         id="path28" /><path
         d="m 16336.2,14437.9 h -5753.6 c -12.2,0 -22.1,9.9 -22.1,22.1 0,12.2 9.9,22.2 22.1,22.2 h 5734.8 l 50.7,312.7 h -5824.2 c -12.2,0 -22.1,9.9 -22.1,22.2 0,12.2 9.9,22.1 22.1,22.1 h 5850.2 c 6.5,0 12.6,-2.9 16.8,-7.8 4.2,-4.9 6.1,-11.5 5,-17.9 l -57.8,-357 c -1.8,-10.7 -11,-18.6 -21.9,-18.6"
         style="fill:#000000;fill-opacity:1;fill-rule:nonzero;stroke:none"
         id="path30" /><path
         d="m 14658.8,13735 h -3950.3 c -12.2,0 -22.1,9.9 -22.1,22.2 0,12.2 9.9,22.1 22.1,22.1 h 3931.4 l 50.7,312.8 h -4198.4 c -12.2,0 -22.1,9.9 -22.1,22.1 0,12.2 9.9,22.1 22.1,22.1 h 4224.4 c 6.5,0 12.6,-2.8 16.9,-7.8 4.2,-4.9 6,-11.4 4.9,-17.9 l -57.8,-357 c -1.7,-10.7 -11,-18.6 -21.8,-18.6"
         style="fill:#000000;fill-opacity:1;fill-rule:nonzero;stroke:none"
         id="path32" /><path
         d="m 10067.7,12580.5 h 5941.6 l 50.7,312.8 h -5941.7 z m 5960.5,-44.3 h -5986.6 c -6.4,0 -12.6,2.9 -16.8,7.8 -4.2,5 -6,11.5 -5,17.9 l 57.8,357 c 1.8,10.7 11,18.6 21.9,18.6 H 16086 c 6.5,0 12.7,-2.8 16.9,-7.8 4.2,-4.9 6,-11.5 5,-17.9 l -57.9,-357 c -1.7,-10.7 -11,-18.6 -21.8,-18.6"
         style="fill:#000000;fill-opacity:1;fill-rule:nonzero;stroke:none"
         id="path34" /><path
         d="m 9953.79,11877.6 h 4378.11 l 50.6,312.8 h -4378 z m 4396.91,-44.2 H 9927.79 c -6.48,0 -12.64,2.8 -16.86,7.8 -4.19,4.9 -6.03,11.4 -4.99,17.8 l 57.84,357.1 c 1.75,10.7 11,18.5 21.85,18.5 h 4422.87 c 6.5,0 12.7,-2.8 16.9,-7.7 4.2,-5 6,-11.5 5,-17.9 l -57.8,-357 c -1.8,-10.8 -11,-18.6 -21.9,-18.6"
         style="fill:#000000;fill-opacity:1;fill-rule:nonzero;stroke:none"
         id="path36" /><path
         d="m 9759.59,10678.8 h 5941.71 l 50.6,312.8 H 9810.26 Z m 5960.51,-44.2 H 9733.59 c -6.48,0 -12.64,2.8 -16.85,7.7 -4.2,5 -6.03,11.5 -5,17.9 l 57.84,357 c 1.75,10.8 11,18.6 21.85,18.6 h 5986.47 c 6.5,0 12.7,-2.8 16.9,-7.7 4.2,-5 6,-11.5 5,-17.9 l -57.9,-357.1 c -1.7,-10.7 -11,-18.5 -21.8,-18.5"
         style="fill:#000000;fill-opacity:1;fill-rule:nonzero;stroke:none"
         id="path38" /><path
         d="m 9645.71,9976 h 4378.09 l 50.7,312.7 H 9696.38 Z m 4396.89,-44.3 H 9619.71 c -6.48,0 -12.64,2.8 -16.85,7.8 -4.2,4.9 -6.03,11.5 -5,17.9 l 57.84,357 c 1.75,10.7 11,18.6 21.85,18.6 h 4422.95 c 6.5,0 12.6,-2.9 16.8,-7.8 4.2,-5 6,-11.5 5,-17.9 l -57.8,-357 c -1.8,-10.7 -11,-18.6 -21.9,-18.6"
         style="fill:#000000;fill-opacity:1;fill-rule:nonzero;stroke:none"
         id="path40" /><path
         d="m 16577.9,17812.1 h -5128.8 c -209.1,0 -350.2,175.5 -315.2,391.9 l 92,567.7 c 79.9,492.9 530.7,892.5 1006.9,892.5 h 4161.4 c 476.3,0 797.7,-399.6 717.8,-892.5 l -92,-567.7 c -35,-216.4 -233,-391.9 -442.1,-391.9"
         style="fill:#000000;fill-opacity:1;fill-rule:nonzero;stroke:none"
         id="path42" /><path
         d="m 12232.8,19642.1 c -465.1,0 -907,-392 -985,-873.9 l -92,-567.8 c -16.5,-101.6 7.1,-196 66.4,-265.7 55.1,-64.8 135.7,-100.4 226.9,-100.4 h 5128.8 c 198.4,0 387,167.4 420.3,373.2 l 92,567.8 c 38.8,239.9 -17.2,462.9 -157.7,628 -131,154 -322.2,238.8 -538.2,238.8 z M 16577.9,17790 h -5128.8 c -104.4,0 -196.9,41.2 -260.6,116 -67.8,79.8 -95,186.8 -76.4,301.5 l 92,567.8 c 81.4,502.3 542.9,911 1028.7,911 h 4161.5 c 229.2,0 432.4,-90.3 572,-254.3 149,-175.1 208.5,-410.9 167.6,-663.8 l -92,-567.8 c -36.7,-226.3 -244.8,-410.4 -464,-410.4"
         style="fill:#000000;fill-opacity:1;fill-rule:nonzero;stroke:none"
         id="path44" /><path
         d="m 16450.4,17812.1 h -5128.8 c -209.1,0 -350.2,175.5 -315.1,391.9 l 91.9,567.7 c 79.9,492.9 530.7,892.5 1007,892.5 h 4161.4 c 476.2,0 797.6,-399.6 717.7,-892.5 l -92,-567.7 c -35,-216.4 -233,-391.9 -442.1,-391.9"
         style="fill:#ffffff;fill-opacity:1;fill-rule:nonzero;stroke:none"
         id="path46" /><path
         d="m 12105.3,19642.1 c -465.1,0 -907,-392 -985,-873.9 l -92,-567.8 c -16.5,-101.6 7.1,-196 66.4,-265.7 55.1,-64.8 135.7,-100.4 226.9,-100.4 h 5128.8 c 198.4,0 387,167.4 420.3,373.2 l 92,567.8 c 38.8,239.9 -17.1,462.9 -157.7,628 -131,154 -322.2,238.8 -538.2,238.8 z M 16450.4,17790 h -5128.8 c -104.4,0 -196.9,41.2 -260.6,116 -67.8,79.8 -95,186.8 -76.4,301.5 l 92,567.8 c 81.4,502.3 542.9,911 1028.7,911 h 4161.5 c 229.2,0 432.4,-90.3 572,-254.3 149,-175.1 208.5,-410.9 167.6,-663.8 l -92,-567.8 c -36.7,-226.3 -244.8,-410.4 -464,-410.4"
         style="fill:#000000;fill-opacity:1;fill-rule:nonzero;stroke:none"
         id="path48" /><path
         d="m 14409.5,20534.5 c -166.7,0 -279.2,139.8 -251.2,312.4 27.9,172.5 185.7,312.4 352.5,312.4 166.7,0 279.1,-139.9 251.2,-312.4 -28,-172.6 -185.8,-312.4 -352.5,-312.4 z m 177.2,1093.4 c -535.9,0 -1043.1,-449.6 -1132.9,-1004.2 l -253.7,-1565.8 c -28.6,-176.6 86.5,-319.7 257.1,-319.7 h 1322.6 c 170.6,0 332.2,143.1 360.8,319.7 l 253.6,1565.8 c 89.9,554.6 -271.7,1004.2 -807.5,1004.2"
         style="fill:#000000;fill-opacity:1;fill-rule:nonzero;stroke:none"
         id="path50" /><path
         d="m 14510.8,21137.1 c -156.1,0 -304.4,-131.8 -330.6,-293.8 -13,-79.7 5.5,-153.6 51.9,-208.2 43,-50.6 106.1,-78.5 177.4,-78.5 156.1,0 304.4,131.8 330.6,293.8 13,79.8 -5.5,153.7 -51.9,208.2 -43.1,50.7 -106.1,78.5 -177.4,78.5 z m -101.3,-624.8 c -84.5,0 -159.5,33.5 -211.2,94.1 -54.9,64.6 -76.9,151.3 -61.8,244 29.5,182.5 197.4,331 374.3,331 84.5,0 159.5,-33.4 211.1,-94.1 55,-64.6 77,-151.2 61.9,-244 -29.5,-182.5 -197.4,-331 -374.3,-331 z m 177.2,1093.4 c -524.6,0 -1023.1,-442.1 -1111.1,-985.5 l -253.7,-1565.8 c -13.2,-81.8 5.7,-157.6 53.3,-213.6 44.2,-51.9 108.9,-80.5 182,-80.5 h 1322.6 c 160,0 312,135.1 338.9,301.2 l 253.7,1565.8 c 43.8,270.7 -19.4,522.4 -178,708.8 -148,173.9 -363.8,269.6 -607.7,269.6 z m 193.1,-2889.7 h -1322.6 c -86.3,0 -162.9,34.2 -215.7,96.1 -56.1,66 -78.6,154.6 -63.3,249.3 l 253.7,1565.9 c 91.4,563.9 609.4,1022.7 1154.8,1022.7 257.1,0 484.9,-101.3 641.4,-285.2 167.2,-196.4 233.9,-460.9 188,-744.6 l -253.7,-1565.8 c -30.2,-186.6 -201.9,-338.4 -382.6,-338.4"
         style="fill:#000000;fill-opacity:1;fill-rule:nonzero;stroke:none"
         id="path52" /><path
         d="m 14327,20534.5 c -166.7,0 -279.2,139.8 -251.2,312.4 27.9,172.5 185.8,312.4 352.5,312.4 166.7,0 279.1,-139.9 251.2,-312.4 -28,-172.6 -185.8,-312.4 -352.5,-312.4 z m 177.2,1093.4 c -535.9,0 -1043.1,-449.6 -1132.9,-1004.2 l -253.7,-1565.8 c -28.6,-176.6 86.5,-319.7 257.1,-319.7 h 1322.6 c 170.6,0 332.2,143.1 360.8,319.7 l 253.6,1565.8 c 89.9,554.6 -271.7,1004.2 -807.5,1004.2"
         style="fill:#ffffff;fill-opacity:1;fill-rule:nonzero;stroke:none"
         id="path54" /><path
         d="m 14428.3,21137.1 c -156.1,0 -304.4,-131.8 -330.6,-293.8 -13,-79.7 5.5,-153.6 51.9,-208.2 43,-50.6 106.1,-78.5 177.4,-78.5 156.1,0 304.4,131.8 330.6,293.8 13,79.7 -5.5,153.7 -51.9,208.2 -43.1,50.6 -106.1,78.5 -177.4,78.5 z m -101.3,-624.8 c -84.5,0 -159.5,33.5 -211.2,94.1 -54.9,64.6 -76.9,151.3 -61.8,244 29.5,182.5 197.4,331 374.3,331 84.5,0 159.5,-33.4 211.1,-94.1 55,-64.6 77,-151.2 61.9,-244 -29.5,-182.5 -197.4,-331 -374.3,-331 z m 177.2,1093.4 c -524.6,0 -1023.1,-442.1 -1111.1,-985.5 l -253.6,-1565.8 c -13.3,-81.8 5.6,-157.6 53.2,-213.6 44.2,-51.9 108.9,-80.5 182,-80.5 h 1322.6 c 160,0 312,135.1 338.9,301.2 l 253.7,1565.8 c 43.8,270.7 -19.4,522.4 -178,708.8 -148,173.9 -363.8,269.6 -607.7,269.6 z m 193.1,-2889.7 h -1322.6 c -86.3,0 -162.9,34.2 -215.7,96.2 -56.1,65.9 -78.6,154.5 -63.2,249.3 l 253.6,1565.8 c 91.4,563.9 609.4,1022.7 1154.8,1022.7 257.1,0 484.9,-101.3 641.4,-285.2 167.2,-196.4 233.9,-460.9 188,-744.6 l -253.7,-1565.8 c -30.2,-186.6 -201.8,-338.4 -382.6,-338.4"
         style="fill:#000000;fill-opacity:1;fill-rule:nonzero;stroke:none"
         id="path56" /><path
         d="m 20794.5,11350.6 115.5,-5381.2 -1473.7,-787 c -5.7,-3 -15.6,-0.9 -15.6,3.4 l -79.1,5405.6 c 0,0 1432,758.7 1452.9,759.2"
         style="fill:#ffffff;fill-opacity:1;fill-rule:nonzero;stroke:none"
         id="path58" /><path
         d="m 19363.9,10578.2 78.5,-5367.4 1445.2,771.7 -114.5,5334.2 c -154.2,-75.9 -897,-467.2 -1409.2,-738.5 z m 65.9,-5419.3 c -6.4,0 -12.8,1.5 -18.1,4.7 -8.1,4.7 -13.1,13 -13.2,21.9 l -79,5405.6 c -0.1,8.3 4.4,15.9 11.8,19.8 1436.5,761.2 1456.1,761.7 1462.6,761.8 4.9,0.3 11.6,-2 15.9,-6.1 4.2,-4 6.7,-9.6 6.8,-15.5 l 115.5,-5381.2 c 0.2,-8.3 -4.3,-16.1 -11.7,-20 l -1473.7,-787 c -5,-2.7 -10.9,-4 -16.9,-4"
         style="fill:#000000;fill-opacity:1;fill-rule:nonzero;stroke:none"
         id="path60" /><path
         d="m 19536.5,5277.9 -49.1,5457.4 -3249.3,1431.4 -3184.4,-1482.4 64.5,-5494.1 c 0.9,-76.7 65,-137.7 144,-137 l 6100.2,51.7 c 97.8,0.8 175.6,78 174.1,173"
         style="fill:#ffffff;fill-opacity:1;fill-rule:nonzero;stroke:none"
         id="path62" /><path
         d="m 13599.6,8539 c -35.2,0 -64.2,-28.9 -64.7,-64.3 l -9,-730.9 c -0.2,-17.3 6.2,-33.5 18.3,-45.7 11.8,-12 27.6,-18.6 44.5,-18.6 h 505.4 c 35.4,0 64.4,29.1 64.7,64.8 l 6.8,730.9 c 0.2,17.1 -6.3,33.2 -18.3,45.2 -11.8,12 -27.6,18.6 -44.5,18.6 z m 494.5,-903.7 h -505.4 c -28.8,0 -55.8,11.2 -76,31.7 -20.4,20.7 -31.5,48.2 -31.1,77.4 l 9.1,730.9 c 0.7,59.5 49.6,107.9 108.9,107.9 h 503.2 c 28.8,0 55.8,-11.2 76,-31.6 20.3,-20.5 31.3,-47.8 31.1,-76.8 l -6.8,-730.9 c -0.6,-59.9 -49.5,-108.6 -109,-108.6"
         style="fill:#000000;fill-opacity:1;fill-rule:nonzero;stroke:none"
         id="path64" /><path
         d="m 14399.7,8539 c -39.9,0 -72.7,-32.7 -73.1,-72.9 l -6.2,-713.4 c -0.2,-19.7 7.3,-38.2 21,-52 13.5,-13.7 31.5,-21.2 50.8,-21.2 h 487.9 c 40.1,0 73,33 73.2,73.5 l 4,713.5 c 0.1,19.4 -7.3,37.7 -20.9,51.4 -13.5,13.6 -31.6,21.1 -50.8,21.1 z m 480.4,-903.7 h -487.9 c -31.1,0 -60.3,12.1 -82.2,34.2 -22.1,22.3 -34.2,52 -33.9,83.5 l 6.3,713.5 c 0.5,64.4 53.2,116.7 117.3,116.7 h 485.9 c 31.1,0 60.3,-12.1 82.2,-34.1 22,-22.1 34,-51.6 33.8,-82.9 l -4,-713.5 c -0.4,-64.8 -53.1,-117.4 -117.5,-117.4"
         style="fill:#000000;fill-opacity:1;fill-rule:nonzero;stroke:none"
         id="path66" /><path
         d="m 13562.9,7534.4 c -21.8,0 -39.8,-18.1 -40.1,-40.2 l -9.8,-787.5 c -0.1,-10.9 3.9,-21.1 11.4,-28.7 7.3,-7.4 17.1,-11.5 27.5,-11.5 h 557.1 c 21.9,0 40,18.3 40.2,40.6 l 7.3,787.6 c 0.1,10.7 -3.9,20.7 -11.4,28.2 -7.3,7.4 -17,11.5 -27.4,11.5 z m 546.1,-912.1 h -557.1 c -22.4,0 -43.3,8.7 -59,24.6 -15.9,16.1 -24.4,37.5 -24.2,60.3 l 9.8,787.5 c 0.6,46.3 38.5,84 84.4,84 h 554.8 c 22.3,0 43.2,-8.8 58.9,-24.6 15.8,-16 24.4,-37.2 24.2,-59.8 l -7.4,-787.6 c -0.4,-46.5 -38.3,-84.4 -84.4,-84.4"
         style="fill:#000000;fill-opacity:1;fill-rule:nonzero;stroke:none"
         id="path68" /><path
         d="m 14393.8,7534.4 c -41.5,0 -75.6,-34.2 -76,-76.2 l -6.2,-715.2 c -0.2,-20.6 7.6,-40 21.9,-54.5 14.1,-14.2 32.8,-22 52.7,-22 h 485.3 c 41.7,0 75.9,34.5 76.1,76.9 l 4,715.2 c 0.2,20.4 -7.6,39.5 -21.9,53.9 -14,14.1 -32.7,21.9 -52.6,21.9 z m 477.7,-912.1 h -485.3 c -31.8,0 -61.7,12.4 -84.1,35.1 -22.7,22.9 -35.1,53.5 -34.8,86 l 6.3,715.2 c 0.5,66.2 54.5,120.1 120.2,120.1 h 483.3 c 31.8,0 61.6,-12.5 84,-35 22.6,-22.8 35,-53.1 34.8,-85.4 l -4,-715.2 c -0.4,-66.6 -54.4,-120.8 -120.4,-120.8"
         style="fill:#000000;fill-opacity:1;fill-rule:nonzero;stroke:none"
         id="path70" /><path
         d="m 17724.5,8539 c -16.9,0 -32.7,-6.6 -44.6,-18.6 -12,-12 -18.5,-28.1 -18.4,-45.2 l 4.8,-730.9 c 0.3,-35.7 29.2,-64.7 64.6,-64.7 h 505.3 c 16.9,0 32.8,6.6 44.7,18.6 12,12.1 18.6,28.4 18.4,45.7 l -7.1,730.9 c -0.4,35.4 -29.3,64.2 -64.4,64.2 z m 511.7,-903.7 h -505.3 c -59.7,0 -108.4,48.8 -108.8,108.7 l -4.9,730.9 c -0.2,29 10.9,56.2 31.3,76.7 20.2,20.4 47.2,31.6 76,31.6 h 503.3 c 59.3,0 108.1,-48.4 108.6,-107.9 l 7.2,-730.9 c 0.2,-29.3 -10.9,-56.8 -31.3,-77.4 -20.3,-20.4 -47.3,-31.7 -76.1,-31.7"
         style="fill:#000000;fill-opacity:1;fill-rule:nonzero;stroke:none"
         id="path72" /><path
         d="m 18524.6,8539 c -19.2,0 -37.1,-7.5 -50.6,-21.1 -13.5,-13.7 -20.8,-31.9 -20.7,-51.3 l 7.4,-713.5 c 0.4,-40.5 33.4,-73.5 73.6,-73.5 h 488 c 19.2,0 37.2,7.5 50.6,21.1 13.6,13.8 21,32.2 20.7,51.9 l -9.5,713.5 c -0.6,40.2 -33.5,72.9 -73.6,72.9 z m 497.7,-903.7 h -488 c -64.3,0 -117.2,52.6 -117.9,117.4 l -7.3,713.4 c -0.3,31.4 11.6,60.8 33.5,83 21.8,22 50.9,34.1 82,34.1 h 485.9 c 64.1,0 117,-52.3 117.8,-116.5 l 9.6,-713.5 c 0.4,-31.6 -11.5,-61.3 -33.5,-83.6 -21.8,-22.1 -51,-34.3 -82.1,-34.3"
         style="fill:#000000;fill-opacity:1;fill-rule:nonzero;stroke:none"
         id="path74" /><path
         d="m 17707,7534.4 c -10.4,0 -20.2,-4.1 -27.5,-11.4 -7.5,-7.6 -11.6,-17.6 -11.5,-28.4 l 5.2,-787.5 c 0.2,-22.3 18.1,-40.5 40.1,-40.5 h 557.1 c 10.3,0 20.1,4 27.5,11.4 7.5,7.7 11.6,17.8 11.5,28.8 l -7.7,787.5 c -0.2,22.1 -18.1,40.1 -40,40.1 z m 563.4,-912.1 h -557.1 c -46.2,0 -84,37.9 -84.4,84.5 l -5.2,787.5 c -0.1,22.7 8.6,43.9 24.4,59.9 15.7,15.8 36.6,24.5 58.9,24.5 h 554.7 c 46,0 83.8,-37.7 84.3,-84 l 7.7,-787.5 c 0.2,-22.8 -8.5,-44.2 -24.4,-60.3 -15.7,-15.9 -36.6,-24.6 -58.9,-24.6"
         style="fill:#000000;fill-opacity:1;fill-rule:nonzero;stroke:none"
         id="path76" /><path
         d="m 18537.8,7534.4 c -19.8,0 -38.4,-7.7 -52.4,-21.8 -14.2,-14.4 -21.9,-33.5 -21.7,-53.9 l 7.4,-715.2 c 0.4,-42.4 34.7,-76.9 76.5,-76.9 h 485.4 c 19.8,0 38.5,7.7 52.4,21.9 14.3,14.4 22,33.8 21.7,54.4 l -9.5,715.3 c -0.6,42 -34.9,76.2 -76.4,76.2 z m 495.2,-912.1 h -485.4 c -65.9,0 -120.1,54.2 -120.8,120.7 l -7.3,715.2 c -0.4,32.4 11.9,62.7 34.5,85.5 22.3,22.6 52.1,35 83.8,35 h 483.4 c 65.6,0 119.8,-53.8 120.6,-120 l 9.6,-715.2 c 0.4,-32.5 -11.8,-63.1 -34.4,-86.1 -22.4,-22.6 -52.2,-35.1 -84,-35.1"
         style="fill:#000000;fill-opacity:1;fill-rule:nonzero;stroke:none"
         id="path78" /><path
         d="m 15767.4,11259.5 c -34.5,0 -62.6,-27.8 -62.7,-61.9 l -1.3,-551.5 c -0.1,-16.5 6.4,-32.1 18.1,-43.8 11.8,-11.9 27.6,-18.4 44.5,-18.4 h 449.3 c 16.8,0 32.6,6.5 44.5,18.3 11.8,11.7 18.3,27.4 18.3,44 l -0.2,551.5 c -0.1,34.1 -28.1,61.8 -62.6,61.8 z m 447.9,-719.9 H 15766 c -28.7,0 -55.7,11.2 -75.9,31.4 -20,20.2 -31.1,46.9 -31,75.2 l 1.4,551.6 c 0.1,58.4 48.1,105.9 106.9,105.9 h 447.9 c 58.9,0 106.8,-47.5 106.8,-106 l 0.3,-551.5 c 0,-28.5 -11.2,-55.3 -31.4,-75.4 -20.2,-20.1 -47.1,-31.2 -75.7,-31.2"
         style="fill:#000000;fill-opacity:1;fill-rule:nonzero;stroke:none"
         id="path80" /><path
         d="m 16500,11259.5 c -19.1,0 -36.9,-7.3 -50.3,-20.7 -13.4,-13.2 -20.7,-30.8 -20.7,-49.6 l 0.5,-534.5 c 0,-39 32.1,-70.8 71.5,-70.8 h 432.2 c 19.1,0 37.1,7.4 50.5,20.9 13.3,13.3 20.6,31 20.5,49.8 l -2,534.5 c -0.2,38.8 -32.2,70.4 -71.4,70.4 z m 433.2,-719.9 H 16501 c -63.8,0 -115.7,51.6 -115.8,115.1 l -0.5,534.5 c 0,30.6 12,59.4 33.8,81.1 21.8,21.6 50.7,33.4 81.5,33.4 h 430.8 c 63.5,0 115.4,-51.3 115.6,-114.4 l 2.1,-534.5 c 0.1,-30.6 -11.8,-59.5 -33.4,-81.2 -21.8,-21.9 -50.9,-34 -81.9,-34"
         style="fill:#000000;fill-opacity:1;fill-rule:nonzero;stroke:none"
         id="path82" /><path
         d="m 15741.6,10459.3 c -21.3,0 -38.7,-17.2 -38.8,-38.3 l -1.4,-604.1 c 0,-10.3 3.9,-19.9 11.2,-27.2 7.3,-7.3 17,-11.4 27.4,-11.4 h 499.7 c 10.4,0 20.1,4.1 27.4,11.4 7.4,7.3 11.4,17 11.4,27.3 l -0.3,604.1 c 0,21.1 -17.3,38.2 -38.6,38.2 z m 498.1,-725.2 H 15740 c -22.2,0 -43.1,8.6 -58.8,24.3 -15.6,15.7 -24.2,36.5 -24.1,58.6 l 1.5,604.1 c 0.1,45.5 37.3,82.5 83,82.5 h 498 c 45.7,0 82.9,-37 82.9,-82.5 l 0.2,-604.1 c 0.1,-22.2 -8.6,-43 -24.3,-58.7 -15.6,-15.6 -36.5,-24.2 -58.7,-24.2"
         style="fill:#000000;fill-opacity:1;fill-rule:nonzero;stroke:none"
         id="path84" /><path
         d="m 16503.5,10459.3 c -19.8,0 -38.3,-7.6 -52.2,-21.5 -13.9,-13.8 -21.6,-32.2 -21.5,-51.8 l 0.5,-533.7 c 0,-40.8 33.3,-74 74.2,-74 h 429 c 19.9,0 38.4,7.7 52.4,21.7 13.9,14 21.5,32.5 21.4,52.1 l -2,533.8 c -0.2,40.5 -33.5,73.4 -74.2,73.4 z m 430,-725.2 h -429 c -65.3,0 -118.4,53 -118.5,118.1 l -0.5,533.8 c 0,31.4 12.2,61 34.5,83.2 22.3,22.2 52,34.4 83.5,34.4 h 427.6 c 65,0 118.2,-52.7 118.4,-117.5 l 2.1,-533.8 c 0.1,-31.5 -12.1,-61.2 -34.4,-83.5 -22.3,-22.4 -52,-34.7 -83.7,-34.7"
         style="fill:#000000;fill-opacity:1;fill-rule:nonzero;stroke:none"
         id="path86" /><path
         d="m 13261,5031 c -90.1,0 -163.9,71 -164.9,158.9 l -64.5,5494.1 c -0.2,8.7 4.9,16.7 12.7,20.3 l 3184.4,1482.5 c 5.6,2.6 12,2.8 17.8,0.4 l 3247.7,-1329.5 c 8.4,-3.4 13.8,-11.5 13.8,-20.5 l -2.6,-2041.6 c -0.1,-12.2 -10,-22.1 -22.2,-22.1 -12.2,0 -22.1,9.9 -22.1,22.2 l 2.6,2026.7 -3225.1,1320.2 -3162.6,-1472.3 64.4,-5479.9 c 0.7,-63.7 54.7,-115.1 120.6,-115.1 0.3,0 0.7,0 1.1,0 l 6100.1,51.7 c 42.4,0.4 81.6,16.8 110.5,46.4 27.5,28.1 42.3,65.1 41.7,104.1 l -37.7,2485.8 c -0.1,12.2 9.6,22.3 21.8,22.5 13.2,-0.4 22.3,-9.6 22.5,-21.8 l 37.7,-2485.8 c 0.7,-50.9 -18.5,-99.1 -54.3,-135.7 -37.2,-38.1 -87.6,-59.3 -141.9,-59.8 L 13262.4,5031 c -0.4,0 -0.9,0 -1.4,0"
         style="fill:#000000;fill-opacity:1;fill-rule:nonzero;stroke:none"
         id="path88" /><path
         d="m 17086.7,5030.7 h -1498.8 c -90.5,0 -163.7,74.9 -163.4,167.2 l 12.2,3447.5 c 0.3,89.4 72.8,161.7 161.8,161.7 h 1473 c 89.1,0 161.6,-72.3 162,-161.7 l 16.4,-3447.5 c 0.4,-92.3 -72.6,-167.2 -163.2,-167.2"
         style="fill:#000000;fill-opacity:1;fill-rule:nonzero;stroke:none"
         id="path90" /><path
         d="m 17047.7,5166.4 h -1413.8 c -60.3,0 -109.1,49.8 -108.9,111.3 l 10.2,3318 c 0.2,59.6 48.5,107.9 107.9,107.9 h 1391.1 c 59.3,0 107.7,-48.3 107.9,-107.9 l 14.4,-3318 c 0.3,-61.5 -48.4,-111.3 -108.8,-111.3"
         style="fill:#ffffff;fill-opacity:1;fill-rule:nonzero;stroke:none"
         id="path92" /><path
         d="m 15643.1,8681.5 c -47.1,0 -85.6,-38.5 -85.7,-85.8 l -10.3,-3318.1 c -0.1,-24.2 9.2,-46.8 26.1,-63.7 16.3,-16.4 37.9,-25.4 60.7,-25.4 h 1413.8 c 22.9,0 44.5,9 60.7,25.3 16.9,17 26.1,39.6 26,63.8 l -14.4,3318.1 c -0.2,47.3 -38.7,85.8 -85.8,85.8 z m 1404.6,-3537.3 h -1413.8 c -34.7,0 -67.4,13.7 -92.1,38.4 -25.2,25.3 -39,59.1 -38.9,95.2 l 10.2,3318 c 0.2,71.7 58.5,130 130,130 h 1391.1 c 71.4,0 129.8,-58.3 130.1,-130 l 14.4,-3318 c 0.1,-36.1 -13.7,-69.9 -38.9,-95.2 -24.6,-24.7 -57.4,-38.4 -92.1,-38.4"
         style="fill:#000000;fill-opacity:1;fill-rule:nonzero;stroke:none"
         id="path94" /><path
         d="m 17114.1,5144.2 h -1546.5 c -17.4,0 -33.8,6.8 -46,19.1 -12.3,12.3 -19,28.6 -18.9,45.9 l 10.6,3453.1 c 0.1,35 29.1,63.5 64.6,63.5 h 1521.5 c 35.5,0 64.4,-28.5 64.6,-63.5 l 7.5,-1733.9 c 0,-12.3 -9.8,-22.2 -22,-22.3 -0.1,0 -0.1,0 -0.1,0 -12.2,0 -22.1,9.9 -22.2,22.1 l -7.5,1733.9 c 0,10.7 -9.2,19.4 -20.3,19.4 h -1521.5 c -11.2,0 -20.3,-8.7 -20.3,-19.4 l -10.7,-3453 c 0,-5.5 2.1,-10.6 6,-14.5 3.9,-3.9 9.1,-6.1 14.7,-6.1 h 1546.5 c 5.5,0 10.7,2.2 14.6,6.1 3.9,3.8 6,9 6,14.5 l -5.1,1180.8 c -0.1,12.2 9.8,22.1 22,22.2 h 0.1 c 12.2,0 22.1,-9.8 22.1,-22 l 5.1,-1180.9 c 0.1,-17.3 -6.6,-33.6 -18.8,-45.9 -12.3,-12.3 -28.6,-19.1 -46,-19.1"
         style="fill:#000000;fill-opacity:1;fill-rule:nonzero;stroke:none"
         id="path96" /><path
         d="m 17446.3,5074 h -2210.2 c -42.7,0 -77.2,35.3 -77,78.9 l 0.8,176.7 c 0.2,43.5 35,78.7 77.7,78.7 h 2206.8 c 42.7,0 77.5,-35.2 77.7,-78.7 l 1.1,-176.7 c 0.3,-43.6 -34.2,-78.9 -76.9,-78.9"
         style="fill:#ffffff;fill-opacity:1;fill-rule:nonzero;stroke:none"
         id="path98" /><path
         d="m 15237.6,5386.2 c -30.5,0 -55.4,-25.4 -55.5,-56.7 l -0.9,-176.8 c -0.1,-15.4 5.8,-29.8 16.5,-40.6 10.3,-10.3 23.9,-16 38.4,-16 h 2210.2 c 14.4,0 28,5.7 38.3,16 10.7,10.8 16.6,25.2 16.5,40.6 l -1.1,176.8 c -0.2,31.3 -25.1,56.7 -55.6,56.7 z m 2208.7,-334.4 h -2210.2 c -26.3,0 -51.1,10.4 -69.8,29.1 -19.1,19.2 -29.5,44.8 -29.3,72.1 l 0.8,176.7 c 0.3,55.6 45,100.8 99.8,100.8 h 2206.8 c 54.7,0 99.5,-45.2 99.9,-100.7 l 1,-176.8 c 0.2,-27.3 -10.2,-52.9 -29.3,-72.1 -18.6,-18.7 -43.4,-29.1 -69.7,-29.1"
         style="fill:#000000;fill-opacity:1;fill-rule:nonzero;stroke:none"
         id="path100" /><path
         d="m 13482,9211.4 c -12.1,0 -22,9.8 -22.1,22 -0.1,12.2 9.7,22.2 21.9,22.3 l 5538.4,45.6 c 0,0 0.1,0 0.2,0 12.1,0 22,-9.8 22.1,-22 0.1,-12.2 -9.7,-22.2 -22,-22.3 l -5538.3,-45.6 c -0.1,0 -0.1,0 -0.2,0"
         style="fill:#000000;fill-opacity:1;fill-rule:nonzero;stroke:none"
         id="path102" /><path
         d="m 21204.1,11344.9 -2806,1579.7 c -34.3,19.3 -74.1,26.7 -112.9,20.9 L 16351.7,12571.9 12606.4,10785 c -25,-11.9 -28.3,-45.9 -6,-61.6 l 196.2,-138.1 c 32.7,-23 75.2,-27.4 112.5,-11.5 l 3450.5,1466.1 3285.5,-1508.3 c 39.1,-18 83.9,-17.7 122.3,0.6 l 426.1,203.7 -2.5,1.2 1006.4,472 c 58.7,23.4 62.7,104.3 6.7,135.8"
         style="fill:#ffffff;fill-opacity:1;fill-rule:nonzero;stroke:none"
         id="path104" /><path
         d="m 16359.6,12062.1 c 3.2,0 6.3,-0.7 9.2,-2.1 l 3285.5,-1508.3 c 33.2,-15.2 71,-15.1 103.5,0.5 l 416,198.8 c 2,2.6 4.7,4.7 7.8,6.1 l 1006.4,472 c 20.1,8.1 32.3,24.7 33.6,44.9 1.5,21.5 -9.2,40.8 -28.4,51.6 l -2805.9,1579.7 c -29.9,16.8 -65,23.3 -98.9,18.3 L 16358.7,12550.7 12616,10765 c -6.9,-3.2 -8.1,-9.3 -8.3,-11.7 -0.2,-2.8 0.2,-8.1 5.5,-11.8 l 196.2,-138.1 c 26.5,-18.7 60.5,-22.2 91,-9.3 l 3450.6,1466.2 c 2.7,1.2 5.7,1.8 8.6,1.8 z m 3346.2,-1566 c -23.8,0 -47.6,5.1 -70,15.4 l -3276.5,1504.2 -3441.6,-1462.3 c -44.6,-19 -94.7,-13.8 -133.8,13.8 l -196.2,138.1 c -16.8,11.8 -25.8,31.1 -24.1,51.7 1.8,20.9 14.2,38.9 33.3,48 l 3745.3,1786.8 c 1.7,0.8 3.5,1.4 5.3,1.8 l 1933.5,373.7 c 44.4,6.5 89.6,-1.8 128,-23.4 l 2805.9,-1579.7 c 34,-19.1 53.4,-54.8 50.9,-93.1 -2.5,-37.2 -25.6,-68.8 -60.2,-82.6 l -995,-466.7 c -2.1,-2.4 -4.6,-4.4 -7.6,-5.9 l -426.1,-203.7 c -22.4,-10.7 -46.7,-16.1 -71.1,-16.1"
         style="fill:#000000;fill-opacity:1;fill-rule:nonzero;stroke:none"
         id="path106" /><path
         d="m 20049.6,10765.8 -3570.7,1754.5 3570.7,-1754.5"
         style="fill:#000000;fill-opacity:1;fill-rule:nonzero;stroke:none"
         id="path108" /><path
         d="m 20049.6,10743.7 c -3.3,0 -6.6,0.7 -9.8,2.3 l -3570.6,1754.5 c -11,5.4 -15.5,18.6 -10.1,29.6 5.3,11 18.5,15.5 29.6,10.1 l 3570.7,-1754.5 c 10.9,-5.4 15.5,-18.6 10.1,-29.6 -3.9,-7.9 -11.7,-12.4 -19.9,-12.4"
         style="fill:#000000;fill-opacity:1;fill-rule:nonzero;stroke:none"
         id="path110" /><path
         d="m 4441.5,3741.4 543.02,44.3 -21.03,58.2 c -49.52,137 -71.44,282.4 -64.51,427.9 l 4.27,89.7 -388.41,-71.7 -73.34,-548.4"
         style="fill:#ffffff;fill-opacity:1;fill-rule:nonzero;stroke:none"
         id="path112" /><path
         d="m 4534.63,4271 -67.56,-505.3 486.79,39.7 -11.19,31 c -50.77,140.4 -72.9,287.3 -65.8,436.5 l 2.94,61.7 z m -93.14,-551.7 c -6.05,0 -11.84,2.4 -16.03,6.9 -4.63,4.8 -6.79,11.5 -5.9,18.1 l 73.33,548.5 c 1.27,9.5 8.5,17.1 17.92,18.8 l 388.41,71.6 c 6.66,1.3 13.51,-0.6 18.59,-5.1 5.08,-4.4 7.87,-11 7.55,-17.7 l -4.26,-89.6 c -6.83,-143.3 14.41,-284.4 63.2,-419.4 l 21.03,-58.2 c 2.33,-6.5 1.53,-13.7 -2.21,-19.5 -3.72,-5.8 -9.94,-9.5 -16.82,-10.1 l -543.01,-44.3 c -0.6,0 -1.19,0 -1.8,0"
         style="fill:#000000;fill-opacity:1;fill-rule:nonzero;stroke:none"
         id="path114" /><path
         d="m 5026.18,4053.6 c 31.32,-30 64.32,-64.4 90.15,-97 86.98,-109.8 327.44,-232.8 375.31,-248.6 35.96,-12 78.4,-29.9 112.14,-55.5 38.04,-28.9 57.03,-76.5 52.17,-123.9 l -2.36,-23.2 c -2.94,-28.6 -19.71,-54.1 -45.15,-67.6 -52.95,-28.1 -160.18,-68.1 -338.52,-65.6 -273.11,4 -525.31,43.5 -698.38,51.7 -173.07,8.1 -278.44,33.8 -325.63,99.8 -42.64,59.6 37.97,376.1 107.87,468.2 11.02,14.5 30.07,20.3 47.6,15.2 32.78,-9.4 90.44,-32.1 134.39,-82.5 41.57,-47.6 138.11,-85.5 225.32,-95.7 67.86,-7.9 128.95,42 135.59,110 2.19,22.4 4.79,46.9 7.75,71.2 7.22,59.3 78.68,84.8 121.75,43.5"
         style="fill:#ffffff;fill-opacity:1;fill-rule:nonzero;stroke:none"
         id="path116" /><path
         d="m 4388.72,3986.8 c -6.81,0 -13.3,-3 -17.32,-8.3 -72.66,-95.8 -138.71,-398.3 -107.48,-441.9 39.44,-55.2 131.75,-82.3 308.66,-90.6 67.04,-3.2 147.27,-11.2 232.21,-19.6 139.76,-13.9 298.14,-29.6 465.45,-32 177.6,-2.6 281.45,38.3 327.81,63 18.79,10 31.32,28.7 33.5,50.3 l 2.38,23.1 c 4.17,40.6 -12.51,80.5 -43.53,104 -26.46,20.1 -62.01,37.6 -105.73,52.2 -47.38,15.7 -294.03,140.1 -385.7,255.8 -22.12,28 -52.6,60.8 -88.11,94.8 -14.03,13.5 -33.27,17.7 -51.53,11.1 -18.26,-6.5 -30.56,-21.9 -32.94,-41.2 -2.94,-24.2 -5.51,-48.5 -7.69,-70.8 -3.81,-39.1 -22.76,-74.2 -53.36,-98.8 -30.35,-24.5 -68.17,-35.5 -106.82,-31 -97.97,11.5 -196.45,53.9 -239.43,103.2 -40.72,46.7 -95.06,67.5 -123.83,75.8 -2.16,0.6 -4.36,0.9 -6.54,0.9 z M 5286.58,3350 c -5.59,0 -11.24,0 -16.99,0.1 -169.17,2.5 -328.55,18.3 -469.16,32.3 -88.03,8.7 -164.05,16.2 -229.92,19.4 -194.5,9.1 -293.77,40.8 -342.6,109 -52.89,74 37.46,401.2 108.24,494.5 16.28,21.4 44.96,30.7 71.34,23.1 33.47,-9.6 96.77,-34 144.97,-89.2 35.79,-41.1 124.6,-78.2 211.21,-88.3 26.6,-3.1 52.88,4.5 73.89,21.4 21.27,17.2 34.43,41.6 37.09,68.7 2.22,22.7 4.84,47.3 7.8,71.8 4.37,35.8 28.15,65.5 62.01,77.6 33.87,12.1 71.07,4.1 97.04,-20.8 25.77,-24.7 62.66,-62 92.19,-99.3 82.19,-103.7 314.47,-224.6 364.94,-241.3 48.33,-16.1 88.21,-35.9 118.53,-58.9 43.23,-32.8 66.53,-87.9 60.82,-143.8 l -2.38,-23.1 c -3.7,-36.3 -24.94,-68 -56.8,-84.9 -59.24,-31.5 -164.44,-68.3 -332.22,-68.3"
         style="fill:#000000;fill-opacity:1;fill-rule:nonzero;stroke:none"
         id="path118" /><path
         d="m 5192.61,3476.8 c -375.26,0 -803.14,76.3 -827.45,80.7 -12.04,2.2 -20.02,13.7 -17.86,25.7 2.19,12.1 13.71,20.2 25.72,17.9 8.02,-1.5 805.86,-143.8 1173.74,-44.4 11.72,3.1 23.95,-3.8 27.15,-15.6 3.18,-11.8 -3.8,-23.9 -15.6,-27.1 -100.46,-27.2 -229.62,-37.2 -365.7,-37.2"
         style="fill:#000000;fill-opacity:1;fill-rule:nonzero;stroke:none"
         id="path120" /><path
         d="m 6259.43,3869.3 522.87,45.1 -20.53,56 c -48.31,131.7 -70.09,271.7 -64.07,411.9 l 3.71,86.4 -373.82,-70.8 -68.16,-528.6"
         style="fill:#ffffff;fill-opacity:1;fill-rule:nonzero;stroke:none"
         id="path122" /><path
         d="m 6347.5,4379.2 -62.61,-485.5 466.65,40.3 -10.54,28.8 c -49.59,135.2 -71.59,276.6 -65.41,420.5 l 2.51,58.4 z m -88.08,-532.1 c -6,0 -11.77,2.5 -15.97,6.9 -4.65,4.8 -6.83,11.5 -5.98,18.1 l 68.16,528.7 c 1.24,9.4 8.43,17.1 17.86,18.9 l 373.8,70.7 c 6.62,1.3 13.47,-0.6 18.59,-5 5.1,-4.4 7.91,-10.9 7.63,-17.7 l -3.7,-86.4 c -5.92,-137.9 15.18,-273.6 62.72,-403.3 l 20.54,-56 c 2.37,-6.5 1.6,-13.7 -2.1,-19.5 -3.69,-5.8 -9.9,-9.6 -16.77,-10.1 l -522.87,-45.2 c -0.63,0 -1.28,-0.1 -1.91,-0.1"
         style="fill:#000000;fill-opacity:1;fill-rule:nonzero;stroke:none"
         id="path124" /><path
         d="m 6861.74,4187 c 32.71,-29.9 67.24,-64.3 94.42,-97 91.49,-110.1 340.1,-230 389.39,-245.1 37.03,-11.3 80.81,-28.7 115.91,-54 39.55,-28.6 60.08,-76.7 56.25,-125.4 l -1.87,-23.7 c -2.3,-29.3 -18.84,-55.7 -44.51,-70.1 -53.43,-30 -162.04,-73.5 -344.31,-75.1 -279.14,-2.4 -537.76,31.9 -714.79,36.1 -177.03,4.3 -285.31,28 -335.09,94.3 -44.99,59.9 29.83,385.2 99.06,481 10.9,15 30.24,21.4 48.26,16.6 33.72,-8.8 93.17,-30.6 139.28,-81.1 43.61,-47.7 143.15,-84.1 232.5,-92.4 69.53,-6.5 130.76,46 135.91,115.6 1.71,23 3.78,48 6.23,73 5.96,60.7 78.36,88.5 123.36,47.3"
         style="fill:#ffffff;fill-opacity:1;fill-rule:nonzero;stroke:none"
         id="path126" /><path
         d="m 6212.59,4104.1 c -7.33,0 -14.29,-3.3 -18.46,-9.1 -72.06,-99.7 -132.29,-410.7 -99.29,-454.7 41.71,-55.5 136.81,-81.1 317.91,-85.4 68.56,-1.7 150.73,-7.9 237.73,-14.5 143.12,-10.8 305.53,-23.1 476.34,-21.6 181.18,1.6 286.83,45.9 333.69,72.2 19.08,10.7 31.51,30.4 33.26,52.6 l 1.88,23.7 c 3.29,41.7 -14.78,82.2 -47.16,105.6 -27.21,19.7 -65.06,37.3 -109.43,50.9 -48.76,14.9 -303.56,136.1 -399.93,252.1 -23.37,28.1 -55.29,60.9 -92.34,94.8 0,0 0,0 -0.02,0 -14.78,13.5 -34.77,17.3 -53.39,10.2 -18.69,-7.2 -31.01,-23.4 -32.97,-43.4 -2.43,-24.7 -4.48,-49.6 -6.19,-72.5 -2.96,-39.8 -21.42,-76 -52,-101.9 -30.33,-25.6 -68.56,-37.8 -108.03,-34 -100.28,9.3 -201.78,50.3 -246.8,99.5 -42.8,46.8 -98.9,66.9 -128.56,74.6 -2.07,0.6 -4.17,0.9 -6.24,0.9 z m 885.65,-629.7 c -162.14,0 -315.16,11.6 -451.09,21.9 -90.17,6.8 -168.05,12.7 -235.46,14.3 -198.76,4.8 -300.82,34.6 -352.26,103.1 -55.69,74.2 28.77,410.3 98.82,507.2 15.97,22.1 44.83,32.2 71.82,25.2 34.37,-9.1 99.53,-32.4 150,-87.6 37.63,-41.2 129.4,-77.1 218.23,-85.4 27.65,-2.6 54.19,5.9 75.35,23.8 21.42,18.1 34.36,43.5 36.44,71.4 1.71,23.2 3.8,48.4 6.27,73.5 3.58,36.5 27.03,67.3 61.2,80.4 34.07,13.1 72.09,5.8 99.12,-18.9 26.85,-24.6 65.39,-61.7 96.51,-99.1 86.54,-104.2 326.86,-222.2 378.84,-238.1 49.64,-15.2 90.82,-34.5 122.39,-57.3 44.81,-32.4 69.86,-87.9 65.37,-145 l -1.88,-23.7 c -2.92,-37 -23.76,-69.8 -55.75,-87.7 -61.74,-34.7 -173.44,-76.3 -354.95,-77.9 -9.69,-0.1 -19.35,-0.1 -28.97,-0.1"
         style="fill:#000000;fill-opacity:1;fill-rule:nonzero;stroke:none"
         id="path128" /><path
         d="m 6984.64,3604.4 c -400.82,0 -813.01,76 -836.31,80.3 -12.02,2.3 -19.95,13.9 -17.7,25.9 2.27,12 13.92,19.9 25.83,17.7 7.67,-1.5 771.34,-142.2 1226.04,-44.7 12.02,2.6 23.72,-5.1 26.28,-17 2.58,-12 -5.03,-23.8 -16.98,-26.3 -122.07,-26.2 -263.9,-35.9 -407.16,-35.9"
         style="fill:#000000;fill-opacity:1;fill-rule:nonzero;stroke:none"
         id="path130" /><path
         d="m 5673.01,8421.8 c 55.72,-163.2 268.06,-1264.7 327.62,-1696.2 54.19,-392.5 139.22,-2069 155.26,-2350.4 1.38,-24.3 21.49,-43.2 45.84,-43.2 h 629.92 c 23.59,0 43.34,17.9 45.69,41.3 29.29,291.8 207.91,2157.2 180.64,2947.5 -29.78,863 -416.98,1889.6 -491.44,2172.4 -74.46,282.7 -166.77,951.8 -166.77,951.8 l -1848.5,-277.8 c 0,0 -233.45,-1938.8 -263.24,-2325.7 -29.78,-386.8 -88,-1638.3 -13.54,-2307.9 48.24,-433.8 84.47,-1058.1 102.04,-1208.6 8.15,-69.8 67.33,-122.4 137.68,-122.4 h 491.92 c 25.15,0 45.6,20.1 45.92,45.2 2.24,180.6 29.09,1100.2 144.4,1689.2 134.04,684.4 282.96,1755.7 357.42,2187.2 24.62,142.7 45.98,306.6 63.56,461.9 0,0 -0.15,-1 55.58,-164.3"
         style="fill:#ffffff;fill-opacity:1;fill-rule:nonzero;stroke:none"
         id="path132" /><path
         d="m 4571.24,10147.8 c -22.95,-191 -233.19,-1945.1 -261.13,-2308 -29.49,-382.8 -87.45,-1639.9 -13.62,-2303.7 29.63,-266.5 55.14,-610 73.74,-860.8 12.05,-162 21.55,-290 28.28,-347.8 6.85,-58.6 56.58,-102.8 115.71,-102.8 h 491.9 c 12.95,0 23.63,10.5 23.8,23.4 0.13,10.2 16.28,1036.6 144.81,1693.1 87.32,446 181.04,1056.6 256.31,1547.2 40.29,262.6 75.09,489.3 101.02,639.6 21.68,125.7 42.99,280.5 63.31,460.1 0.02,0.2 0.04,0.5 0.07,0.7 1.47,12.1 12.64,20.8 24.55,19.3 9.27,-1.1 16.51,-7.7 18.8,-16.2 0.85,-2.7 7.33,-22.8 55.16,-162.9 55.98,-164 267.88,-1260.5 328.59,-1700.4 46.77,-338.7 115.61,-1615.4 145,-2160.6 4.65,-86.1 8.22,-152.4 10.45,-191.5 0.71,-12.5 11.15,-22.3 23.75,-22.3 h 629.9 c 12.28,0 22.46,9.1 23.67,21.3 2.1,20.9 209.63,2101.8 180.56,2944.5 -23.74,687.2 -277.28,1485.6 -413.49,1914.5 -34.75,109.5 -62.2,195.9 -77.25,253 -66.29,251.7 -147.42,813.7 -164.17,932.3 z m 434.88,-5967.4 h -491.9 c -81.59,0 -150.23,61.1 -159.67,142 -6.85,58.7 -16.39,187.1 -28.45,349.7 -18.59,250.4 -44.07,593.4 -73.61,859.1 -74.18,667 -16.06,1928.1 13.48,2312 29.48,383 260.98,2307.3 263.32,2326.7 1.19,9.9 8.84,17.7 18.69,19.2 l 1848.49,277.8 c 5.84,0.9 11.81,-0.7 16.54,-4.2 4.75,-3.5 7.87,-8.8 8.66,-14.7 0.94,-6.7 92.99,-671 166.26,-949.2 14.78,-56.1 42.08,-142 76.64,-250.9 136.86,-430.9 391.59,-1233.1 415.52,-1926.4 29.2,-845.6 -178.63,-2929.4 -180.73,-2950.4 -3.51,-34.9 -32.62,-61.2 -67.72,-61.2 h -629.9 c -36.05,0 -65.9,28.1 -67.93,64 -2.25,39.3 -5.82,105.6 -10.47,191.7 -29.37,544.7 -98.14,1820 -144.63,2156.9 -60.52,438.4 -271.16,1529.6 -326.65,1692.2 -9.55,28 -17.52,51.3 -24.14,70.8 -16.92,-139.5 -34.45,-261.9 -52.24,-365 -25.85,-149.9 -60.62,-376.4 -100.87,-638.8 -75.36,-491 -169.15,-1102.1 -256.64,-1549 -127.79,-652.7 -143.85,-1675 -143.99,-1685.2 -0.47,-37 -31.01,-67.1 -68.06,-67.1"
         style="fill:#000000;fill-opacity:1;fill-rule:nonzero;stroke:none"
         id="path134" /><path
         d="m 5629.35,8443.9 c -0.82,0 -1.67,0 -2.51,0.1 -12.14,1.4 -20.88,12.4 -19.49,24.5 12.49,110.5 22.13,210.3 29.11,284.8 13.62,145 88.68,278 205.93,364.8 9.82,7.3 23.67,5.2 30.95,-4.6 7.29,-9.8 5.21,-23.7 -4.62,-31 -107.14,-79.3 -175.74,-200.8 -188.17,-333.3 -7.03,-74.8 -16.68,-174.8 -29.24,-285.6 -1.28,-11.4 -10.85,-19.7 -21.96,-19.7"
         style="fill:#000000;fill-opacity:1;fill-rule:nonzero;stroke:none"
         id="path136" /><path
         d="m 4546.99,9311.8 c -12,0 -21.85,9.6 -22.13,21.6 -0.29,12.3 9.4,22.4 21.61,22.7 229.52,5.3 336.28,233.1 371.54,330.8 4.12,11.5 16.79,17.5 28.33,13.3 11.48,-4.1 17.44,-16.8 13.29,-28.3 -38.34,-106.3 -155.25,-354.1 -412.12,-360.1 -0.18,0 -0.35,0 -0.52,0"
         style="fill:#000000;fill-opacity:1;fill-rule:nonzero;stroke:none"
         id="path138" /><path
         d="m 6507.27,9349 c -0.82,0 -1.67,0 -2.51,0.1 -289.86,32.9 -281.6,365.4 -281.47,368.8 0.41,12.2 11.37,21 22.86,21.3 12.19,-0.4 21.77,-10.6 21.36,-22.8 -0.39,-12.1 -6.77,-295 242.22,-323.3 12.15,-1.4 20.88,-12.3 19.49,-24.5 -1.27,-11.3 -10.85,-19.6 -21.95,-19.6"
         style="fill:#000000;fill-opacity:1;fill-rule:nonzero;stroke:none"
         id="path140" /><path
         d="m 4260.31,9872.6 c -3.9,-71.9 28.94,-339.3 44.47,-501.4 8.52,-88.9 38.87,-174.3 88.09,-248.8 23.03,-34.8 31.56,-56.1 44.6,-72.5 14.51,-18.3 1.99,-45.3 -21.32,-46.5 l -101.21,-17 c 0,0 -70.4,60.9 -69.7,50.2 46.48,-714.7 -352.05,-433.1 -335.88,-16.2 5.36,138.1 96.25,204.1 100.35,260.1 8.23,112.1 -38.75,216.1 -48.51,369.7 -6.38,100.4 306.88,365.9 299.11,222.4"
         style="fill:#ffffff;fill-opacity:1;fill-rule:nonzero;stroke:none"
         id="path142" /><path
         d="m 4230.14,9892.2 c -8.58,0 -26.91,-4.4 -58.28,-23.5 -91.03,-55.5 -191.49,-171.2 -188.57,-217.1 4.32,-68.2 15.99,-125.6 27.25,-181 13.36,-65.6 25.96,-127.5 21.23,-191.8 -1.97,-26.7 -17.88,-52.3 -36.31,-81.9 -27.13,-43.6 -60.89,-97.8 -63.98,-177.4 -7.13,-183.9 69.62,-340.9 147.94,-386.6 25.66,-15 48.79,-16.3 68.76,-3.9 22.86,14.1 95.85,85.2 74.97,406.2 -0.58,8.9 4.74,18.4 12.71,22.4 12.13,6 18.98,9.3 85.66,-47.6 l 90.95,15.3 c 0.86,0.1 1.75,0.2 2.61,0.3 3.59,0.1 5.19,2.5 5.82,3.9 0.75,1.7 1.21,4.1 -0.76,6.6 -7.8,9.8 -13.98,20.7 -21.14,33.4 -6.51,11.5 -13.87,24.5 -24.59,40.7 -51.14,77.4 -82.85,166.9 -91.65,258.9 -4.29,44.8 -9.91,97.6 -15.71,152.2 -15.6,146.9 -31.75,298.7 -28.85,352.5 0.63,11.6 -1.62,16.7 -2.79,17.5 -0.88,0.5 -2.61,0.9 -5.27,0.9 z M 4119.39,8576.4 c -20.27,0 -41.39,6.1 -62.25,18.3 -88.38,51.5 -177.94,218.5 -169.88,426.5 3.55,91.3 42.32,153.6 70.61,199.1 15.35,24.6 28.59,45.9 29.76,61.8 4.26,58.2 -7.2,114.5 -20.44,179.7 -11.05,54.2 -23.56,115.7 -28.08,187 -4.75,75.1 123.05,204.8 209.69,257.7 48.42,29.5 85.2,37.2 109.31,22.8 12.12,-7.3 26.17,-23.2 24.31,-57.8 -2.72,-50.3 13.94,-207.2 28.64,-345.5 5.81,-54.7 11.45,-107.7 15.76,-152.7 8.12,-84.8 37.34,-167.3 84.5,-238.7 11.59,-17.5 19.69,-31.8 26.22,-43.3 6.48,-11.5 11.61,-20.5 17.24,-27.6 11.87,-15 14.34,-35.1 6.43,-52.5 -7.74,-17 -23.95,-28.3 -42.52,-29.8 l -100.07,-16.8 c -6.5,-1.1 -13.14,0.7 -18.15,5.1 -9.84,8.5 -20.84,17.6 -30.82,25.6 9.4,-219 -24.32,-358.3 -98.17,-404 -16.15,-9.9 -33.76,-14.9 -52.09,-14.9"
         style="fill:#000000;fill-opacity:1;fill-rule:nonzero;stroke:none"
         id="path144" /><path
         d="m 5018.45,12031.1 c -85.9,-25 -302.03,-3.9 -471.67,-230.1 -205.2,-273.6 -214.02,-1052.7 -204.62,-1388 6.53,-232.9 61.74,-512.2 52.84,-631.9 -11.24,-151.3 -125.64,-253.3 -275.5,-276.7 0,0 -230.61,-45.5 -360.51,278.3 -103.1,257 -245.25,990.1 -207.05,1720.5 41.41,791.7 795.66,1707.1 1786.52,1441 l -320.01,-913.1"
         style="fill:#000000;fill-opacity:1;fill-rule:nonzero;stroke:none"
         id="path146" /><path
         d="m 6145.22,11815 c 197.76,-175 464.28,-747.6 525.29,-1089.3 42.38,-237.4 56.96,-521.7 83.04,-644.5 49.52,-233.1 225.08,-260 225.08,-260 158.7,-25.2 330.98,31.7 355.12,193.9 39.21,263.4 17.02,1083.8 -47.93,1410.7 -195.31,982.9 -953.02,1885.3 -1799.12,1604.9 l -123.12,-717.1 c 5.97,-1.8 391.3,-153.2 781.64,-498.6"
         style="fill:#000000;fill-opacity:1;fill-rule:nonzero;stroke:none"
         id="path148" /><path
         d="m 7001.92,9338 c 0.42,-26.3 1.7,-57.5 18.49,-103.6 l 121.05,-359.8 c 8.83,-26.3 36.82,-40.9 63.41,-33.1 27.6,8.1 43.26,37.1 34.83,64.6 l -43.1,140.5 c -11.31,27.5 14.1,56.3 42.62,47.9 90.67,-26.6 201.3,-193.5 201.3,-193.5 0,0 35.42,-68.3 66.26,-78 l 8.05,-2.4 c 32.1,-9.6 63.62,20.8 57.22,55.1 l -64.5,333 c -7.96,42.7 -29.91,80.7 -62.14,107.5 l -146.61,118.6 c -87.85,81.6 -44.26,385.7 -44.26,385.7 23.65,94.7 -95.51,138.3 -159.43,154.7 -66.47,16.9 -137.6,-16.6 -161.07,-81 -4.66,-12.8 -7.42,-26.3 -7.95,-40.3 l 75.83,-515.9"
         style="fill:#ffffff;fill-opacity:1;fill-rule:nonzero;stroke:none"
         id="path150" /><path
         d="m 7229.18,9118.1 c 5.4,0 10.87,-0.7 16.27,-2.3 97.31,-28.6 208.81,-195.5 213.52,-202.6 0.43,-0.6 0.82,-1.3 1.19,-2 15.11,-29.1 40.09,-62.9 53.21,-67 l 7.81,-2.4 c 10.13,-3 17.8,2.6 20.66,5.2 7,6.3 10.16,15.5 8.45,24.7 l -64.47,332.8 c -7.03,37.7 -26.4,71.3 -54.56,94.7 l -146.38,118.4 c -94.78,88 -56.87,373.7 -52.24,406 0.1,0.8 0.26,1.5 0.43,2.2 18.63,74.7 -81.87,112.2 -143.43,127.9 -56.65,14.5 -115.83,-15 -134.8,-67.1 -3.76,-10.3 -5.94,-20.9 -6.55,-31.5 l 75.52,-513.9 c 0.15,-1 0.21,-1.9 0.23,-2.9 0.46,-27.2 2.1,-55 17.17,-96.3 l 121.23,-360.4 c 5.06,-15 20.89,-23.3 36.2,-18.9 7.63,2.3 13.89,7.3 17.68,14.3 3.76,7 4.56,15.1 2.22,22.6 l -43.09,140.5 c -7.87,18.9 -3.83,42.2 11.23,58.9 11.16,12.4 26.55,19.1 42.5,19.1 z m 297.81,-321.4 c -6.18,0 -12.41,0.9 -18.5,2.7 l -8.04,2.4 c -37.03,11.6 -71.15,72.9 -79.02,87.9 -30.21,45.3 -120.99,163.8 -188.43,183.6 -7.09,2 -11.74,-2 -13.4,-3.9 -1.75,-1.9 -5.46,-7.2 -2.52,-14.3 l 43.78,-142.5 c 5.84,-19 3.85,-39.1 -5.57,-56.6 -9.43,-17.5 -25.14,-30.2 -44.2,-35.8 -38.11,-11.1 -77.94,9.6 -90.61,47.3 l -121.05,359.9 c -16.95,46.4 -19.09,79.3 -19.63,108.8 l -75.6,514.5 c -0.2,1.4 -0.28,2.7 -0.22,4.1 0.59,15.9 3.72,31.8 9.27,47 26.63,73.1 108.85,114.9 187.33,94.8 131.26,-33.5 195.21,-99.2 175.74,-180.3 -11.63,-82.3 -27.21,-305.1 37.54,-365.3 l 145.48,-117.6 c 36.31,-30.2 61.08,-73 69.96,-120.7 l 64.47,-332.7 c 4.61,-24.7 -3.77,-49.3 -22.36,-65.9 -12.63,-11.4 -28.41,-17.4 -44.42,-17.4"
         style="fill:#000000;fill-opacity:1;fill-rule:nonzero;stroke:none"
         id="path152" /><path
         d="m 3802.31,12249.4 c 0,0 639.47,1151.3 2141.67,844 1502.2,-307.3 607.84,-3219.6 607.84,-3219.6 l -2173.8,4.9 -575.71,2370.7"
         style="fill:#000000;fill-opacity:1;fill-rule:nonzero;stroke:none"
         id="path154" /><path
         d="m 4415.69,9794.9 c -0.07,0 -0.15,0 -0.24,0 -12.21,0.1 -22.02,10.1 -21.9,22.3 1.04,100.8 -19.79,318.5 -38.18,510.5 -5.15,53.6 -10.1,105.4 -14.4,152.6 -36.89,405.9 -1.19,801 103.31,1142.4 3.59,11.7 15.91,18.3 27.65,14.7 11.67,-3.5 18.26,-15.9 14.67,-27.6 -102.81,-336.1 -137.93,-725.2 -101.54,-1125.5 4.28,-47.1 9.23,-98.9 14.35,-152.4 18.5,-193.1 39.47,-412 38.41,-515.1 -0.13,-12.2 -10.01,-21.9 -22.13,-21.9"
         style="fill:#ffffff;fill-opacity:1;fill-rule:nonzero;stroke:none"
         id="path156" /><path
         d="m 5155.69,10806.2 c -6.33,0 -12.62,2.7 -17.01,8 -7.82,9.3 -6.59,23.3 2.81,31.1 269.73,225.4 511.76,532.1 699.93,887.3 5.73,10.8 19.17,14.9 29.91,9.2 10.81,-5.8 14.94,-19.2 9.21,-30 -190.82,-360.1 -436.59,-671.5 -710.69,-900.4 -4.13,-3.5 -9.17,-5.2 -14.16,-5.2"
         style="fill:#ffffff;fill-opacity:1;fill-rule:nonzero;stroke:none"
         id="path158" /><path
         d="m 5152.2,13771.3 c -1.35,-8 -5.58,-358 -20.33,-491.7 -8.19,-74.3 -34.37,-145.4 -76.26,-207.4 l -77.77,-114.9 c 74.75,-24.5 175.63,-39.6 335.23,-27.7 162.77,12.2 286.55,64 357.1,100 -13.44,18 -33.42,40.6 -61.74,61.7 -44.65,33.2 -88.92,46.8 -116.26,52.9 19.39,98.7 22.74,460.5 42.12,559.3 l -382.09,67.8"
         style="fill:#ffffff;fill-opacity:1;fill-rule:nonzero;stroke:none"
         id="path160" /><path
         d="m 5013.11,12969.9 c 80.77,-21.5 176.6,-27.3 298.31,-18.2 113.01,8.4 221.86,37.1 323.9,85.4 -12.15,13.4 -25.57,25.6 -40.1,36.4 -31.99,23.8 -68.28,40.3 -107.83,49 -11.74,2.6 -19.26,14.1 -16.94,25.9 9.38,47.8 15.13,164.1 20.68,276.5 5.14,104.1 10.03,203.2 17.85,260.6 l -335.5,59.5 c -0.22,-9.1 -0.48,-20.1 -0.74,-31.8 -2.46,-108.3 -7.58,-333.6 -18.86,-436 -8.56,-77.5 -36.21,-152.7 -79.95,-217.4 z m 194.65,-66.6 c -92.27,0 -169.08,10.8 -236.8,32.9 -6.61,2.2 -11.82,7.3 -14.07,13.9 -2.25,6.6 -1.28,13.8 2.62,19.6 l 77.76,114.9 c 39.73,58.8 64.84,127 72.6,197.5 11.09,100.5 16.16,324.5 18.63,432.1 1.26,55.2 1.36,57.7 1.9,60.8 0.98,5.8 4.26,11 9.08,14.4 4.8,3.4 10.74,4.7 16.6,3.7 l 382.08,-67.8 c 5.84,-1.1 11.02,-4.4 14.4,-9.3 3.35,-4.9 4.6,-10.9 3.46,-16.8 -9.38,-47.8 -15.14,-164 -20.69,-276.5 -5.19,-105 -10.12,-204.9 -18.05,-262.1 37.85,-10.8 72.89,-28.1 104.35,-51.5 25.16,-18.8 47.45,-41 66.27,-66.3 3.89,-5.2 5.3,-11.9 3.8,-18.2 -1.47,-6.4 -5.68,-11.8 -11.5,-14.7 -114.41,-58.4 -237.37,-92.8 -365.5,-102.4 -37.89,-2.8 -73.44,-4.2 -106.94,-4.2"
         style="fill:#000000;fill-opacity:1;fill-rule:nonzero;stroke:none"
         id="path162" /><path
         d="m 5483.32,14232.4 c -30.51,40.5 -67.65,75.1 -113.72,95.3 -31.67,13.8 -66.07,20.2 -100.32,24.9 -50.6,6.9 -102.32,9 -153.13,3 -21.19,-2.5 -45.63,-13.7 -66.02,-14.1 -22.57,-0.5 -48.05,16 -69.25,22.8 -34.82,11.1 -72.98,13.8 -107.94,3.1 -34.94,-10.7 -66.17,-35.8 -80.14,-69.6 -18.58,-44.9 -5.11,-96.3 -11.38,-144.5 -8.36,-64.2 -51.73,-127.5 -31.05,-188.8 11.4,-33.9 40.18,-58.4 67.7,-81.2 36.03,-29.8 70.06,-63.4 112.06,-83.9 75.16,-36.7 157.27,-20.8 237,-32.6 68.07,-10.1 113.53,-66.3 148.76,-120.7 11.47,-17.7 15.83,-42 21.17,-62.1 12.31,-46.2 21.35,-97.4 58.81,-131 45.29,-40.5 157.35,-68.1 348.24,2.7 29.8,11.1 47.72,41.6 42.26,73 -7.26,41.7 -16.75,94.8 -30.13,144.8 0,95.5 -62.01,195.4 -114.29,270.3 -45.82,65.5 -73.68,141.7 -111.04,212.4 -13.86,26.3 -29.57,52.3 -47.59,76.2"
         style="fill:#ffffff;fill-opacity:1;fill-rule:nonzero;stroke:none"
         id="path164" /><path
         d="m 5778.37,13673.5 h 0.22 z m -858.59,678.6 c -12.95,0 -26.61,-1.7 -40.35,-5.9 -30.59,-9.4 -55.33,-30.6 -66.18,-56.9 -9.71,-23.4 -9.02,-50.6 -8.28,-79.5 0.49,-19.3 0.99,-39.3 -1.62,-59.3 -3.24,-25.1 -11.13,-49.3 -18.78,-72.6 -12.43,-38 -24.17,-73.9 -13.23,-106.4 9.01,-26.7 31.88,-47.2 60.84,-71.2 7.91,-6.5 15.75,-13.2 23.58,-20 27.64,-23.8 53.75,-46.2 84.08,-61 44.95,-22 93.56,-23.3 145.02,-24.8 27.88,-0.8 56.72,-1.6 85.51,-5.8 77.95,-11.5 128.64,-75.8 164.08,-130.5 11.35,-17.5 16.56,-38.6 21.14,-57.2 l 7.31,-28.5 c 10.2,-40.1 19.84,-78 47.72,-103 43.51,-38.9 151.96,-57.5 325.8,7 19.91,7.4 31.73,27.7 28.14,48.4 -7.69,44.2 -16.96,95.3 -29.69,142.8 -0.5,1.9 -0.76,3.8 -0.76,5.8 0,88.4 -58.94,184.1 -110.29,257.6 -31.15,44.6 -54.26,93.8 -76.62,141.4 -11.41,24.4 -23.24,49.5 -35.86,73.4 -14.83,28.1 -29.78,52 -45.69,73.2 -32.06,42.5 -66.38,71.4 -104.93,88.3 -30.15,13.2 -63.23,19 -94.46,23.3 -52.8,7.2 -102.47,8.2 -147.55,2.9 -7.74,-0.9 -16.75,-3.4 -26.3,-6.1 -13.64,-3.9 -27.73,-7.9 -41.82,-8.2 -20.37,0 -39.28,8.2 -56.31,15.7 -6.98,3.1 -13.77,6.2 -20.14,8.2 -14.42,4.6 -33.46,8.9 -54.36,8.9 z m 615.66,-962.2 c -91.82,0 -138.2,32.2 -154.34,46.6 -37.94,34 -50.23,82.4 -61.11,125.1 l -4.32,16.7 c -1.04,3.9 -2.03,8 -3.04,12.1 -3.94,16 -8.02,32.4 -15.31,43.7 -32.27,49.8 -73.36,101.9 -133.44,110.8 -26.17,3.9 -52.45,4.6 -80.27,5.4 -53.9,1.5 -109.63,3.1 -163.18,29.2 -35.45,17.3 -65,42.7 -93.55,67.3 -7.6,6.5 -15.21,13.1 -22.93,19.4 -27.1,22.5 -60.82,50.4 -74.57,91.2 -15.6,46.4 -1.01,91 13.12,134.2 7.33,22.5 14.25,43.6 16.97,64.6 2.17,16.6 1.71,34.1 1.26,52.5 -0.82,32.2 -1.67,65.4 11.62,97.6 15.82,38.3 51.01,69 94.11,82.2 37.09,11.4 79.06,10.3 121.16,-3.1 7.76,-2.5 16.06,-6.1 24.58,-9.9 13.44,-6 27.08,-12.5 37.48,-11.9 8.41,0.2 19.73,3.4 30.67,6.5 10.8,3 21.98,6.2 33.21,7.5 48.81,5.7 102.22,4.7 158.71,-3.1 32.77,-4.5 71.01,-11.1 106.21,-26.6 45.06,-19.7 86.28,-54.1 122.53,-102.2 17.33,-23 33.52,-48.9 49.47,-79.1 13.12,-24.8 25.16,-50.5 36.79,-75.3 22.56,-48 43.85,-93.4 72.81,-134.8 54.53,-78.1 117.06,-180.3 118.27,-280.1 12.82,-48.5 22.11,-99.6 29.83,-144 7.24,-41.6 -16.45,-82.6 -56.37,-97.4 -90.47,-33.6 -161.54,-45.1 -216.37,-45.1"
         style="fill:#000000;fill-opacity:1;fill-rule:nonzero;stroke:none"
         id="path166" /><path
         d="m 5331.9,14060.6 c 3.32,-15.6 38.39,-37.9 50.25,-48.2 0,0 33.91,-230.9 61.82,-309.2 27.92,-78.3 276.93,-10.2 276.93,-10.2 l 3.6,77.5 50.07,26.5 c 10.07,5.3 13.47,18 7.3,27.6 -41.34,64.1 -74.84,134 -94.79,207.9 -21.02,77.7 -20.28,159.2 -45.28,236.3 -19.74,60.9 -54.51,118.9 -107.38,155 -52.42,35.7 -117.72,47 -181.09,50.2 -141.33,7.1 -238.06,-32.4 -329.48,-139.3 -6.27,-7.3 -12.65,-14.9 -15.71,-24.1 -6.73,-20.1 8.44,-36.5 26.1,-43.4 26.24,-10.3 55.62,-4.2 83.52,-0.1 45.38,6.6 91.64,7.1 137.16,1.6 33.28,-4 67.06,-11.7 94.85,-30.4 27.79,-18.7 48.67,-50.5 46.87,-83.9 -1.13,-20.9 -10.71,-40.7 -23.07,-57.1 -4.73,-6.3 -41.01,-29.5 -41.69,-32.3 -0.33,-1.4 -0.31,-2.8 0.02,-4.4"
         style="fill:#ffffff;fill-opacity:1;fill-rule:nonzero;stroke:none"
         id="path168" /><path
         d="m 5353.56,14065.2 h 0.22 z m 6.18,-6.4 c 7.16,-6.8 18.01,-15 23.65,-19.3 5.38,-4.1 10.11,-7.7 13.33,-10.5 3.96,-3.4 6.58,-8.2 7.33,-13.4 0.35,-2.3 33.91,-229.6 60.78,-305 12.97,-36.3 139.71,-24 234.72,-0.3 l 2.83,61.3 c 0.37,7.8 4.84,14.9 11.78,18.5 l 47.47,25.1 c -44.53,69.5 -76.8,140.7 -95.93,211.5 -9.96,36.9 -15.21,74.6 -20.29,111.1 -6.01,43.3 -11.71,84.2 -24.66,124.2 -14.46,44.6 -43.32,105.6 -98.8,143.5 -40.85,27.8 -94.77,42.6 -169.73,46.4 -135.32,6.8 -225.78,-31.3 -311.56,-131.6 -4.8,-5.6 -9.77,-11.4 -11.54,-16.7 -3.11,-9.3 13.03,-15.8 13.21,-15.8 17.89,-7.1 39.9,-3.7 63.13,-0.2 l 9.12,1.4 c 47.38,6.9 95.47,7.4 143,1.7 28.31,-3.5 69.96,-10.7 104.56,-34.1 36.98,-24.9 58.68,-64.6 56.61,-103.4 -1.26,-23 -10.74,-46.9 -27.47,-69.2 -4.18,-5.6 -11.63,-11.1 -28.88,-23.4 -0.91,-0.6 -1.79,-1.2 -2.66,-1.8 z m 183.85,-415.4 c -56,0 -106.17,12.3 -120.46,52.4 -25.54,71.7 -55.04,261.4 -61.59,304.7 -1.52,1.2 -3.16,2.4 -4.87,3.7 -23.9,18.1 -42.51,33.4 -46.42,51.8 -1,4.8 -0.97,9.5 0.09,14.1 2.33,9.5 7.43,13.1 26.43,26.6 6.54,4.7 17.53,12.5 20.08,15 7,9.5 16.72,25.9 17.68,43.8 1.25,23.1 -13.34,48.4 -37.14,64.4 -20.57,13.9 -46.83,22.2 -85.13,26.8 -43.62,5.3 -87.8,4.8 -131.32,-1.5 l -8.82,-1.3 c -26.72,-4.1 -57,-8.7 -85.96,2.6 -32.16,12.7 -48.57,42.6 -39.01,71.1 4.51,13.5 13.03,23.5 19.86,31.5 94.58,110.5 198.61,154.5 347.46,147 83.41,-4.2 144.55,-21.4 192.42,-54.1 65.81,-44.8 99.38,-115.2 115.96,-166.4 14.16,-43.6 20.38,-88.4 26.41,-131.7 5.1,-36.7 9.92,-71.4 19.2,-105.7 18.15,-67.2 49.12,-135.1 92.02,-201.6 6.27,-9.8 8.2,-21.8 5.26,-33 -2.96,-11.2 -10.55,-20.7 -20.84,-26.2 l -38.88,-20.5 -3.01,-64.9 c -0.45,-9.6 -7.02,-17.8 -16.27,-20.3 -25.51,-7 -109.41,-28.3 -183.15,-28.3"
         style="fill:#000000;fill-opacity:1;fill-rule:nonzero;stroke:none"
         id="path170" /><path
         d="m 5352.49,13853.1 c 0,0 -63.73,145.7 -117.13,108.1 -53.4,-37.6 20.38,-196.7 117.13,-108.1"
         style="fill:#ffffff;fill-opacity:1;fill-rule:nonzero;stroke:none"
         id="path172" /><path
         d="m 5777.57,13871.1 c -5.47,0 -10.95,2 -15.23,6 -8.86,8.5 -9.23,22.5 -0.83,31.3 2.82,3 6.17,6.4 9.86,10.1 23.56,23.6 62.96,63.2 62.51,102.5 -0.41,33.8 -7.29,66.6 -18.87,89.7 -8.8,17.6 -19.76,28.5 -28.66,28.5 -0.05,0 -0.09,0 -0.13,0 -15.61,-0.2 -36.44,-32.3 -42.92,-83.9 -1.52,-12.1 -12.3,-20.7 -24.73,-19.2 -12.13,1.5 -20.7,12.6 -19.2,24.7 9.3,74 43.17,122.1 86.29,122.7 27.94,-0.1 51.67,-18.5 68.92,-53 14.7,-29.3 23.07,-68.1 23.56,-109 0.67,-57.8 -46.94,-105.7 -75.39,-134.3 -3.43,-3.4 -6.53,-6.5 -9.12,-9.2 -4.36,-4.6 -10.2,-6.9 -16.06,-6.9"
         style="fill:#000000;fill-opacity:1;fill-rule:nonzero;stroke:none"
         id="path174" /><path
         d="m 5575.92,14130.1 c -0.15,0 -0.3,0 -0.43,0 -36.68,-0.5 -68.15,-59 -67.35,-125.3 v 0 c 0.41,-35.1 9.08,-67.7 24.4,-91.7 7.61,-12 23.6,-31.9 45.43,-31.9 0.13,0 0.29,0 0.44,0 36.67,0.4 68.14,59 67.37,125.3 -0.41,35.1 -9.08,67.6 -24.41,91.7 -7.61,11.9 -23.6,31.9 -45.45,31.9 z m 2.01,-293.2 c -31.84,0 -61.19,18.6 -82.74,52.4 -19.69,30.9 -30.8,71.7 -31.31,114.9 -1.15,94.6 47.63,169.3 111.05,170.1 31.79,0.5 61.98,-18.2 83.77,-52.3 19.71,-30.9 30.82,-71.8 31.34,-115 1.1,-94.6 -47.68,-169.3 -111.07,-170.1 -0.35,0 -0.69,0 -1.04,0"
         style="fill:#000000;fill-opacity:1;fill-rule:nonzero;stroke:none"
         id="path176" /><path
         d="m 5492.73,14047.4 c -0.04,0 -0.11,0 -0.15,0 l -115.8,0.8 c -12.24,0.1 -22.07,10.1 -21.99,22.3 0.09,12.2 9.99,22 22.13,22 0.05,0 0.12,0 0.15,0 l 115.81,-0.9 c 12.24,-0.1 22.07,-10 21.98,-22.3 -0.09,-12.1 -9.98,-21.9 -22.13,-21.9"
         style="fill:#000000;fill-opacity:1;fill-rule:nonzero;stroke:none"
         id="path178" /><path
         d="m 8952,14614.4 c -120.84,98 -186.78,221.1 -36.53,341 152.18,121.5 365.74,51.3 485.71,-81.2 82.72,-91.3 184.57,-454.1 -25.58,-458.8 -32,-0.7 -63.28,9 -93.42,19.7 -82.69,29.6 -226.6,95.2 -330.18,179.3"
         style="fill:#ffffff;fill-opacity:1;fill-rule:nonzero;stroke:none"
         id="path180" /><path
         d="m 8965.93,14631.5 c 97.37,-79 235.24,-143.9 323.7,-175.5 25.94,-9.3 56.8,-18.8 85.48,-18.5 43.77,1 72.82,19.5 88.77,56.6 44.37,103.1 -24.98,305.5 -79.11,365.3 -114.33,126.2 -315.94,190.2 -455.5,78.7 -51.96,-41.5 -78.39,-85 -78.56,-129.5 -0.22,-55.3 38.55,-114.8 115.22,-177.1 z m 406.31,-238.3 c -35.53,0 -68.88,10.9 -97.52,21.1 -91.75,32.8 -234.96,100.4 -336.67,182.9 v 0 c -87.6,71 -131.89,142.2 -131.61,211.6 0.22,58.5 32.25,113.7 95.21,163.9 159.85,127.7 387.88,57.8 515.93,-83.6 61.36,-67.8 140.3,-288.6 86.96,-412.5 -22.87,-53.1 -67.29,-82 -128.43,-83.3 -1.3,0 -2.58,-0.1 -3.87,-0.1"
         style="fill:#000000;fill-opacity:1;fill-rule:nonzero;stroke:none"
         id="path182" /><path
         d="m 9807.05,13928.3 c 24.75,24 50.92,46.9 78.39,68.6 108.7,85.9 245.16,139.4 342.66,236.6 118.7,118.6 126.8,271.5 10.5,395.3 -105.4,112.2 -279.19,163.6 -445.47,166.1 -95.87,1.4 -202.09,-14.4 -278.93,-66 -78.53,-52.8 -95.36,-148.8 -179.19,-196.1 -84.95,-48.1 -212.65,-23.5 -308.2,-36 -153.08,-19.9 -262.19,-140.7 -313.03,-266.4 -54.89,-135.8 27.59,-208.3 150.19,-282 158,-95 219,-249.2 370.98,-343.7 174.65,-108.6 325.09,-37.5 405.39,107.5 43.43,78.4 99.87,151.3 166.71,216.1"
         style="fill:#ffffff;fill-opacity:1;fill-rule:nonzero;stroke:none"
         id="path184" /><path
         d="m 9125.26,14478.9 c -34.24,0 -66.57,-0.2 -95.59,-4 -150.32,-19.6 -251.15,-143.4 -295.37,-252.8 -46.47,-115 13.72,-178.2 141.07,-254.7 83.56,-50.2 140.81,-116.3 196.2,-180.1 53.17,-61.3 103.38,-119.2 175.07,-163.8 72.65,-45.1 142.61,-59.5 208.06,-42.4 66.09,17.2 125.14,67.5 166.27,141.8 44.26,79.9 101.67,154.4 170.66,221.3 25.24,24.5 52.17,48.1 80.09,70.1 47,37.1 99.23,68.4 149.78,98.7 70.2,42.1 136.5,81.9 190.9,136.2 112.2,112 116.1,251.6 10.1,364.4 -92.5,98.5 -249.08,156.5 -429.68,159.1 -77.29,1.1 -186.7,-8.7 -266.28,-62.2 -33.79,-22.7 -55.31,-54.8 -78.11,-88.9 -26.59,-39.7 -54.08,-80.7 -102.54,-108.1 -61.36,-34.7 -139.1,-34.4 -214.19,-34.6 -2.16,0 -4.3,0 -6.44,0 z m 275.9,-948.9 c -57.88,0 -118.34,18.9 -177.9,55.9 -77.36,48.2 -132.15,111.3 -185.15,172.4 -55.54,64 -108.02,124.5 -185.52,171.1 -115.76,69.6 -223.42,150.8 -159.31,309.3 48.88,120.9 161.45,258 330.68,280.1 33.7,4.4 69.75,4.3 107.76,4.3 69.56,-0.1 141.2,0 192.39,28.9 39.31,22.2 62.74,57.2 87.55,94.3 24.16,36 49.15,73.4 90.19,100.9 89.1,60 207.77,70.9 291.61,69.8 192.54,-2.9 360.64,-65.9 461.34,-173.1 122.2,-130.1 117.8,-297.3 -11.1,-426 -58.2,-58.1 -130,-101.2 -199.5,-142.8 -49.3,-29.6 -100.28,-60.2 -145.03,-95.5 -26.75,-21.2 -52.56,-43.7 -76.72,-67.2 -65.86,-63.9 -120.6,-134.8 -162.75,-210.9 -47.08,-85 -115.94,-143 -193.88,-163.3 -21.05,-5.4 -42.66,-8.2 -64.66,-8.2"
         style="fill:#000000;fill-opacity:1;fill-rule:nonzero;stroke:none"
         id="path186" /><path
         d="m 10508.6,5334.9 178.6,-677.2 c 35.7,-135.3 45.1,-276.3 27.7,-415.2 l -35.7,-286.1 902,147.2 -116.5,85.9 c -202.4,149.1 -345.4,365.1 -403.5,609.7 l -155.2,653.3 -397.4,-117.6"
         style="fill:#ffffff;fill-opacity:1;fill-rule:nonzero;stroke:none"
         id="path188" /><path
         d="m 10535.5,5319.8 173.1,-656.4 c 36.6,-138.8 46.1,-281.3 28.3,-423.6 l -32.1,-256.8 820.9,134 -74.2,54.7 c -206.3,152 -352.6,373 -411.8,622.4 l -149.8,630.5 z m 143.7,-1385.5 c -5.7,0 -11.2,2.2 -15.4,6.2 -5,4.8 -7.4,11.8 -6.6,18.7 l 35.8,286.1 c 17.1,136.7 7.9,273.5 -27.2,406.8 l -178.6,677.2 c -3.1,11.5 3.6,23.4 15.1,26.8 l 397.4,117.6 c 5.8,1.7 12.1,1 17.4,-2.1 5.3,-3 9,-8.1 10.4,-14 l 155.2,-653.3 c 56.9,-239.2 197.2,-451.2 395.1,-597 l 116.5,-85.9 c 7.2,-5.2 10.5,-14.3 8.4,-23 -2.1,-8.6 -9.1,-15.2 -17.9,-16.6 l -902.1,-147.2 c -1.1,-0.2 -2.3,-0.3 -3.5,-0.3"
         style="fill:#000000;fill-opacity:1;fill-rule:nonzero;stroke:none"
         id="path190" /><path
         d="m 10591.4,3816.6 c -6.8,119.5 -8.5,357.5 69.5,506.8 13.9,26.6 45.9,38 73.7,26.9 l 206.4,-82.6 c 32.1,-12.8 66.9,10.8 66.9,45.3 v 14.1 c 0,20 15.7,36.5 35.6,37.5 l 177.8,9.3 c 66.4,3.5 132.5,-9 193.1,-36.2 183.9,-82.4 574.4,-277.1 667.7,-480.6 21.2,-46.3 -13.2,-99.1 -64.1,-101.4 -161.2,-7.2 -569,-20 -1348.7,-13.4 -41.5,0.4 -75.6,32.8 -77.9,74.3"
         style="fill:#ffffff;fill-opacity:1;fill-rule:nonzero;stroke:none"
         id="path192" /><path
         d="m 10712.5,4332.4 c -13.2,0 -25.6,-7 -32,-19.2 -74.7,-143.1 -74,-371.8 -67,-495.4 v 0 c 1.7,-29.7 26.3,-53.1 56,-53.3 767.6,-6.6 1173.8,5.5 1347.5,13.3 17.3,0.8 33,10.1 42,24.9 8.6,14.1 9.7,30.6 3,45.2 -91.3,199.1 -489.6,394.7 -656.6,469.6 -57.3,25.7 -120.5,37.6 -182.9,34.3 l -177.8,-9.3 c -8.2,-0.4 -14.6,-7.2 -14.6,-15.4 V 4313 c 0,-23.5 -11.7,-45.5 -31.2,-58.7 -19.5,-13.2 -44.2,-15.9 -66.1,-7.1 l -206.4,82.5 c -4.6,1.9 -9.3,2.7 -13.9,2.7 z m 375.4,-614.1 c -125.8,0 -265.1,0.6 -418.8,1.9 -53,0.4 -96.8,42.2 -99.8,95.1 -7.3,128.1 -7.7,365.9 72,518.4 19.1,36.6 62.8,52.7 101.5,37.1 l 206.4,-82.5 c 8.4,-3.4 17.5,-2.4 24.9,2.7 7.4,5 11.7,13 11.7,22 v 14.1 c 0,31.8 24.8,58 56.6,59.6 l 177.8,9.3 c 69.4,3.7 139.6,-9.5 203.3,-38.1 213.1,-95.5 584.7,-286.5 678.7,-491.6 12.8,-27.8 10.8,-60.2 -5.4,-86.6 -16.7,-27.5 -45.8,-44.7 -77.8,-46.1 -139.3,-6.3 -427.8,-15.3 -931.1,-15.3"
         style="fill:#000000;fill-opacity:1;fill-rule:nonzero;stroke:none"
         id="path194" /><path
         d="m 11316.4,3855.6 c -162,0 -360.5,3.8 -597.3,14.6 -12.2,0.6 -21.7,10.9 -21.1,23.1 0.6,12.2 11.1,21.4 23.1,21.1 779.8,-35.6 1141.9,5.2 1145.5,5.6 12.3,1.5 23.1,-7.3 24.6,-19.4 1.4,-12.1 -7.3,-23.1 -19.5,-24.5 -2.5,-0.3 -181.3,-20.5 -555.3,-20.5"
         style="fill:#000000;fill-opacity:1;fill-rule:nonzero;stroke:none"
         id="path196" /><path
         d="m 11519.2,4047.3 c -4.1,0 -8.3,1.2 -12.1,3.6 l -306.9,201.3 c -10.2,6.7 -13.1,20.4 -6.4,30.7 6.7,10.2 20.4,13 30.7,6.3 l 306.9,-201.2 c 10.2,-6.8 13.1,-20.5 6.4,-30.7 -4.3,-6.5 -11.3,-10 -18.6,-10"
         style="fill:#000000;fill-opacity:1;fill-rule:nonzero;stroke:none"
         id="path198" /><path
         d="M 8680.55,5220.5 8571.47,4454.7 H 8295.4 l 26.84,753.2 358.31,12.6"
         style="fill:#ffffff;fill-opacity:1;fill-rule:nonzero;stroke:none"
         id="path200" /><path
         d="m 8318.33,4476.9 h 233.94 l 102.64,720.5 -311.3,-10.9 z m 253.13,-44.3 h -276.07 c -6.01,0 -11.76,2.4 -15.93,6.8 -4.17,4.3 -6.39,10.1 -6.18,16.1 l 26.85,753.2 c 0.41,11.6 9.72,20.9 21.33,21.3 l 358.31,12.6 c 6.44,0.4 12.86,-2.5 17.24,-7.3 4.37,-4.9 6.38,-11.5 5.45,-17.9 l -109.09,-765.8 c -1.55,-10.9 -10.88,-19 -21.91,-19"
         style="fill:#000000;fill-opacity:1;fill-rule:nonzero;stroke:none"
         id="path202" /><path
         d="m 10463.4,10258.9 c 0,0 362,-2338.2 376.4,-2896.6 14.4,-558.3 246.7,-2247.9 246.7,-2247.9 0,0 -298.5,-110.8 -639.2,-33.3 0,0 -1068.55,2992 -1148.41,3909.3 -79.87,917.3 187.15,1337.2 187.15,1337.2 l 977.36,-68.7"
         style="fill:#000000;fill-opacity:1;fill-rule:nonzero;stroke:none"
         id="path204" /><path
         d="m 10109.3,10404.4 c 0,0 -1227.02,-3746.8 -1247.09,-5269.9 0,0 -270.4,-63.5 -659.13,0 0,0 -249.24,4181.6 469.16,5353.1 l 1437.06,-83.2"
         style="fill:#000000;fill-opacity:1;fill-rule:nonzero;stroke:none"
         id="path206" /><path
         d="m 8560.9,3742.1 c -112.96,-12.1 -271.39,-40.9 -513.25,-2.3 -70.76,11.3 -115.36,82.5 -95.95,151.5 51.14,181.8 158.18,517.5 293.72,693.4 9.81,12.8 29.9,9.3 35.11,-6 l 4.82,-31.6 c 2.89,-18.9 28.59,-22.7 36.78,-5.4 l 29.85,63.2 c 7.01,11.7 19.18,19.4 32.76,20.7 l 104.82,4 c 22.22,2.1 42.31,-13.3 46.18,-35.3 l 3.61,-49.8 c 1.4,-19.4 27.19,-24.9 36.45,-7.9 l 45.18,46.4 c 9.15,12.5 28.87,5.7 28.45,-9.7 l -5.38,-199 c -3.88,-143.8 6.55,-287.6 31.14,-429.3 l 12.37,-71.2 c 6.47,-65.7 -61,-124.6 -126.66,-131.7"
         style="fill:#ffffff;fill-opacity:1;fill-rule:nonzero;stroke:none"
         id="path208" /><path
         d="M 8259.9,4567.2 C 8128.34,4393.5 8023.82,4066 7973,3885.3 c -7.62,-27.1 -3.28,-56.3 11.91,-80.1 15.15,-23.7 38.69,-39.1 66.25,-43.5 208.05,-33.3 354.67,-15.7 461.73,-2.9 16.02,2 31.21,3.8 45.66,5.3 53.8,5.8 112.25,54 106.99,107.5 l -12.14,69.6 c -24.79,142.9 -35.38,288.8 -31.47,433.7 l 4.95,182.5 -33.48,-34.4 c -9.41,-14.3 -26.52,-21.4 -43.44,-17.7 -18.2,3.9 -31.34,19 -32.68,37.6 l -3.53,48.5 c -2.25,10.1 -11.6,17 -22.13,16.1 l -106.03,-4.1 c -5.35,-0.5 -11.26,-4.2 -14.64,-9.9 l -28.81,-61.2 c -7.89,-16.7 -25.46,-25.9 -43.57,-23.4 -18.22,2.7 -32.33,16.7 -35.1,34.9 z m 301.01,-825.1 h 0.22 z m -275.31,-43.9 c -70,0 -149.87,5.1 -241.44,19.8 -39.62,6.3 -74.81,29.4 -96.53,63.4 -22,34.4 -28.29,76.6 -17.24,115.9 52.08,185.2 159.98,522.4 297.5,700.9 9.47,12.3 24.9,18.4 40.27,15.9 15.47,-2.6 28.23,-13.4 33.3,-28.2 0.44,-1.2 0.74,-2.5 0.93,-3.8 l 3.51,-22.9 26.06,55.2 c 11.65,19.6 30.22,31.3 50.73,33.2 l 106.04,4.1 c 32.05,3.1 62.97,-20.4 68.79,-53.5 0.15,-0.7 0.24,-1.5 0.28,-2.3 l 3.11,-42.8 43.36,44.5 c 10.01,12.4 26.58,17.2 41.69,11.9 15.76,-5.4 26.05,-20.2 25.61,-36.8 l -5.38,-199 c -3.85,-142 6.53,-284.9 30.82,-424.9 l 12.36,-71.2 c 8.02,-81 -70.59,-149.4 -146.1,-157.5 -14.29,-1.5 -29.29,-3.3 -45.11,-5.2 -62.78,-7.5 -138.84,-16.7 -232.56,-16.7"
         style="fill:#000000;fill-opacity:1;fill-rule:nonzero;stroke:none"
         id="path210" /><path
         d="m 8325.63,3840.6 c -69.12,0 -151.64,8.1 -243.97,32.4 -11.83,3.1 -18.9,15.2 -15.78,27 3.09,11.8 15.17,18.9 27.02,15.8 258.62,-68 439.57,-1.4 441.36,-0.7 11.48,4.3 24.21,-1.4 28.53,-12.8 4.35,-11.5 -1.36,-24.2 -12.77,-28.6 -5.19,-2 -89.07,-33.1 -224.39,-33.1"
         style="fill:#000000;fill-opacity:1;fill-rule:nonzero;stroke:none"
         id="path212" /><path
         d="m 8450.58,4120.6 h -253.16 c -12.23,0 -22.13,9.9 -22.13,22.1 0,12.2 9.9,22.2 22.13,22.2 h 253.16 c 12.23,0 22.13,-10 22.13,-22.2 0,-12.2 -9.9,-22.1 -22.13,-22.1"
         style="fill:#000000;fill-opacity:1;fill-rule:nonzero;stroke:none"
         id="path214" /><path
         d="m 12256.8,13880.7 233.7,243.6 c 39.6,41.3 106.5,-5.2 81.5,-56.8 l -71.9,-148.4 c 0,0 49.1,-22.8 73.4,-24.3 53.3,-3.5 104.8,19.4 141.7,58 42.7,44.6 111.7,115.6 135.1,133 34.6,25.9 79.4,66.1 128.9,70.1 l 1.5,0.1 c 51.8,3.8 85.6,-53.2 57.4,-96.8 l -97.6,-151.1 c -70.9,-109.5 -174.9,-193.6 -296.9,-239.9 l -315.8,-119.8 -23.4,-900.4 -410.1,313.4 184.2,595.5 c 36.8,119 97.5,229.1 178.3,323.8"
         style="fill:#ffffff;fill-opacity:1;fill-rule:nonzero;stroke:none"
         id="path216" /><path
         d="m 11920,12969.6 363.4,-277.7 22.3,857.1 c 0.2,9 5.9,16.9 14.3,20.1 l 315.7,119.8 c 118.5,44.9 217.4,124.9 286.2,231.3 l 97.6,151 c 8.6,13.2 8.9,29.3 0.9,42.9 -8.1,13.6 -22.5,21.1 -38,19.8 -37.5,-3 -72.6,-30.1 -103.5,-54.1 -5.3,-4.1 -10.5,-8 -15.4,-11.7 -16.3,-12.2 -64.5,-59.8 -132.3,-130.6 -43,-44.9 -101.1,-68.5 -159.1,-64.8 -27.7,1.7 -75.9,23.8 -81.3,26.3 -5.4,2.5 -9.6,7.1 -11.5,12.7 -2.1,5.5 -1.7,11.7 0.9,17 l 71.9,148.5 c 7.7,15.9 0.3,28.7 -9.3,35.4 -9.5,6.6 -24.1,9.1 -36.4,-3.6 l -233.1,-243.1 c -79.2,-92.8 -137.6,-199 -173.7,-315.5 z m 384.4,-343.7 c -4.8,0 -9.5,1.5 -13.4,4.5 l -410.1,313.4 c -7.4,5.7 -10.5,15.3 -7.7,24.2 l 184.1,595.4 c 37.9,122.6 99.4,234.2 182.7,331.7 0.3,0.3 0.6,0.6 0.9,0.9 l 233.6,243.6 c 25.2,26.3 63.7,30.1 93.6,9.3 29.9,-20.8 39.7,-58.2 23.8,-91 l -61.8,-127.6 c 16.4,-6.5 34.9,-12.8 44.8,-13.5 45,-2.8 90.4,15.8 124.3,51.3 49.8,52 114.2,117.8 137.8,135.4 4.7,3.6 9.7,7.4 14.8,11.4 34,26.3 76.4,59.1 125.6,63.1 34.3,2.5 64.5,-13.4 81.1,-41.4 16.5,-27.9 15.9,-62.2 -1.8,-89.5 l -97.6,-151 c -74,-114.3 -180.4,-200.3 -307.7,-248.6 l -301.8,-114.5 -23.1,-885.6 c -0.2,-8.3 -5,-15.8 -12.5,-19.4 -3.1,-1.4 -6.3,-2.1 -9.6,-2.1"
         style="fill:#000000;fill-opacity:1;fill-rule:nonzero;stroke:none"
         id="path218" /><path
         d="m 12988.5,12415.1 -1142.2,797.1 c 0,0 -422.5,-523 -633.2,-544.1 -179.1,-18 -602.7,390.3 -725.6,513 -66.6,78.5 -158.2,134.3 -261.9,155.4 -236.78,48.3 -653.18,212.5 -1306.53,-30.6 0,0 -319.07,-181.3 -339.36,-445.6 -22.1,-287.9 182.71,-809.1 109.76,-1191.3 -133.4,-699.1 -286.42,-927.8 -362.76,-1501.1 0,0 -15.54,-393.5 176.45,-405.9 l 2046.34,-119 c 120.7,-4.6 268.2,589.6 281.8,709.7 18.9,168 19.3,465.5 -50.1,987.5 -12.3,92.5 -18.5,258.8 -29.1,459.3 427.5,-111.5 1250.9,-160.3 2236.4,615.6"
         style="fill:#ffffff;fill-opacity:1;fill-rule:nonzero;stroke:none"
         id="path220" /><path
         d="m 8928.56,13285.9 c -23.02,-13.6 -308.34,-186.9 -326.78,-427.3 -9.07,-118.2 21.9,-281.2 54.71,-453.8 45.82,-241.1 97.75,-514.4 54.72,-740 -63.08,-330.6 -131.66,-560.1 -192.16,-762.6 -69.9,-233.9 -130.29,-435.9 -170.4,-737.2 0.04,-1.7 -12.37,-370.1 155.94,-381 l 2046.21,-118.9 c 0.3,0 0.6,0 0.8,0 90.6,0 240.7,539 257.7,690.1 16.8,149.7 21.8,441.7 -50.1,982.1 -9.7,73.1 -15.5,188.7 -22.8,335 -2,40.1 -4.1,82.2 -6.4,126 -0.3,7.1 2.7,13.9 8.1,18.3 5.5,4.5 12.8,6.1 19.6,4.3 400.8,-104.5 1216.2,-165.1 2193.5,593.2 l -1100.8,768.2 c -74.5,-90.2 -436.5,-516.4 -635.1,-536.3 -183.3,-18.3 -580.9,357.2 -743.5,519.5 -65.5,77.1 -154.1,129.7 -250.6,149.4 -32.2,6.5 -68,15.3 -106,24.6 -250.26,61.2 -628.26,153.6 -1186.64,-53.6 z M 10550.6,9620.8 c -0.6,0 -1.3,0 -1.9,0.1 l -2046.82,119 c -211.25,13.6 -197.95,411.9 -197.28,428.9 40.76,306.8 101.58,510.4 172.02,746.1 60.22,201.5 128.45,429.8 191.1,758.2 41.48,217.3 -9.63,486.2 -54.72,723.5 -33.37,175.5 -64.88,341.3 -55.35,465.4 20.94,272.8 337.04,455.5 350.48,463.2 1.04,0.6 2.1,1.1 3.22,1.5 572.11,212.8 958.58,118.3 1214.35,55.8 37.5,-9.2 73,-17.9 104.3,-24.3 106.2,-21.6 203.6,-79.4 274.3,-162.7 252.9,-252.5 571.7,-519.3 706.6,-505.4 199.2,19.9 614,530.8 618.2,536 7.3,9 20.3,10.9 29.9,4.2 l 1142.1,-797.1 c 5.8,-4 9.3,-10.5 9.5,-17.5 0.2,-7 -3,-13.7 -8.5,-18 -979.5,-771.2 -1804.6,-729.5 -2226.3,-627 1.7,-33.2 3.3,-65.3 4.8,-96.2 7.3,-145.3 13,-260 22.5,-331.3 58.2,-437.5 75.1,-771.6 50.2,-993 -9.6,-85.1 -152.8,-729.3 -302.7,-729.4"
         style="fill:#000000;fill-opacity:1;fill-rule:nonzero;stroke:none"
         id="path222" /><path
         d="m 8376.75,11308.8 325.84,-507.2 145.96,98.9 c 89.28,60.6 198.7,83.8 304.87,64.7 0,0 156.97,-20.8 223.96,-74.9 161.59,-130.4 18.34,-211.5 -12.61,-227.9 -49.82,-26.4 -118.95,-50.9 -192.68,-40.3 -43.06,6.1 -156.45,-8.6 -258.87,-64.2 -77.48,-42.1 -168.04,-128 -291.05,-94.7 -105.1,28.5 -151.35,90.5 -151.35,90.5 l -420.96,524.9 326.89,230.2"
         style="fill:#ffffff;fill-opacity:1;fill-rule:nonzero;stroke:none"
         id="path224" /><path
         d="m 8081.87,11074.1 406.23,-506.6 c 0.84,-1 44.26,-57 139.86,-82.9 88.64,-24.2 160.84,21.8 224.52,62.3 17.38,11.1 33.8,21.5 50.16,30.4 106.15,57.7 223.31,73.8 272.59,66.6 69.88,-9.9 136.01,15.2 179.2,38.1 26.71,14.1 72.1,43.9 76.06,85 3.09,32 -19.46,67.7 -67,106.1 -61.37,49.5 -211.47,70 -212.98,70.2 -102.06,18.3 -204.55,-3.5 -289.54,-61.1 l -145.96,-98.9 c -4.92,-3.4 -11.02,-4.6 -16.85,-3.4 -5.86,1.2 -10.96,4.7 -14.2,9.7 l -313.35,487.8 z m 595.69,-640.5 c -19.52,0 -39.9,2.5 -61.19,8.2 -111.2,30.2 -161.21,95.9 -163.28,98.7 l -420.5,524.3 c -3.82,4.8 -5.51,10.9 -4.64,16.9 0.86,6.1 4.17,11.5 9.18,15 l 326.86,230.2 c 4.95,3.4 11.07,4.7 17.01,3.6 5.9,-1.2 11.11,-4.7 14.38,-9.8 l 313.56,-488.1 127.18,86.2 c 94.6,64.2 208.7,88.4 321.22,68.2 5.66,-0.7 162.92,-22.1 233.94,-79.5 59.87,-48.3 87.88,-97 83.28,-144.8 -4.41,-45.7 -39.73,-88.3 -99.42,-119.9 -49,-25.9 -124.61,-54.3 -206.18,-42.7 -36.42,5.3 -145.54,-7.5 -245.18,-61.7 -15.04,-8.1 -30.82,-18.2 -47.55,-28.8 -54.42,-34.6 -119.54,-76 -198.67,-76"
         style="fill:#000000;fill-opacity:1;fill-rule:nonzero;stroke:none"
         id="path226" /><path
         d="m 9036.01,12496.9 -549.34,-294.1 c -115.67,-61.9 -165.55,-201.4 -115.34,-322.6 l 203.21,-512.1 -939.89,-713.8 c 0,0 -508.16,1157.7 -338.4,1678.6 291.58,894.6 2154.91,1096.5 2154.91,1096.5 l -415.15,-932.5"
         style="fill:#ffffff;fill-opacity:1;fill-rule:nonzero;stroke:none"
         id="path228" /><path
         d="m 7634.65,10632.1 c -1.86,0 -3.72,0.3 -5.56,0.7 -6.57,1.7 -12,6.4 -14.71,12.6 -20.88,47.5 -509.59,1171.4 -339.18,1694.3 121.5,372.8 536.83,683.4 1201.05,898 498.67,161.1 967.85,213.2 972.54,213.7 11.81,1.4 23.06,-7.4 24.38,-19.6 1.32,-12.2 -7.45,-23.1 -19.62,-24.4 -18.48,-2 -1852.45,-210.6 -2136.26,-1081.4 -151.31,-464.3 253.53,-1463.3 326.59,-1636.9 l 903.89,686.5 -197.03,496.4 c -54.66,132 -0.75,282.8 125.49,350.3 l 209.78,112.3 c 10.81,5.8 24.18,1.7 29.96,-9 5.77,-10.8 1.71,-24.2 -9.08,-30 l -209.78,-112.3 c -106.1,-56.8 -151.38,-183.5 -105.34,-294.7 l 203.36,-512.3 c 3.65,-9.3 0.71,-19.8 -7.2,-25.8 l -939.9,-713.9 c -3.89,-2.9 -8.61,-4.5 -13.38,-4.5"
         style="fill:#000000;fill-opacity:1;fill-rule:nonzero;stroke:none"
         id="path230" /><path
         d="m 10802.5,11461.3 c -10.9,0 -20.4,8.1 -21.9,19.2 l -29.8,218.3 c -25.2,185.1 -44.7,389.8 -54.8,576.3 l -9.6,178.1 c -0.6,12.2 8.7,22.6 20.9,23.3 12.2,0.5 22.7,-8.7 23.3,-21 l 9.7,-178 c 10,-185.4 29.3,-388.8 54.4,-572.7 l 29.7,-218.3 c 1.7,-12.2 -6.8,-23.3 -18.9,-25 -1,-0.1 -2,-0.2 -3,-0.2"
         style="fill:#000000;fill-opacity:1;fill-rule:nonzero;stroke:none"
         id="path232" /><path
         d="m 9975.69,13913.6 -70.26,-583.9 363.47,-112 c 0,0 -519.34,-359.2 -1152.42,3 l 341.73,146 176.21,677.6 341.27,-130.7"
         style="fill:#ffffff;fill-opacity:1;fill-rule:nonzero;stroke:none"
         id="path234" /><path
         d="m 9166.95,13218.2 c 495.99,-262 917.45,-78.1 1047.85,-7 l -315.91,97.4 c -10.22,3.1 -16.72,13.1 -15.45,23.8 l 68.21,566.7 -302.03,115.7 -169.98,-653.7 c -1.74,-6.6 -6.42,-12.1 -12.74,-14.8 z m 530.27,-180.2 c -174.68,-0.1 -377.22,40.8 -591.73,163.5 -7.29,4.2 -11.59,12.1 -11.09,20.5 0.47,8.4 5.66,15.7 13.4,19 l 331.72,141.8 173.49,667 c 1.58,6.1 5.69,11.3 11.29,14.2 5.64,2.8 12.18,3.2 18.04,1 l 341.26,-130.7 c 9.49,-3.6 15.28,-13.2 14.07,-23.3 l -68.06,-565.6 345.89,-106.6 c 8,-2.5 14,-9.4 15.3,-17.7 1.3,-8.4 -2.3,-16.8 -9.3,-21.6 -3.5,-2.4 -239.5,-161.5 -584.28,-161.5"
         style="fill:#000000;fill-opacity:1;fill-rule:nonzero;stroke:none"
         id="path236" /><path
         d="m 9626.57,13880.7 c 0,0 -130.42,-49.2 -164.81,64.1 -34.39,113.3 78.04,106.2 78.04,106.2 0,0 -119.71,248.4 66.42,272.6 186.12,24.2 322.05,93 322.05,93 0,0 135.33,-236.9 178.73,-435.5 26.2,-119.8 19,-225.6 -71.4,-257.2 -247.54,-86.2 -409.03,156.8 -409.03,156.8"
         style="fill:#ffffff;fill-opacity:1;fill-rule:nonzero;stroke:none"
         id="path238" /><path
         d="m 9626.52,13902.8 c 7.24,0 14.27,-3.5 18.46,-9.8 6.24,-9.4 155.51,-227.6 383.32,-148.2 66.4,23.2 85.6,101.1 57.1,231.5 -35.5,162.1 -134.77,353 -166.49,411.4 -44.4,-19.8 -160.74,-66.7 -309.83,-86.1 -36.12,-4.7 -60,-18.6 -72.99,-42.6 -31.23,-57.7 6.48,-162.8 23.65,-198.4 3.41,-7.1 2.83,-15.4 -1.58,-21.9 -4.39,-6.5 -11.54,-10.3 -19.76,-9.8 -10.05,0.6 -40,-1.6 -53.23,-18.5 -9.66,-12.3 -10.42,-32.2 -2.23,-59.2 7.42,-24.4 20.13,-40.8 38.8,-50.1 40.74,-20.2 96.5,0.1 97.06,0.3 2.53,1 5.13,1.4 7.72,1.4 z m 304.04,-219.4 c -165.32,0 -279.38,129 -312.51,171.6 -24.81,-6.4 -73.62,-14.4 -115.7,6.4 -29.95,14.7 -50.72,40.6 -61.77,77 -12.67,41.7 -9.32,75.3 9.97,99.6 15.58,19.7 38.32,28.5 57.14,32.3 -18.15,47.7 -46.34,143.6 -10.53,209.8 19.97,36.8 55.7,58.9 106.21,65.4 180.28,23.4 313.57,90.2 314.89,90.8 10.5,5.4 23.37,1.5 29.22,-8.7 5.6,-9.8 137.52,-242.2 181.12,-441.8 34.2,-155.9 5.3,-251 -85.7,-282.8 -39.6,-13.7 -77.13,-19.6 -112.34,-19.6"
         style="fill:#000000;fill-opacity:1;fill-rule:nonzero;stroke:none"
         id="path240" /><path
         d="m 12842.6,14500.1 c -6.8,0 -13.5,3.2 -17.8,9 -7.3,9.9 -5.2,23.7 4.6,31 l 2266.4,1673.5 c 9.9,7.2 23.7,5.1 31,-4.7 7.2,-9.8 5.1,-23.7 -4.7,-30.9 l -2266.4,-1673.5 c -3.9,-2.9 -8.5,-4.4 -13.1,-4.4"
         style="fill:#000000;fill-opacity:1;fill-rule:nonzero;stroke:none"
         id="path242" /><path
         d="m 12653,14860.7 c -5.1,0 -10.1,1.7 -14.3,5.2 -9.3,7.9 -10.5,21.9 -2.6,31.2 l 849.6,1006.4 c 7.8,9.3 21.8,10.5 31.2,2.6 9.3,-7.9 10.5,-21.8 2.6,-31.2 l -849.6,-1006.3 c -4.4,-5.2 -10.6,-7.9 -16.9,-7.9"
         style="fill:#000000;fill-opacity:1;fill-rule:nonzero;stroke:none"
         id="path244" /><path
         d="m 20776.6,14546.5 c -0.1,0 -0.2,0 -0.4,0 -12.2,0.2 -21.9,10.3 -21.7,22.5 3.6,197.6 -1.3,397.8 -14.4,595 -0.8,12.2 8.5,22.7 20.7,23.6 11.8,0.8 22.7,-8.5 23.5,-20.7 13.2,-198.4 18,-399.9 14.5,-598.7 -0.3,-12 -10.1,-21.7 -22.2,-21.7"
         style="fill:#000000;fill-opacity:1;fill-rule:nonzero;stroke:none"
         id="path246" /><path
         d="m 20762.2,15143.3 c -11.6,0 -21.3,9 -22.1,20.7 -46.6,704.1 -198.7,1398.8 -452,2064.8 -158.4,416.3 -355.6,818.3 -586.2,1195 -6.4,10.4 -3.1,24 7.3,30.4 10.4,6.4 24.1,3.1 30.4,-7.3 232,-379 430.5,-783.5 589.8,-1202.4 254.9,-670.1 407.9,-1369.1 454.9,-2077.6 0.8,-12.2 -8.4,-22.7 -20.6,-23.5 -0.5,-0.1 -1,-0.1 -1.5,-0.1"
         style="fill:#000000;fill-opacity:1;fill-rule:nonzero;stroke:none"
         id="path248" /><path
         d="m 21423.4,14196 c -0.4,0 -0.8,0 -1.1,0 -12.3,0.6 -21.6,11 -21.1,23.2 5.1,102.9 8,207.3 8.7,310.2 0.1,12.3 10.2,22.3 22.3,22 12.3,-0.1 22.1,-10.1 22,-22.3 -0.8,-103.6 -3.7,-208.6 -8.7,-312.1 -0.6,-11.8 -10.4,-21 -22.1,-21"
         style="fill:#000000;fill-opacity:1;fill-rule:nonzero;stroke:none"
         id="path250" /><path
         d="m 21432.1,14507.1 c -0.1,0 -0.1,0 -0.2,0 -12.2,0.1 -22,10.1 -22,22.3 6.9,931.4 -158.3,1847.3 -491.1,2722.2 -190.2,500.1 -433.4,979.5 -722.8,1424.7 -6.7,10.3 -3.8,24 6.5,30.6 10.2,6.7 23.9,3.8 30.6,-6.5 291.1,-447.8 535.7,-930 727.1,-1433 334.7,-880.1 500.9,-1801.4 494,-2738.3 -0.1,-12.1 -10,-22 -22.1,-22"
         style="fill:#000000;fill-opacity:1;fill-rule:nonzero;stroke:none"
         id="path252" /><path
         d="m 19905.9,15353.4 408,-263.9 14.1,508.4 z m 429.1,-326 c -4.2,0 -8.4,1.2 -12,3.6 l -471.5,304.8 c -6.5,4.2 -10.3,11.4 -10.1,19.1 0.2,7.7 4.3,14.8 11,18.7 l 487.7,282.5 c 6.9,4.1 15.5,4 22.4,-0.1 6.9,-4.1 11.1,-11.6 10.8,-19.6 l -16.2,-587.4 c -0.2,-8 -4.7,-15.3 -11.8,-19 -3.3,-1.7 -6.8,-2.6 -10.3,-2.6"
         style="fill:#000000;fill-opacity:1;fill-rule:nonzero;stroke:none"
         id="path254" /><path
         d="m 4651.75,18311.6 c -3.05,0 -6.14,0.7 -9.1,2 -11.13,5 -16.08,18.1 -11.04,29.3 375.01,829.2 1018.44,1584.2 1860.74,2183.1 9.97,7.1 23.78,4.8 30.87,-5.2 7.06,-9.9 4.73,-23.7 -5.23,-30.8 -835.91,-594.5 -1474.25,-1343.2 -1846.05,-2165.4 -3.7,-8.1 -11.76,-13 -20.19,-13"
         style="fill:#000000;fill-opacity:1;fill-rule:nonzero;stroke:none"
         id="path256" /><path
         d="m 3949.03,17345.2 c -1.66,0 -3.35,0.2 -5.04,0.6 -11.91,2.8 -19.32,14.7 -16.53,26.6 157.72,678 461.43,1326.2 902.69,1926.5 456.34,620.9 1048.73,1174.6 1760.68,1645.7 10.18,6.7 23.9,3.9 30.66,-6.3 6.75,-10.2 3.96,-23.9 -6.24,-30.7 -1387.11,-917.8 -2326.34,-2176.8 -2644.69,-3545.2 -2.38,-10.3 -11.48,-17.2 -21.53,-17.2"
         style="fill:#000000;fill-opacity:1;fill-rule:nonzero;stroke:none"
         id="path258" /><path
         d="m 4458.01,15980.4 c -11.46,0 -21.16,8.8 -22.05,20.4 l -10.35,135.5 c -0.93,12.2 8.19,22.9 20.38,23.8 12.62,0.9 22.82,-8.2 23.76,-20.4 l 10.35,-135.5 c 0.93,-12.2 -8.2,-22.8 -20.38,-23.7 -0.59,-0.1 -1.15,-0.1 -1.71,-0.1"
         style="fill:#000000;fill-opacity:1;fill-rule:nonzero;stroke:none"
         id="path260" /><path
         d="m 4482.11,15664.8 c -11.46,0 -21.16,8.8 -22.05,20.4 l -10.35,135.5 c -0.93,12.2 8.19,22.8 20.38,23.7 12.56,0.9 22.82,-8.1 23.75,-20.3 l 10.35,-135.5 c 0.94,-12.2 -8.18,-22.9 -20.38,-23.8 -0.58,0 -1.14,0 -1.7,0"
         style="fill:#000000;fill-opacity:1;fill-rule:nonzero;stroke:none"
         id="path262" /><path
         d="m 4239.3,15873.1 c -11.45,0 -21.16,8.8 -22.04,20.4 -0.93,12.2 8.19,22.9 20.38,23.8 l 135.49,10.3 c 12.45,0.9 22.83,-8.2 23.75,-20.3 0.93,-12.2 -8.19,-22.9 -20.38,-23.8 l -135.49,-10.3 c -0.59,-0.1 -1.15,-0.1 -1.71,-0.1"
         style="fill:#000000;fill-opacity:1;fill-rule:nonzero;stroke:none"
         id="path264" /><path
         d="m 4554.95,15897.2 c -11.46,0 -21.17,8.8 -22.05,20.5 -0.93,12.1 8.19,22.8 20.38,23.7 l 135.49,10.4 c 12.47,0.9 22.83,-8.2 23.76,-20.4 0.93,-12.2 -8.19,-22.9 -20.38,-23.8 l -135.5,-10.3 c -0.58,-0.1 -1.14,-0.1 -1.7,-0.1"
         style="fill:#000000;fill-opacity:1;fill-rule:nonzero;stroke:none"
         id="path266" /><path
         d="m 4770.67,16161.4 c -13.73,0 -27.54,2 -41.05,6.1 -36.93,11.2 -67.28,36.4 -85.46,71 -37.04,70.6 -10.89,158.6 58.34,196.3 10.72,5.8 24.16,1.8 30,-8.9 5.85,-10.7 1.88,-24.2 -8.86,-30 -48.07,-26.2 -66.14,-87.5 -40.27,-136.8 12.6,-24 33.59,-41.5 59.09,-49.2 24.97,-7.6 51.27,-4.9 74.16,7.5 48.07,26.2 66.13,87.6 40.26,136.9 -5.68,10.8 -1.51,24.1 9.32,29.8 10.85,5.8 24.19,1.5 29.89,-9.3 37.04,-70.5 10.89,-158.6 -58.34,-196.2 -20.96,-11.4 -43.91,-17.2 -67.08,-17.2"
         style="fill:#000000;fill-opacity:1;fill-rule:nonzero;stroke:none"
         id="path268" /><path
         d="m 5165.67,15345.4 c -38.12,0 -75.99,14.7 -104.06,43.9 -8.48,8.8 -8.22,22.8 0.6,31.3 8.82,8.4 22.82,8.2 31.3,-0.7 37.95,-39.4 101.9,-40.5 142.58,-2.5 19.82,18.5 31.1,43.4 31.82,70 0.69,26 -8.91,50.7 -26.98,69.5 -37.93,39.4 -101.9,40.6 -142.58,2.6 -8.88,-8.4 -22.89,-7.9 -31.28,1 -8.34,8.9 -7.86,22.9 1.06,31.3 58.28,54.5 150.11,52.5 204.71,-4.2 26.34,-27.4 40.3,-63.4 39.31,-101.4 -1.02,-38.5 -17.29,-74.5 -45.84,-101.2 -28.32,-26.4 -64.58,-39.6 -100.64,-39.6"
         style="fill:#000000;fill-opacity:1;fill-rule:nonzero;stroke:none"
         id="path270" /><path
         d="m 7863.8,16090.1 c 0,-596.8 -483.8,-1080.6 -1080.6,-1080.6 -596.79,0 -1080.59,483.8 -1080.59,1080.6 0,596.8 483.8,1080.6 1080.59,1080.6 596.8,0 1080.6,-483.8 1080.6,-1080.6"
         style="fill:#ffffff;fill-opacity:1;fill-rule:nonzero;stroke:none"
         id="path272" /><path
         d="m 6783.21,17148.5 c -583.63,0 -1058.46,-474.8 -1058.46,-1058.4 0,-583.7 474.83,-1058.5 1058.46,-1058.5 583.63,0 1058.45,474.8 1058.45,1058.5 0,583.6 -474.82,1058.4 -1058.45,1058.4 z m 0,-2161.2 c -608.05,0 -1102.72,494.7 -1102.72,1102.8 0,608 494.67,1102.7 1102.72,1102.7 608.04,0 1102.71,-494.7 1102.71,-1102.7 0,-608.1 -494.67,-1102.8 -1102.71,-1102.8"
         style="fill:#000000;fill-opacity:1;fill-rule:nonzero;stroke:none"
         id="path274" /><path
         d="m 6925.84,15503.7 h -287.92 c -59.08,0 -106.97,47.9 -106.97,107 v 1087.1 c 0,26.4 21.47,47.9 47.95,47.9 h 369.08 c 42.78,0 77.47,-34.7 77.47,-77.5 v -1064.9 c 0,-55 -44.6,-99.6 -99.61,-99.6"
         style="fill:#000000;fill-opacity:1;fill-rule:nonzero;stroke:none"
         id="path276" /><path
         d="m 6202.54,15928.7 v 391.2 c 0,22.4 18.17,40.6 40.59,40.6 h 1039.42 c 48.9,0 88.54,-39.7 88.54,-88.6 v -302.7 c 0,-57 -46.25,-103.3 -103.3,-103.3 H 6265.26 c -34.63,0 -62.72,28.1 -62.72,62.8"
         style="fill:#000000;fill-opacity:1;fill-rule:nonzero;stroke:none"
         id="path278" /><path
         d="m 9797.74,20487.1 c 0,-596.8 -483.8,-1080.6 -1080.59,-1080.6 -596.79,0 -1080.59,483.8 -1080.59,1080.6 0,596.8 483.8,1080.6 1080.59,1080.6 596.79,0 1080.59,-483.8 1080.59,-1080.6"
         style="fill:#ffffff;fill-opacity:1;fill-rule:nonzero;stroke:none"
         id="path280" /><path
         d="m 8717.16,21545.6 c -583.65,0 -1058.48,-474.9 -1058.48,-1058.5 0,-583.6 474.83,-1058.5 1058.48,-1058.5 583.63,0 1058.45,474.9 1058.45,1058.5 0,583.6 -474.82,1058.5 -1058.45,1058.5 z m 0,-2161.2 c -608.05,0 -1102.75,494.7 -1102.75,1102.7 0,608.1 494.7,1102.7 1102.75,1102.7 608.05,0 1102.72,-494.6 1102.72,-1102.7 0,-608 -494.67,-1102.7 -1102.72,-1102.7"
         style="fill:#000000;fill-opacity:1;fill-rule:nonzero;stroke:none"
         id="path282" /><path
         d="m 8626.73,19643.3 -4.56,197.2 c -139.25,3 -275.05,37.3 -354.99,81.1 l 56.65,244.4 c 88.3,-45.8 211.8,-86.5 346.74,-83.4 118.33,2.7 198.24,50.3 196.32,133.3 -1.82,78.9 -69.42,127.2 -224.24,175.5 -223.87,69.6 -377.82,169.9 -382.48,371.3 -4.23,182.7 121.17,328.9 342.3,377.7 l -4.56,197.2 203.44,4.7 4.23,-182.7 c 139.24,-3 233.34,-29.9 302.62,-61.5 l -54.78,-236 c -54.5,21.6 -151.12,67.1 -300.58,63.6 -134.94,-3.1 -177.2,-62.2 -175.85,-120.3 1.58,-68.5 75.25,-110.5 253.26,-172.8 249.06,-81.5 351.35,-193.4 355.67,-380.2 4.28,-184.8 -122.85,-345.6 -360.64,-392.6 l 4.9,-211.8 -203.45,-4.7"
         style="fill:#000000;fill-opacity:1;fill-rule:nonzero;stroke:none"
         id="path284" /><path
         d="m 8094.09,18564.9 c 0,-596.8 -483.8,-1080.6 -1080.59,-1080.6 -596.8,0 -1080.6,483.8 -1080.6,1080.6 0,596.8 483.8,1080.6 1080.6,1080.6 596.79,0 1080.59,-483.8 1080.59,-1080.6"
         style="fill:#ffffff;fill-opacity:1;fill-rule:nonzero;stroke:none"
         id="path286" /><path
         d="m 7013.5,19623.4 c -583.63,0 -1058.46,-474.9 -1058.46,-1058.5 0,-583.6 474.83,-1058.5 1058.46,-1058.5 583.62,0 1058.45,474.9 1058.45,1058.5 0,583.6 -474.83,1058.5 -1058.45,1058.5 z m 0,-2161.2 c -608.06,0 -1102.72,494.7 -1102.72,1102.7 0,608.1 494.66,1102.7 1102.72,1102.7 608.05,0 1102.72,-494.6 1102.72,-1102.7 0,-608 -494.67,-1102.7 -1102.72,-1102.7"
         style="fill:#000000;fill-opacity:1;fill-rule:nonzero;stroke:none"
         id="path288" /><path
         d="M 7488.14,17965.9 H 6457.29 c -8.95,0 -16.2,7.3 -16.2,16.2 v 903.7 c 0,9 7.25,16.3 16.2,16.3 h 1030.85 c 8.94,0 16.2,-7.3 16.2,-16.3 v -903.7 c 0,-8.9 -7.26,-16.2 -16.2,-16.2"
         style="fill:#000000;fill-opacity:1;fill-rule:nonzero;stroke:none"
         id="path290" /><path
         d="M 6356.97,18855.8 H 7611.6 c 15.36,0 22.77,18.8 11.53,29.3 l -627.32,584.1 c -6.49,6 -16.56,6 -23.05,0 l -627.32,-584.1 c -11.24,-10.5 -3.83,-29.3 11.53,-29.3"
         style="fill:#000000;fill-opacity:1;fill-rule:nonzero;stroke:none"
         id="path292" /><path
         d="m 6869.35,18416.7 h -270.97 c -8.15,0 -14.76,6.6 -14.76,14.7 v 271 c 0,8.2 6.61,14.8 14.76,14.8 h 270.97 c 8.15,0 14.76,-6.6 14.76,-14.8 v -271 c 0,-8.1 -6.61,-14.7 -14.76,-14.7"
         style="fill:#ffffff;fill-opacity:1;fill-rule:nonzero;stroke:none"
         id="path294" /></g></g></svg>
