<?xml version="1.0" standalone="no"?><svg xmlns:xlink="http://www.w3.org/1999/xlink" xmlns="http://www.w3.org/2000/svg" viewBox="0 0 1000 272.72727272727275" preserveAspectRatio="xMaxYMax slice"><g transform="scale(1.0570824524312896)"><rect x="0" y="0" width="946" height="258" fill="#ffffff"/><rect x="0" y="0" width="86" height="86" fill="#add8fb"/><polygon points="86,0 86,86 0,86" fill="#f1f8fe"/><rect x="86" y="0" width="86" height="86" fill="#ffffff"/><rect x="86" y="0" width="43" height="43" fill="#fbc131"/><polygon points="129,0 129,43 86,43" fill="#c4e3fc"/><rect x="129" y="0" width="43" height="43" fill="#fcd064"/><polygon points="129,0 172,0 129,43" fill="#fde3a2"/><rect x="86" y="43" width="43" height="43" fill="#86c5f9"/><polygon points="86,43 129,43 129,86" fill="#fef4da"/><rect x="129" y="43" width="43" height="43" fill="#c1e1fc"/><polygon points="129,43 172,86 129,86" fill="#fcd166"/><rect x="172" y="0" width="86" height="86" fill="#ffffff"/><rect x="172" y="0" width="43" height="43" fill="#fcd063"/><path d="M 172 43 A 43 43 0 0 1  215 0 L 215 43" fill="#fff8e9"/><rect x="215" y="0" width="43" height="43" fill="#81c3f8"/><path d="M 215 0 A 43 43 0 0 1 258 43 L 215 43" fill="#fef2d4"/><rect x="172" y="43" width="43" height="43" fill="#feecc0"/><path d="M 172 43 A 43 43 0 0 0 215 86 L 215 43" fill="#fcd36c"/><rect x="215" y="43" width="43" height="43" fill="#fde4a5"/><path d="M 215 86 A 43 43 0 0 0 258 43 L 215 43" fill="#fdda82"/><rect x="258" y="0" width="86" height="86" fill="#ffffff"/><rect x="258" y="0" width="43" height="43" fill="#fcd36d"/><polygon points="301,0 301,43 258,43" fill="#fef5de"/><rect x="301" y="0" width="43" height="43" fill="#72bcf8"/><polygon points="301,0 344,43 301,43" fill="#9dd0fa"/><rect x="258" y="43" width="43" height="43" fill="#fef5de"/><polygon points="258,43 301,43 301,86" fill="#b4dbfb"/><rect x="301" y="43" width="43" height="43" fill="#a1d2fa"/><polygon points="301,43 344,43 301,86" fill="#4fabf6"/><rect x="344" y="0" width="86" height="86" fill="#ffffff"/><rect x="344" y="0" width="43" height="43" fill="#fccc55"/><path d="M 344 0 A 43 43 0 0 0 387 43 L 387 0" fill="#fef1cf"/><rect x="387" y="0" width="43" height="43" fill="#f1f8fe"/><path d="M 387 43 A 43 43 0 0 0 430 0 L 387 0" fill="#fffffe"/><rect x="344" y="43" width="43" height="43" fill="#fbc53f"/><path d="M 344 86 A 43 43 0 0 1  387 43 L 387 86" fill="#fcc848"/><rect x="387" y="43" width="43" height="43" fill="#c1e2fc"/><path d="M 387 43 A 43 43 0 0 1 430 86 L 387 86" fill="#fdd97f"/><rect x="430" y="0" width="86" height="86" fill="#ffffff"/><rect x="430" y="0" width="43" height="43" fill="#6ab8f7"/><path d="M 430 0 A 43 43 0 0 0 473 43 L 473 0" fill="#fffefd"/><rect x="473" y="0" width="43" height="43" fill="#4fabf6"/><path d="M 473 43 A 43 43 0 0 0 516 0 L 473 0" fill="#feebbc"/><rect x="430" y="43" width="43" height="43" fill="#c1e1fc"/><path d="M 430 86 A 43 43 0 0 1  473 43 L 473 86" fill="#feefcb"/><rect x="473" y="43" width="43" height="43" fill="#fbc746"/><path d="M 473 43 A 43 43 0 0 1 516 86 L 473 86" fill="#53adf6"/><rect x="516" y="0" width="86" height="86" fill="#fccf5e"/><rect x="516" y="0" width="86" height="86" fill="#eef7fe"/><rect x="602" y="0" width="86" height="86" fill="#ffffff"/><rect x="602" y="0" width="43" height="43" fill="#fcca50"/><path d="M 602 43 A 43 43 0 0 0 645 0 L 602 0" fill="#dbeefd"/><rect x="645" y="0" width="43" height="43" fill="#52adf6"/><path d="M 645 0 A 43 43 0 0 0 688 43 L 688 0" fill="#7bc0f8"/><rect x="602" y="43" width="43" height="43" fill="#fde098"/><path d="M 602 43 A 43 43 0 0 1 645 86 L 602 86" fill="#b6dcfb"/><rect x="645" y="43" width="43" height="43" fill="#66b6f7"/><path d="M 645 86 A 43 43 0 0 1  688 43 L 688 86" fill="#d1e9fd"/><rect x="688" y="0" width="86" height="86" fill="#78bff8"/><path d="M 688 0 A 86 86 0 0 1  774 86 L 688 0 A 86 86 0 0 0 774 86" fill="#fee9b6"/><rect x="774" y="0" width="86" height="86" fill="#60b3f7"/><polygon points="774,0 860,0 860,86" fill="#fafcff"/><rect x="860" y="0" width="86" height="86" fill="#fde6ab"/><polygon points="946,0 946,86 860,86" fill="#fefeff"/><rect x="0" y="86" width="86" height="86" fill="#ffffff"/><rect x="0" y="86" width="43" height="43" fill="#fffefb"/><polygon points="43,86 43,129 0,129" fill="#5cb1f6"/><rect x="43" y="86" width="43" height="43" fill="#6ab8f7"/><polygon points="43,86 86,86 43,129" fill="#61b4f7"/><rect x="0" y="129" width="43" height="43" fill="#73bcf8"/><polygon points="0,129 43,129 43,172" fill="#fcd46f"/><rect x="43" y="129" width="43" height="43" fill="#4aa9f5"/><polygon points="43,129 86,172 43,172" fill="#dceefd"/><rect x="86" y="86" width="86" height="86" fill="#ffffff"/><rect x="86" y="86" width="43" height="43" fill="#fddc8b"/><path d="M 86 86 A 43 43 0 0 0 129 129 L 129 86" fill="#fddc8a"/><rect x="129" y="86" width="43" height="43" fill="#fbc743"/><path d="M 129 129 A 43 43 0 0 0 172 86 L 129 86" fill="#fdd981"/><rect x="86" y="129" width="43" height="43" fill="#fde6ab"/><path d="M 86 172 A 43 43 0 0 1  129 129 L 129 172" fill="#e7f4fe"/><rect x="129" y="129" width="43" height="43" fill="#e9f5fe"/><path d="M 129 129 A 43 43 0 0 1 172 172 L 129 172" fill="#fcd46f"/><rect x="172" y="86" width="86" height="86" fill="#6bb9f7"/><path d="M 172 172 A 86 86 0 0 1  258 86 L 258 172" fill="#81c3f8"/><rect x="258" y="86" width="86" height="86" fill="#ffffff"/><rect x="258" y="86" width="43" height="43" fill="#eef7fe"/><path d="M 258 129 A 43 43 0 0 1  301 86 L 301 129" fill="#add8fb"/><rect x="301" y="86" width="43" height="43" fill="#fbc131"/><path d="M 301 86 A 43 43 0 0 1 344 129 L 301 129" fill="#42a5f5"/><rect x="258" y="129" width="43" height="43" fill="#feebbc"/><path d="M 258 129 A 43 43 0 0 0 301 172 L 301 129" fill="#97cdf9"/><rect x="301" y="129" width="43" height="43" fill="#fbc847"/><path d="M 301 172 A 43 43 0 0 0 344 129 L 301 129" fill="#fbc336"/><rect x="344" y="86" width="86" height="86" fill="#ffffff"/><rect x="344" y="86" width="43" height="43" fill="#fde3a0"/><polygon points="387,86 387,129 344,129" fill="#badefb"/><rect x="387" y="86" width="43" height="43" fill="#73bcf8"/><polygon points="387,86 430,86 387,129" fill="#68b7f7"/><rect x="344" y="129" width="43" height="43" fill="#fff8e8"/><polygon points="344,129 387,129 387,172" fill="#fbc642"/><rect x="387" y="129" width="43" height="43" fill="#fef5de"/><polygon points="387,129 430,172 387,172" fill="#82c4f8"/><rect x="430" y="86" width="86" height="86" fill="#fbc642"/><polygon points="516,86 516,172 430,172" fill="#54aef6"/><rect x="516" y="86" width="86" height="86" fill="#ffffff"/><rect x="516" y="86" width="43" height="43" fill="#74bdf8"/><circle cx="537.5" cy="107.5" r="21.5" fill="#c6e4fc"/><rect x="559" y="86" width="43" height="43" fill="#aed8fb"/><rect x="559" y="86" width="43" height="43" fill="#fbc745"/><rect x="516" y="129" width="43" height="43" fill="#fde19c"/><circle cx="537.5" cy="150.5" r="21.5" fill="#d8ecfd"/><rect x="559" y="129" width="43" height="43" fill="#fccb50"/><rect x="559" y="129" width="43" height="43" fill="#a1d2fa"/><rect x="602" y="86" width="86" height="86" fill="#acd8fb"/><path d="M 602 172 A 86 86 0 0 1  688 86 L 688 172" fill="#badefb"/><rect x="688" y="86" width="86" height="86" fill="#ffffff"/><rect x="688" y="86" width="43" height="43" fill="#fcd26a"/><polygon points="731,86 731,129 688,129" fill="#69b8f7"/><rect x="731" y="86" width="43" height="43" fill="#fffaef"/><polygon points="731,86 774,129 731,129" fill="#d1e9fd"/><rect x="688" y="129" width="43" height="43" fill="#92cbf9"/><polygon points="688,129 731,129 731,172" fill="#feeec5"/><rect x="731" y="129" width="43" height="43" fill="#fccf5f"/><polygon points="731,129 774,129 731,172" fill="#a7d5fa"/><rect x="774" y="86" width="86" height="86" fill="#fef6e2"/><rect x="774" y="86" width="86" height="86" fill="#fbc744"/><rect x="860" y="86" width="86" height="86" fill="#68b7f7"/><polygon points="860,86 946,172 860,172" fill="#fee9b6"/><rect x="0" y="172" width="86" height="86" fill="#cfe8fc"/><polygon points="0,172 86,172 86,258" fill="#e2f1fd"/><rect x="86" y="172" width="86" height="86" fill="#ffffff"/><rect x="86" y="172" width="43" height="43" fill="#49a8f5"/><path d="M 86 172 A 43 43 0 0 1 129 215 L 86 215" fill="#fddb86"/><rect x="129" y="172" width="43" height="43" fill="#feebbb"/><path d="M 129 215 A 43 43 0 0 1  172 172 L 172 215" fill="#59b0f6"/><rect x="86" y="215" width="43" height="43" fill="#fcd063"/><path d="M 86 258 A 43 43 0 0 0 129 215 L 86 215" fill="#47a7f5"/><rect x="129" y="215" width="43" height="43" fill="#6bb8f7"/><path d="M 129 215 A 43 43 0 0 0 172 258 L 172 215" fill="#a9d6fa"/><rect x="172" y="172" width="86" height="86" fill="#fbfdff"/><path d="M 172 258 A 86 86 0 0 1  258 172 L 258 258" fill="#fddf96"/><rect x="258" y="172" width="86" height="86" fill="#7cc1f8"/><rect x="258" y="172" width="86" height="86" fill="#cde7fc"/><rect x="344" y="172" width="86" height="86" fill="#ffffff"/><rect x="344" y="172" width="43" height="43" fill="#fdda82"/><circle cx="365.5" cy="193.5" r="21.5" fill="#d7ecfd"/><rect x="387" y="172" width="43" height="43" fill="#85c5f9"/><rect x="387" y="172" width="43" height="43" fill="#bfe1fc"/><rect x="344" y="215" width="43" height="43" fill="#4daaf6"/><circle cx="365.5" cy="236.5" r="21.5" fill="#a8d6fa"/><rect x="387" y="215" width="43" height="43" fill="#57aff6"/><rect x="387" y="215" width="43" height="43" fill="#fde3a0"/><rect x="430" y="172" width="86" height="86" fill="#ffffff"/><rect x="430" y="172" width="43" height="43" fill="#93ccf9"/><polygon points="473,172 473,215 430,215" fill="#b7dcfb"/><rect x="473" y="172" width="43" height="43" fill="#fcd573"/><polygon points="473,172 516,172 473,215" fill="#fef5dc"/><rect x="430" y="215" width="43" height="43" fill="#fff8e8"/><polygon points="430,215 473,215 473,258" fill="#c9e5fc"/><rect x="473" y="215" width="43" height="43" fill="#92cbf9"/><polygon points="473,215 516,258 473,258" fill="#f6fbff"/><rect x="516" y="172" width="86" height="86" fill="#fbc131"/><polygon points="516,172 602,258 516,258" fill="#fccf5e"/><rect x="602" y="172" width="86" height="86" fill="#89c7f9"/><rect x="602" y="172" width="86" height="86" fill="#e5f3fe"/><rect x="688" y="172" width="86" height="86" fill="#ffffff"/><rect x="688" y="172" width="43" height="43" fill="#fde5a8"/><polygon points="731,172 731,215 688,215" fill="#96cdf9"/><rect x="731" y="172" width="43" height="43" fill="#fcd36c"/><polygon points="731,172 774,215 731,215" fill="#fbc53c"/><rect x="688" y="215" width="43" height="43" fill="#fcc849"/><polygon points="688,215 731,215 688,258" fill="#fff9eb"/><rect x="731" y="215" width="43" height="43" fill="#fffbf3"/><polygon points="731,215 774,215 774,258" fill="#d7ecfd"/><rect x="774" y="172" width="86" height="86" fill="#fcce5a"/><rect x="774" y="172" width="86" height="86" fill="#fcd061"/><rect x="860" y="172" width="86" height="86" fill="#ffffff"/><rect x="860" y="172" width="43" height="43" fill="#d0e8fc"/><polygon points="903,172 903,215 860,215" fill="#fffdf9"/><rect x="903" y="172" width="43" height="43" fill="#e5f3fe"/><polygon points="903,172 946,215 903,215" fill="#fde097"/><rect x="860" y="215" width="43" height="43" fill="#c4e3fc"/><polygon points="860,215 903,215 860,258" fill="#fccf5f"/><rect x="903" y="215" width="43" height="43" fill="#fde5a8"/><polygon points="903,215 946,215 946,258" fill="#e2f1fd"/></g></svg>